<svg width="141" height="76" viewBox="0 0 141 76" fill="none" xmlns="http://www.w3.org/2000/svg">
<g clip-path="url(#clip0)">
<path d="M15.6507 30.5624C17.0866 31.378 18.1874 32.4815 18.9532 33.9209C19.7668 35.3603 20.1497 37.0396 20.1497 38.9588C20.1497 40.878 19.7668 42.5573 18.9532 43.9967C18.1395 45.4361 17.0387 46.5396 15.6507 47.3553C14.2149 48.1709 12.6833 48.5548 10.9603 48.5548C8.61507 48.5548 6.74847 47.7871 5.36049 46.2997V54.9841H0V29.6507H5.12118V31.8098C6.4613 30.1785 8.37576 29.4108 10.9603 29.4108C12.6833 29.3629 14.2627 29.7947 15.6507 30.5624ZM13.4012 42.7012C14.2627 41.7896 14.7413 40.5422 14.7413 38.9588C14.7413 37.3755 14.3106 36.128 13.4012 35.2164C12.5397 34.3048 11.391 33.825 10.0031 33.825C8.61507 33.825 7.51426 34.3048 6.60489 35.2164C5.74338 36.128 5.26477 37.3755 5.26477 38.9588C5.26477 40.5422 5.69552 41.7896 6.60489 42.7012C7.46639 43.6129 8.61507 44.0927 10.0031 44.0927C11.391 44.0927 12.5397 43.6129 13.4012 42.7012Z" fill="#1058FB"/>
<path d="M21.7288 22.5986H27.0892V48.2198H21.7288V22.5986Z" fill="#1058FB"/>
<path d="M44.1282 31.4264C45.6597 32.8178 46.4255 34.881 46.4255 37.6158V48.2193H41.4001V45.9163C40.395 47.6436 38.5284 48.5072 35.7524 48.5072C34.3166 48.5072 33.0722 48.2673 32.0671 47.7875C31.0141 47.3077 30.2005 46.636 29.674 45.7724C29.0997 44.9087 28.8604 43.9491 28.8604 42.8936C28.8604 41.1663 29.5304 39.8229 30.8227 38.8153C32.1149 37.8077 34.1251 37.3279 36.8532 37.3279H41.1129C41.1129 36.1764 40.7779 35.2648 40.0599 34.5931C39.342 33.9693 38.2891 33.6335 36.8532 33.6335C35.8481 33.6335 34.8909 33.7774 33.9337 34.1133C32.9764 34.4012 32.1628 34.833 31.4927 35.3608L29.5783 31.6183C30.5834 30.8986 31.7799 30.3709 33.2158 29.939C34.6516 29.5552 36.0874 29.3633 37.5711 29.3633C40.3471 29.3633 42.5487 30.083 44.1282 31.4264ZM39.5335 44.237C40.2514 43.8052 40.73 43.1815 41.065 42.3658V40.4466H37.3318C35.1302 40.4466 34.0294 41.1663 34.0294 42.6057C34.0294 43.2774 34.3166 43.8532 34.843 44.237C35.3695 44.6209 36.1353 44.8608 37.0447 44.8608C38.0019 44.9087 38.8155 44.6688 39.5335 44.237Z" fill="#1058FB"/>
<path d="M66.0489 31.4744C67.4848 32.8658 68.1548 34.9289 68.1548 37.6158V48.2673H62.7943V38.4315C62.7943 36.9441 62.4593 35.8406 61.8371 35.1209C61.2149 34.4012 60.2577 34.0173 59.0611 34.0173C57.721 34.0173 56.6202 34.4491 55.8065 35.2648C54.9929 36.1284 54.61 37.3759 54.61 39.0072V48.2194H49.2495V29.6512H54.3707V31.8103C55.0886 31.0426 55.9501 30.4188 57.0031 29.987C58.056 29.5552 59.2047 29.3633 60.497 29.3633C62.7943 29.3633 64.6131 30.083 66.0489 31.4744Z" fill="#1058FB"/>
<path d="M87.7784 31.4744C89.2142 32.8658 89.8843 34.9289 89.8843 37.6158V48.2673H84.5238V38.4315C84.5238 36.9441 84.1888 35.8406 83.5666 35.1209C82.9444 34.4012 81.9871 34.0173 80.7906 34.0173C79.4505 34.0173 78.3497 34.4491 77.536 35.2648C76.7224 36.1284 76.3395 37.3759 76.3395 39.0072V48.2194H70.979V29.6512H76.1002V31.8103C76.8181 31.0426 77.6796 30.4188 78.7326 29.987C79.7855 29.5552 80.9342 29.3633 82.2264 29.3633C84.5238 29.3633 86.3904 30.083 87.7784 31.4744Z" fill="#1058FB"/>
<path d="M92.9951 26.1965C92.3729 25.6207 92.0857 24.901 92.0857 24.0374C92.0857 23.1737 92.3729 22.454 92.9951 21.8783C93.6173 21.3025 94.4309 21.0146 95.3881 21.0146C96.3932 21.0146 97.159 21.3025 97.7812 21.8303C98.4034 22.3581 98.6906 23.0778 98.6906 23.8934C98.6906 24.8051 98.4034 25.5247 97.7812 26.1005C97.159 26.6763 96.3454 26.9641 95.3881 26.9641C94.383 27.0601 93.5694 26.7722 92.9951 26.1965ZM92.7079 29.651H98.0684V48.2192H92.7079V29.651Z" fill="#1058FB"/>
<path d="M110.034 30.0831H106.923V29.2675C106.923 27.4922 107.736 26.5806 109.364 26.5806C109.603 26.5806 109.842 26.5806 110.034 26.6286V22.4064C109.651 22.3584 109.268 22.3584 108.837 22.3584C106.54 22.3584 104.817 22.9821 103.524 24.2296C102.28 25.4771 101.658 27.1564 101.658 29.2675V30.0831H98.7861V34.2094H101.658V48.2195H107.018V34.2094H109.986V30.0831H110.034Z" fill="#1058FB"/>
<path d="M113.336 75.8083L140.187 57.2881C140.713 56.9522 141 56.3285 141 55.7047V0.959779C141 0.192102 140.139 -0.287696 139.517 0.192102L112.666 18.7123C112.14 19.0482 111.853 19.6719 111.853 20.2956V75.0406C111.805 75.8083 112.666 76.288 113.336 75.8083Z" fill="#2CF9FE"/>
<path d="M128.508 31.4264C130.04 32.8178 130.806 34.881 130.806 37.6158V48.2193H125.78V45.9163C124.775 47.6436 122.908 48.5072 120.133 48.5072C118.697 48.5072 117.452 48.2673 116.447 47.7875C115.394 47.3077 114.581 46.636 114.054 45.7724C113.48 44.9087 113.24 43.9491 113.24 42.8936C113.24 41.1663 113.911 39.8229 115.203 38.8153C116.495 37.8077 118.505 37.3279 121.233 37.3279H125.493C125.493 36.1764 125.158 35.2648 124.44 34.5931C123.722 33.9693 122.669 33.6335 121.233 33.6335C120.228 33.6335 119.271 33.7774 118.314 34.1133C117.357 34.4012 116.543 34.833 115.873 35.3608L113.958 31.6183C114.963 30.8986 116.16 30.3709 117.596 29.939C119.032 29.5552 120.468 29.3633 121.951 29.3633C124.775 29.3633 126.977 30.083 128.508 31.4264ZM123.914 44.237C124.632 43.8052 125.11 43.1815 125.445 42.3658V40.4466H121.76C119.558 40.4466 118.457 41.1663 118.457 42.6057C118.457 43.2774 118.745 43.8532 119.271 44.237C119.797 44.6209 120.563 44.8608 121.473 44.8608C122.382 44.9087 123.196 44.6688 123.914 44.237Z" fill="#1058FB"/>
<path d="M133.869 26.1965C133.247 25.6207 132.959 24.901 132.959 24.0374C132.959 23.1737 133.247 22.454 133.869 21.8783C134.491 21.3025 135.305 21.0146 136.262 21.0146C137.267 21.0146 138.033 21.3025 138.655 21.8303C139.277 22.3581 139.564 23.0778 139.564 23.8934C139.564 24.8051 139.277 25.5247 138.655 26.1005C138.033 26.6763 137.219 26.9641 136.262 26.9641C135.305 27.0601 134.491 26.7722 133.869 26.1965ZM133.63 29.651H138.99V48.2192H133.63V29.651Z" fill="#1058FB"/>
</g>
<defs>
<clipPath id="clip0">
<rect width="141" height="76" fill="white"/>
</clipPath>
</defs>
</svg>
