<svg width="137" height="74" viewBox="0 0 137 74" fill="none" xmlns="http://www.w3.org/2000/svg">
<g clip-path="url(#clip0)">
<path d="M15.2067 29.7595C16.6018 30.5537 17.6714 31.6282 18.4155 33.0297C19.206 34.4312 19.5781 36.0663 19.5781 37.935C19.5781 39.8037 19.206 41.4388 18.4155 42.8403C17.6249 44.2418 16.5553 45.3163 15.2067 46.1105C13.8116 46.9047 12.3235 47.2784 10.6494 47.2784C8.37067 47.2784 6.55703 46.531 5.20842 45.0827V53.5385H0V28.8719H4.9759V30.9741C6.278 29.3858 8.13815 28.6383 10.6494 28.6383C12.3235 28.5916 13.8581 29.012 15.2067 29.7595ZM13.021 41.5789C13.8581 40.6913 14.3231 39.4767 14.3231 37.935C14.3231 36.3933 13.9046 35.1787 13.021 34.2911C12.184 33.4034 11.0679 32.9363 9.71928 32.9363C8.37067 32.9363 7.30109 33.4034 6.41752 34.2911C5.58045 35.1787 5.11541 36.3933 5.11541 37.935C5.11541 39.4767 5.53394 40.6913 6.41752 41.5789C7.25458 42.4666 8.37067 42.9337 9.71928 42.9337C11.0679 42.9337 12.184 42.4666 13.021 41.5789Z" fill="white"/>
<path d="M21.1123 22.0059H26.3207V46.9528H21.1123V22.0059Z" fill="white"/>
<path d="M42.8762 30.6006C44.3643 31.9554 45.1084 33.9643 45.1084 36.6271V46.9516H40.2255V44.7092C39.2489 46.391 37.4353 47.2319 34.738 47.2319C33.3429 47.2319 32.1338 46.9984 31.1573 46.5312C30.1342 46.064 29.3436 45.41 28.8321 44.5691C28.274 43.7282 28.0415 42.7938 28.0415 41.766C28.0415 40.0842 28.6926 38.7761 29.9482 37.7951C31.2038 36.814 33.1569 36.3468 35.8076 36.3468H39.9465C39.9465 35.2256 39.6209 34.338 38.9234 33.684C38.2258 33.0766 37.2027 32.7496 35.8076 32.7496C34.8311 32.7496 33.901 32.8898 32.9709 33.2168C32.0408 33.4971 31.2503 33.9176 30.5992 34.4314L28.7391 30.7875C29.7156 30.0867 30.8782 29.5729 32.2733 29.1524C33.6685 28.7787 35.0636 28.5918 36.5052 28.5918C39.2024 28.5918 41.3416 29.2926 42.8762 30.6006ZM38.4118 43.0741C39.1094 42.6537 39.5744 42.0463 39.9 41.2522V39.3835H36.2727C34.1335 39.3835 33.0639 40.0842 33.0639 41.4857C33.0639 42.1398 33.3429 42.7004 33.8545 43.0741C34.366 43.4479 35.1101 43.6814 35.9936 43.6814C36.9237 43.7282 37.7143 43.4946 38.4118 43.0741Z" fill="white"/>
<path d="M64.1749 30.6474C65.57 32.0021 66.221 34.011 66.221 36.6271V46.9984H61.0126V37.4213C61.0126 35.9731 60.6871 34.8986 60.0825 34.1979C59.478 33.4971 58.5479 33.1234 57.3853 33.1234C56.0832 33.1234 55.0136 33.5438 54.2231 34.338C53.4325 35.1789 53.0605 36.3936 53.0605 37.9819V46.9516H47.8521V28.8721H52.828V30.9744C53.5255 30.2269 54.3626 29.6196 55.3857 29.1991C56.4087 28.7787 57.5248 28.5918 58.7804 28.5918C61.0126 28.5918 62.7798 29.2926 64.1749 30.6474Z" fill="white"/>
<path d="M85.2881 30.6474C86.6832 32.0021 87.3343 34.011 87.3343 36.6271V46.9984H82.1259V37.4213C82.1259 35.9731 81.8004 34.8986 81.1958 34.1979C80.5913 33.4971 79.6612 33.1234 78.4986 33.1234C77.1965 33.1234 76.1269 33.5438 75.3363 34.338C74.5458 35.1789 74.1737 36.3936 74.1737 37.9819V46.9516H68.9653V28.8721H73.9412V30.9744C74.6388 30.2269 75.4759 29.6196 76.4989 29.1991C77.522 28.7787 78.6381 28.5918 79.8937 28.5918C82.1259 28.5918 83.9395 29.2926 85.2881 30.6474Z" fill="white"/>
<path d="M90.3572 25.5083C89.7527 24.9477 89.4736 24.247 89.4736 23.4061C89.4736 22.5652 89.7527 21.8644 90.3572 21.3038C90.9618 20.7432 91.7523 20.4629 92.6824 20.4629C93.659 20.4629 94.403 20.7432 95.0076 21.2571C95.6121 21.771 95.8912 22.4717 95.8912 23.2659C95.8912 24.1535 95.6121 24.8543 95.0076 25.4149C94.403 25.9755 93.6125 26.2558 92.6824 26.2558C91.7058 26.3493 90.9153 26.0689 90.3572 25.5083ZM90.0782 28.872H95.2866V46.9515H90.0782V28.872Z" fill="white"/>
<path d="M106.912 29.2929H103.889V28.4988C103.889 26.7702 104.68 25.8826 106.261 25.8826C106.493 25.8826 106.726 25.8826 106.912 25.9293V21.8182C106.54 21.7715 106.168 21.7715 105.749 21.7715C103.517 21.7715 101.843 22.3788 100.587 23.5935C99.3782 24.8081 98.7736 26.4432 98.7736 28.4988V29.2929H95.9834V33.3106H98.7736V46.952H103.982V33.3106H106.865V29.2929H106.912Z" fill="white"/>
<path fill-rule="evenodd" clip-rule="evenodd" d="M108.356 73.8133L134.444 55.7805C134.956 55.4534 135.235 54.8461 135.235 54.2388V0.934522C135.235 0.187047 134.398 -0.280125 133.793 0.187047L107.705 18.2199C107.193 18.5469 106.914 19.1542 106.914 19.7615V73.0658C106.867 73.8133 107.705 74.2805 108.356 73.8133ZM123.097 30.5994C124.585 31.9542 125.329 33.9631 125.329 36.6259V46.9504H120.446V44.708C119.47 46.3898 117.656 47.2307 114.959 47.2307C113.564 47.2307 112.355 46.9971 111.378 46.53C110.355 46.0628 109.564 45.4088 109.053 44.5678C108.495 43.7269 108.262 42.7926 108.262 41.7648C108.262 40.083 108.913 38.7749 110.169 37.7939C111.424 36.8128 113.378 36.3456 116.028 36.3456H120.167C120.167 35.2244 119.842 34.3368 119.144 33.6827C118.447 33.0754 117.423 32.7484 116.028 32.7484C115.052 32.7484 114.122 32.8886 113.192 33.2156C112.261 33.4959 111.471 33.9163 110.82 34.4302L108.96 30.7863C109.936 30.0855 111.099 29.5716 112.494 29.1512C113.889 28.7774 115.284 28.5906 116.726 28.5906C119.47 28.5906 121.609 29.2913 123.097 30.5994ZM118.633 43.0729C119.33 42.6524 119.795 42.0451 120.121 41.2509V39.3822H116.54C114.401 39.3822 113.331 40.083 113.331 41.4845C113.331 42.1386 113.61 42.6992 114.122 43.0729C114.633 43.4466 115.377 43.6802 116.261 43.6802C117.144 43.7269 117.935 43.4934 118.633 43.0729ZM127.422 23.4052C127.422 24.2461 127.701 24.9468 128.305 25.5074C128.91 26.068 129.7 26.3483 130.63 26.2549C131.561 26.2549 132.351 25.9746 132.956 25.414C133.56 24.8534 133.839 24.1526 133.839 23.265C133.839 22.4708 133.56 21.7701 132.956 21.2562C132.351 20.7423 131.607 20.462 130.63 20.462C129.7 20.462 128.91 20.7423 128.305 21.3029C127.701 21.8635 127.422 22.5642 127.422 23.4052ZM133.281 28.8711H128.073V46.9506H133.281V28.8711Z" fill="#2CF9FE"/>
</g>
<defs>
<clipPath id="clip0">
<rect width="137" height="74" fill="white"/>
</clipPath>
</defs>
</svg>
