<svg width="194" height="104" viewBox="0 0 194 104" fill="none" xmlns="http://www.w3.org/2000/svg">
<path d="M155.832 103.731L192.877 78.389C193.603 77.9295 193.999 77.076 193.999 76.2225V1.3133C193.999 0.26286 192.811 -0.393663 191.952 0.26286L154.907 25.6046C154.181 26.0642 153.785 26.9177 153.785 27.7712V102.68C153.719 103.731 154.907 104.387 155.832 103.731Z" fill="#2CF9FE"/>
<path d="M21.5345 41.8052C23.5102 42.9209 25.0248 44.4303 26.0785 46.3991C27.198 48.368 27.7249 50.6649 27.7249 53.2901C27.7249 55.9152 27.198 58.2121 26.0785 60.181C24.959 62.1498 23.4443 63.6593 21.5345 64.7749C19.5589 65.8906 17.4515 66.4156 15.0808 66.4156C11.8539 66.4156 9.28553 65.3656 7.37574 63.3311V75.2098H0V40.5582H7.04646V43.5115C8.8904 41.2802 11.5246 40.2301 15.0808 40.2301C17.4515 40.1645 19.6247 40.7551 21.5345 41.8052ZM18.4393 58.409C19.6247 57.1621 20.2833 55.4558 20.2833 53.2901C20.2833 51.1243 19.6906 49.418 18.4393 48.1711C17.254 46.9242 15.6734 46.2679 13.7637 46.2679C11.8539 46.2679 10.3392 46.9242 9.08796 48.1711C7.90258 49.418 7.24403 51.1243 7.24403 53.2901C7.24403 55.4558 7.83672 57.1621 9.08796 58.409C10.2733 59.656 11.8539 60.3122 13.7637 60.3122C15.6734 60.3122 17.254 59.656 18.4393 58.409Z" fill="#1058FB"/>
<path d="M29.8975 30.9109H37.2732V65.9563H29.8975V30.9109Z" fill="#1058FB"/>
<path d="M60.7181 42.9866C62.8255 44.8898 63.8792 47.7118 63.8792 51.4526V65.9563H56.9644V62.8062C55.5815 65.1688 53.0131 66.3501 49.1935 66.3501C47.2179 66.3501 45.5057 66.0219 44.1227 65.3657C42.6739 64.7094 41.5544 63.7906 40.83 62.6093C40.0397 61.428 39.7104 60.1154 39.7104 58.6716C39.7104 56.309 40.6324 54.4714 42.4105 53.0932C44.1886 51.7151 46.9545 51.0588 50.7082 51.0588H56.5693C56.5693 49.4837 56.1083 48.2368 55.1205 47.318C54.1327 46.4648 52.6839 46.0054 50.7082 46.0054C49.3253 46.0054 48.0082 46.2023 46.6911 46.6617C45.374 47.0555 44.2544 47.6461 43.3325 48.368L40.6983 43.2491C42.0812 42.2646 43.7276 41.5427 45.7032 40.9521C47.6789 40.4271 49.6545 40.1646 51.696 40.1646C55.5156 40.1646 58.5449 41.149 60.7181 42.9866ZM54.3961 60.5092C55.3839 59.9185 56.0425 59.0654 56.5034 57.9497V55.3246H51.3668C48.3374 55.3246 46.8228 56.309 46.8228 58.2779C46.8228 59.1966 47.2179 59.9842 47.9423 60.5092C48.6667 61.0342 49.7204 61.3624 50.9716 61.3624C52.2887 61.428 53.4083 61.0999 54.3961 60.5092Z" fill="#1058FB"/>
<path d="M90.8797 43.0522C92.8553 44.9554 93.7773 47.7774 93.7773 51.4526V66.0219H86.4016V52.5682C86.4016 50.5338 85.9406 49.0243 85.0845 48.0399C84.2283 47.0555 82.9113 46.5305 81.2649 46.5305C79.421 46.5305 77.9063 47.1211 76.7868 48.2368C75.6672 49.4181 75.1404 51.1244 75.1404 53.3558V65.9563H67.7646V40.5583H74.8111V43.5116C75.7989 42.4615 76.9843 41.6084 78.4331 41.0177C79.8819 40.4271 81.4625 40.1646 83.2405 40.1646C86.4016 40.1646 88.904 41.149 90.8797 43.0522Z" fill="#1058FB"/>
<path d="M120.778 43.0522C122.754 44.9554 123.676 47.7774 123.676 51.4526V66.0219H116.3V52.5682C116.3 50.5338 115.839 49.0243 114.983 48.0399C114.127 47.0555 112.81 46.5305 111.163 46.5305C109.319 46.5305 107.805 47.1211 106.685 48.2368C105.566 49.4181 105.039 51.1244 105.039 53.3558V65.9563H97.6631V40.5583H104.71V43.5116C105.697 42.4615 106.883 41.6084 108.332 41.0177C109.78 40.4271 111.361 40.1646 113.139 40.1646C116.3 40.1646 118.868 41.149 120.778 43.0522Z" fill="#1058FB"/>
<path d="M127.956 35.8331C127.1 35.0455 126.705 34.0611 126.705 32.8798C126.705 31.6985 127.1 30.7141 127.956 29.9265C128.812 29.139 129.931 28.7452 131.249 28.7452C132.632 28.7452 133.685 29.139 134.541 29.8609C135.397 30.5828 135.793 31.5672 135.793 32.6829C135.793 33.9298 135.397 34.9143 134.541 35.7018C133.685 36.4893 132.566 36.8831 131.249 36.8831C129.866 37.0144 128.746 36.6206 127.956 35.8331ZM127.561 40.5583H134.936V65.9563H127.561V40.5583Z" fill="#1058FB"/>
<path d="M151.4 41.1489H147.119V40.0332C147.119 37.605 148.239 36.3581 150.478 36.3581C150.807 36.3581 151.136 36.3581 151.4 36.4237V30.6485C150.873 30.5828 150.346 30.5828 149.753 30.5828C146.592 30.5828 144.222 31.436 142.443 33.1423C140.731 34.8486 139.875 37.1456 139.875 40.0332V41.1489H135.924V46.7929H139.875V65.9563H147.251V46.7929H151.334V41.1489H151.4Z" fill="#1058FB"/>
<path d="M176.821 42.9866C178.928 44.8898 179.982 47.7118 179.982 51.4526V65.9563H173.067V62.8062C171.684 65.1688 169.116 66.3501 165.296 66.3501C163.32 66.3501 161.608 66.0219 160.225 65.3657C158.776 64.7094 157.657 63.7906 156.933 62.6093C156.142 61.428 155.813 60.1154 155.813 58.6716C155.813 56.309 156.735 54.4714 158.513 53.0932C160.291 51.7151 163.057 51.0588 166.811 51.0588H172.672C172.672 49.4837 172.211 48.2368 171.223 47.318C170.235 46.4648 168.786 46.0054 166.811 46.0054C165.428 46.0054 164.111 46.2023 162.794 46.6617C161.477 47.0555 160.357 47.6461 159.435 48.368L156.801 43.2491C158.184 42.2646 159.83 41.5427 161.806 40.9521C163.781 40.4271 165.757 40.1646 167.799 40.1646C171.684 40.1646 174.713 41.149 176.821 42.9866ZM170.499 60.5092C171.486 59.9185 172.145 59.0654 172.606 57.9497V55.3246H167.535C164.506 55.3246 162.991 56.309 162.991 58.2779C162.991 59.1966 163.386 59.9842 164.111 60.5092C164.835 61.0342 165.889 61.3624 167.14 61.3624C168.391 61.428 169.511 61.0999 170.499 60.5092Z" fill="#1058FB"/>
<path d="M184.196 35.8331C183.34 35.0455 182.945 34.0611 182.945 32.8798C182.945 31.6985 183.34 30.7141 184.196 29.9265C185.052 29.139 186.172 28.7452 187.489 28.7452C188.872 28.7452 189.925 29.139 190.782 29.8609C191.638 30.5828 192.033 31.5672 192.033 32.6829C192.033 33.9298 191.638 34.9143 190.782 35.7018C189.925 36.4893 188.806 36.8831 187.489 36.8831C186.172 37.0144 185.052 36.6206 184.196 35.8331ZM183.867 40.5583H191.243V65.9563H183.867V40.5583Z" fill="#1058FB"/>
</svg>
