<svg width="275" height="262" viewBox="0 0 275 262" fill="none" xmlns="http://www.w3.org/2000/svg">
<path opacity="0.5" d="M173.504 227.518C191.511 236.099 220.706 236.099 238.713 227.518C256.72 218.937 256.717 205.026 238.713 196.439C220.708 187.851 191.511 187.856 173.504 196.439C155.497 205.022 155.5 218.935 173.504 227.518Z" fill="#CACCCF"/>
<path d="M18.9824 192.23C18.5953 191.971 18.2941 191.602 18.1173 191.171C17.9406 190.74 17.8961 190.266 17.9897 189.809L41.7737 84.5451C42.0599 83.5272 42.7058 82.6478 43.5914 82.0701L185.115 0.375471C185.548 0.146633 186.028 0.0231166 186.518 0.0149586C187.007 0.00680054 187.492 0.114231 187.932 0.32852C188.313 0.58967 188.609 0.957431 188.782 1.38575C188.954 1.81407 188.997 2.28391 188.905 2.73643L165.114 108C164.827 109.02 164.178 109.9 163.289 110.475L21.7994 192.17C21.3677 192.401 20.8876 192.527 20.3981 192.537C19.9086 192.548 19.4236 192.443 18.9824 192.23Z" fill="#F0F0F0"/>
<path d="M44.4971 86.1001L20.7131 191.404C20.5119 192.303 20.9948 192.665 21.7997 192.202L163.323 110.508C164.212 109.932 164.861 109.052 165.148 108.033L188.905 2.73538C189.106 1.8299 188.623 1.47442 187.818 1.93722L46.2946 83.6318C45.4184 84.2119 44.7802 85.0881 44.4971 86.1001Z" fill="#E6E6E6"/>
<path d="M190.628 1.88366C190.187 1.6704 189.703 1.56412 189.213 1.57344C188.724 1.58276 188.243 1.70743 187.811 1.93732L46.2875 83.6319C45.877 83.8977 45.5469 84.2706 45.3329 84.7104C45.1189 85.1501 45.0292 85.64 45.0735 86.1271L63.6996 216.51C63.7905 217.004 63.9791 217.475 64.2544 217.895C64.5296 218.316 64.886 218.677 65.3027 218.958C65.7417 219.173 66.2256 219.28 66.7143 219.271C67.203 219.261 67.6825 219.136 68.113 218.904L209.61 137.23C210.021 136.964 210.352 136.59 210.566 136.148C210.78 135.707 210.869 135.216 210.824 134.728L192.258 4.33182C192.164 3.83535 191.972 3.36279 191.692 2.94222C191.412 2.52166 191.05 2.16167 190.628 1.88366Z" fill="#F0F0F0"/>
<path d="M47.8237 87.7034L66.423 218.086C66.4267 218.281 66.4841 218.47 66.589 218.634C66.6938 218.798 66.842 218.929 67.017 219.014C67.192 219.099 67.3871 219.133 67.5806 219.114C67.7741 219.095 67.9584 219.022 68.1132 218.904L209.61 137.23C210.022 136.964 210.352 136.59 210.566 136.149C210.78 135.708 210.869 135.216 210.824 134.728L192.258 4.33196C192.256 4.13696 192.199 3.94648 192.095 3.78174C191.99 3.61701 191.842 3.48448 191.667 3.39895C191.492 3.31341 191.296 3.27821 191.102 3.29728C190.908 3.31636 190.723 3.38895 190.568 3.50696L49.0444 85.2016C48.6316 85.467 48.2995 85.8407 48.0842 86.2818C47.869 86.7229 47.7789 87.2146 47.8237 87.7034Z" fill="#FAFAFA"/>
<path d="M20.8403 190.815L57.0596 169.895L58.1127 177.474L41.5054 187.065C41.5054 187.065 37.0786 188.635 35.3213 189.077C33.564 189.52 20.8403 190.815 20.8403 190.815Z" fill="#E0E0E0"/>
<path d="M58.1326 177.48L63.5655 215.578L41.5254 187.072L58.1326 177.48Z" fill="#E6E6E6"/>
<path d="M62.9152 216.845L43.1623 191.19C42.8344 190.807 42.4198 190.509 41.9532 190.318C41.4866 190.128 40.9813 190.052 40.4794 190.097L22.0075 192.78C20.9673 192.891 19.917 192.7 18.9825 192.23C18.2313 191.8 18.3588 191.304 19.2642 191.13L40.4928 187.045C40.9905 186.97 41.4991 187.025 41.9693 187.205C42.4394 187.385 42.855 187.683 43.1757 188.071L65.6652 218.388C66.2152 219.132 66.0542 219.381 65.303 218.945C64.3975 218.38 63.5908 217.671 62.9152 216.845Z" fill="#E0E0E0"/>
<path d="M188.938 2.21902C188.935 1.8411 188.84 1.4696 188.66 1.13737C188.479 0.805133 188.22 0.522399 187.905 0.314158C187.464 0.102972 186.979 -0.00215517 186.49 0.00716117C186.001 0.0164775 185.521 0.13998 185.088 0.367817L43.5642 82.0624C43.1327 82.3329 42.757 82.6835 42.4576 83.0954C42.1251 83.5237 41.8812 84.0139 41.7399 84.5374L38.3862 99.4075L41.1094 100.97L185.551 17.5988L188.904 2.73548C188.936 2.56527 188.95 2.39212 188.944 2.21902H188.938Z" fill="#1058FB"/>
<path opacity="0.2" d="M188.904 2.73538C189.105 1.8299 188.622 1.47442 187.817 1.93722L46.2939 83.6318C45.41 84.2083 44.7644 85.085 44.4762 86.1001L41.1226 100.97L185.55 17.5987L188.904 2.73538Z" fill="black"/>
<path opacity="0.1" d="M45.2082 84.665C44.8752 85.0895 44.6332 85.5781 44.4972 86.1003L41.1436 100.97L38.4204 99.4008L41.774 84.5308C41.9154 84.0073 42.1593 83.5171 42.4917 83.0887L45.2082 84.665Z" fill="black"/>
<path opacity="0.4" d="M188.938 2.21244C188.871 1.70939 188.435 1.54171 187.811 1.93744L46.2874 83.6254C45.8528 83.8946 45.4765 84.2481 45.1807 84.665L42.4575 83.0888C42.757 82.6769 43.1327 82.3263 43.5642 82.0559L185.088 0.361225C185.521 0.133389 186.001 0.00988569 186.49 0.000569357C186.979 -0.00874698 187.464 0.0963825 187.905 0.307568C188.22 0.51581 188.479 0.798544 188.66 1.13078C188.84 1.46301 188.935 1.83451 188.938 2.21244Z" fill="white"/>
<path d="M192.399 5.57937L192.258 4.33182C192.248 4.27079 192.234 4.21034 192.218 4.15072C192.22 4.13295 192.22 4.11483 192.218 4.09706C191.989 3.19449 191.438 2.40696 190.668 1.88366C190.227 1.6704 189.743 1.56412 189.253 1.57344C188.764 1.58276 188.283 1.70743 187.851 1.93732L46.3276 83.632C45.8992 83.8973 45.5603 84.2852 45.355 84.7454C45.1455 85.1738 45.0618 85.6529 45.1135 86.1271L47.7965 104.807L50.5196 106.383L194.894 23.0183L192.399 5.57937Z" fill="#1058FB"/>
<path opacity="0.1" d="M50.4932 106.377L47.7701 104.8L45.0872 86.1206C45.0354 85.6465 45.1191 85.1674 45.3286 84.7389L48.0585 86.3084C47.8442 86.7354 47.758 87.2152 47.8103 87.6901L50.4932 106.377Z" fill="black"/>
<path opacity="0.4" d="M192.177 4.09706C192.139 3.92809 192.058 3.77149 191.944 3.64168C191.829 3.51187 191.683 3.41303 191.52 3.35424C191.357 3.29545 191.182 3.27862 191.011 3.30528C190.84 3.33194 190.678 3.40125 190.54 3.50683L49.0169 85.2014C48.5869 85.4648 48.2476 85.8533 48.0444 86.3149L45.3682 84.7454C45.5751 84.2845 45.9134 83.8949 46.3407 83.6252L187.864 1.93732C188.296 1.70743 188.777 1.58276 189.266 1.57344C189.756 1.56412 190.241 1.6704 190.681 1.88366C191.433 2.41458 191.965 3.20166 192.177 4.09706Z" fill="white"/>
<path d="M88.0608 196.482L86.3706 184.603C86.3681 184.449 86.3233 184.298 86.2409 184.167C86.1586 184.036 86.0419 183.93 85.9035 183.861C85.7651 183.791 85.6104 183.762 85.4562 183.774C85.302 183.787 85.1543 183.842 85.0291 183.933L72.6944 191.056C72.3621 191.268 72.0952 191.569 71.9235 191.924C71.7518 192.279 71.682 192.675 71.7219 193.068L73.4054 204.973C73.4054 205.129 73.4487 205.282 73.5306 205.414C73.6125 205.546 73.7296 205.654 73.8688 205.723C74.0081 205.793 74.164 205.822 74.3191 205.808C74.4742 205.794 74.6223 205.737 74.7468 205.644L87.0815 198.521C87.4201 198.308 87.6916 198.003 87.8648 197.642C88.038 197.282 88.106 196.879 88.0608 196.482Z" fill="#1058FB"/>
<path d="M107.136 185.482L105.439 173.61C105.439 173.454 105.396 173.302 105.314 173.169C105.232 173.037 105.115 172.93 104.976 172.86C104.836 172.79 104.68 172.761 104.525 172.775C104.37 172.789 104.222 172.846 104.098 172.939L91.7629 180.056C91.4311 180.269 91.1646 180.57 90.993 180.925C90.8214 181.28 90.7512 181.675 90.7903 182.068L92.4873 193.946C92.4873 194.102 92.5306 194.255 92.6125 194.387C92.6943 194.52 92.8115 194.627 92.9507 194.696C93.09 194.766 93.2459 194.795 93.401 194.782C93.556 194.768 93.7042 194.711 93.8287 194.617L106.163 187.494C106.496 187.282 106.764 186.981 106.935 186.626C107.107 186.271 107.177 185.875 107.136 185.482Z" fill="#1058FB"/>
<path d="M126.212 174.482L124.515 162.61C124.515 162.455 124.471 162.302 124.389 162.169C124.307 162.037 124.19 161.93 124.051 161.86C123.912 161.791 123.756 161.761 123.601 161.775C123.446 161.789 123.298 161.846 123.173 161.94L110.832 169.069C110.5 169.283 110.233 169.583 110.062 169.938C109.89 170.293 109.82 170.689 109.859 171.082L111.556 182.96C111.556 183.116 111.599 183.268 111.681 183.401C111.763 183.533 111.88 183.64 112.02 183.71C112.159 183.78 112.315 183.809 112.47 183.795C112.625 183.781 112.773 183.724 112.898 183.631L125.232 176.508C125.569 176.295 125.839 175.993 126.012 175.635C126.185 175.277 126.254 174.878 126.212 174.482Z" fill="#1058FB"/>
<path d="M145.307 163.489L143.61 151.61C143.61 151.455 143.567 151.302 143.485 151.169C143.403 151.037 143.286 150.93 143.147 150.86C143.007 150.791 142.852 150.761 142.696 150.775C142.541 150.789 142.393 150.846 142.269 150.94L129.88 158.076C129.547 158.288 129.28 158.589 129.108 158.944C128.937 159.299 128.867 159.696 128.908 160.088L130.605 171.96C130.605 172.116 130.648 172.268 130.73 172.401C130.812 172.533 130.929 172.64 131.068 172.71C131.207 172.78 131.363 172.809 131.518 172.795C131.674 172.781 131.822 172.724 131.946 172.631L144.281 165.514C144.625 165.307 144.903 165.007 145.085 164.649C145.266 164.291 145.343 163.889 145.307 163.489Z" fill="#1058FB"/>
<path d="M164.363 152.489L162.666 140.584C162.666 140.428 162.622 140.275 162.541 140.143C162.459 140.01 162.342 139.903 162.202 139.834C162.063 139.764 161.907 139.735 161.752 139.749C161.597 139.762 161.449 139.819 161.324 139.913L148.99 147.036C148.657 147.248 148.39 147.549 148.218 147.904C148.046 148.259 147.977 148.655 148.017 149.048L149.714 160.92C149.714 161.076 149.757 161.228 149.839 161.361C149.921 161.493 150.038 161.6 150.178 161.67C150.317 161.739 150.473 161.769 150.628 161.755C150.783 161.741 150.931 161.684 151.056 161.591L163.417 154.488C163.742 154.272 164.001 153.972 164.168 153.62C164.335 153.268 164.402 152.877 164.363 152.489Z" fill="#1058FB"/>
<path d="M183.437 141.489L181.741 129.611C181.741 129.455 181.697 129.302 181.615 129.17C181.533 129.037 181.416 128.93 181.277 128.861C181.138 128.791 180.982 128.761 180.827 128.775C180.672 128.789 180.524 128.846 180.399 128.94L168.064 136.063C167.732 136.275 167.464 136.576 167.292 136.931C167.121 137.286 167.051 137.682 167.092 138.075L168.782 149.974C168.782 150.129 168.825 150.282 168.907 150.415C168.989 150.547 169.106 150.654 169.246 150.724C169.385 150.793 169.541 150.823 169.696 150.809C169.851 150.795 169.999 150.738 170.124 150.645L182.458 143.521C182.795 143.308 183.065 143.005 183.239 142.645C183.412 142.286 183.481 141.886 183.437 141.489Z" fill="#1058FB"/>
<path d="M202.513 130.523L200.816 118.644C200.816 118.488 200.773 118.336 200.691 118.203C200.609 118.071 200.492 117.964 200.353 117.894C200.214 117.825 200.058 117.795 199.903 117.809C199.748 117.823 199.599 117.88 199.475 117.973L187.14 125.096C186.808 125.309 186.541 125.61 186.369 125.965C186.198 126.32 186.128 126.716 186.168 127.109L187.858 138.987C187.86 139.142 187.905 139.293 187.987 139.424C188.07 139.555 188.187 139.661 188.325 139.73C188.463 139.799 188.618 139.829 188.772 139.816C188.926 139.804 189.074 139.749 189.199 139.658L201.534 132.535C201.868 132.323 202.136 132.023 202.309 131.667C202.482 131.312 202.552 130.916 202.513 130.523Z" fill="#1058FB"/>
<path d="M84.7472 173.241L83.0502 161.376C83.0478 161.221 83.003 161.07 82.9206 160.939C82.8383 160.808 82.7215 160.702 82.5832 160.633C82.4448 160.564 82.2901 160.534 82.1359 160.547C81.9817 160.56 81.834 160.614 81.7088 160.705L69.3741 167.828C69.0417 168.041 68.7749 168.342 68.6032 168.697C68.4315 169.052 68.3617 169.448 68.4015 169.841L70.0918 181.719C70.0942 181.874 70.139 182.025 70.2214 182.156C70.3037 182.287 70.4205 182.393 70.5588 182.462C70.6972 182.531 70.8519 182.561 71.0061 182.548C71.1603 182.536 71.308 182.481 71.4332 182.39L83.7679 175.267C84.1015 175.052 84.3694 174.749 84.5421 174.392C84.7149 174.034 84.7858 173.636 84.7472 173.241Z" fill="#1058FB"/>
<path d="M103.822 162.241L102.125 150.363C102.123 150.208 102.078 150.057 101.996 149.926C101.913 149.795 101.797 149.689 101.658 149.62C101.52 149.551 101.365 149.521 101.211 149.534C101.057 149.546 100.909 149.601 100.784 149.692L88.4493 156.815C88.1169 157.028 87.8501 157.328 87.6784 157.684C87.5067 158.039 87.4369 158.435 87.4767 158.827L89.167 170.706C89.1694 170.861 89.2142 171.012 89.2966 171.143C89.3789 171.274 89.4957 171.379 89.634 171.449C89.7724 171.518 89.9271 171.548 90.0813 171.535C90.2355 171.522 90.3832 171.468 90.5084 171.377L102.843 164.254C103.175 164.04 103.441 163.739 103.614 163.384C103.786 163.029 103.858 162.634 103.822 162.241Z" fill="#1058FB"/>
<path d="M122.898 151.241L121.201 139.363C121.199 139.208 121.154 139.057 121.071 138.926C120.989 138.795 120.872 138.689 120.734 138.62C120.596 138.551 120.441 138.521 120.287 138.534C120.133 138.546 119.985 138.601 119.86 138.692L107.525 145.815C107.193 146.028 106.926 146.328 106.754 146.684C106.582 147.039 106.513 147.435 106.552 147.827L108.243 159.706C108.245 159.861 108.29 160.012 108.372 160.143C108.455 160.274 108.571 160.379 108.71 160.449C108.848 160.518 109.003 160.548 109.157 160.535C109.311 160.522 109.459 160.468 109.584 160.377L121.919 153.254C122.25 153.04 122.517 152.739 122.689 152.384C122.862 152.029 122.934 151.634 122.898 151.241Z" fill="#1058FB"/>
<path d="M141.954 140.241L140.257 128.363C140.254 128.208 140.209 128.057 140.127 127.926C140.045 127.795 139.928 127.689 139.79 127.62C139.651 127.551 139.497 127.521 139.342 127.534C139.188 127.546 139.04 127.601 138.915 127.692L126.594 134.829C126.262 135.042 125.996 135.343 125.824 135.698C125.652 136.053 125.582 136.448 125.621 136.841L127.312 148.719C127.314 148.874 127.359 149.025 127.441 149.156C127.524 149.287 127.64 149.393 127.779 149.462C127.917 149.531 128.072 149.561 128.226 149.548C128.38 149.536 128.528 149.481 128.653 149.39L140.988 142.267C141.319 142.051 141.585 141.747 141.755 141.39C141.926 141.033 141.994 140.635 141.954 140.241Z" fill="#1058FB"/>
<path d="M161.049 129.241L159.352 117.37C159.352 117.214 159.309 117.061 159.227 116.929C159.145 116.796 159.028 116.689 158.889 116.62C158.75 116.55 158.594 116.521 158.439 116.535C158.284 116.548 158.136 116.605 158.011 116.699L145.67 123.815C145.338 124.028 145.071 124.329 144.9 124.684C144.728 125.039 144.658 125.435 144.697 125.827L146.387 137.706C146.39 137.861 146.435 138.012 146.517 138.143C146.599 138.274 146.716 138.38 146.854 138.449C146.993 138.518 147.147 138.548 147.302 138.535C147.456 138.522 147.604 138.468 147.729 138.377L160.063 131.24C160.394 131.029 160.661 130.731 160.835 130.378C161.009 130.026 161.083 129.633 161.049 129.241Z" fill="#1058FB"/>
<path d="M180.125 118.242L178.428 106.376C178.428 106.221 178.384 106.068 178.302 105.936C178.221 105.803 178.104 105.696 177.964 105.626C177.825 105.557 177.669 105.527 177.514 105.541C177.359 105.555 177.211 105.612 177.086 105.706L164.758 112.835C164.425 113.048 164.158 113.348 163.986 113.703C163.815 114.059 163.745 114.455 163.786 114.848L165.476 126.72C165.478 126.874 165.523 127.025 165.606 127.156C165.688 127.287 165.805 127.393 165.943 127.462C166.081 127.531 166.236 127.561 166.39 127.549C166.544 127.536 166.692 127.481 166.817 127.39L179.152 120.267C179.485 120.052 179.752 119.749 179.924 119.391C180.095 119.034 180.165 118.636 180.125 118.242Z" fill="#1058FB"/>
<path d="M199.2 107.248L197.503 95.3695C197.503 95.2138 197.459 95.0612 197.378 94.9288C197.296 94.7963 197.179 94.6893 197.039 94.6196C196.9 94.55 196.744 94.5205 196.589 94.5345C196.434 94.5485 196.286 94.6054 196.161 94.6988L183.82 101.822C183.489 102.035 183.223 102.336 183.053 102.692C182.882 103.047 182.814 103.442 182.854 103.834L184.544 115.706C184.547 115.861 184.592 116.012 184.674 116.143C184.756 116.274 184.873 116.38 185.011 116.449C185.15 116.518 185.304 116.548 185.459 116.535C185.613 116.522 185.761 116.468 185.886 116.377L198.22 109.26C198.551 109.046 198.817 108.745 198.99 108.39C199.163 108.036 199.235 107.641 199.2 107.248Z" fill="#1058FB"/>
<path d="M81.4266 149.974L79.7364 138.095C79.7339 137.941 79.6891 137.79 79.6068 137.659C79.5244 137.528 79.4077 137.422 79.2693 137.353C79.1309 137.283 78.9762 137.254 78.822 137.266C78.6679 137.279 78.5201 137.334 78.3949 137.425L66.0468 144.608C65.7161 144.822 65.4505 145.123 65.279 145.478C65.1075 145.833 65.0367 146.228 65.0743 146.62L66.7712 158.492C66.7712 158.648 66.8145 158.801 66.8964 158.933C66.9783 159.065 67.0954 159.172 67.2347 159.242C67.3739 159.312 67.5298 159.341 67.6849 159.327C67.84 159.313 67.9881 159.256 68.1127 159.163L80.454 151.986C80.7858 151.773 81.0523 151.472 81.2239 151.117C81.3955 150.762 81.4657 150.366 81.4266 149.974Z" fill="#1058FB"/>
<path d="M100.503 139.001L98.8123 127.122C98.8099 126.967 98.7651 126.816 98.6827 126.685C98.6003 126.554 98.4836 126.448 98.3452 126.379C98.2069 126.31 98.0522 126.28 97.898 126.293C97.7438 126.306 97.596 126.36 97.4708 126.451L85.1362 133.574C84.8054 133.789 84.5399 134.09 84.3684 134.444C84.1969 134.799 84.126 135.194 84.1636 135.587L85.8606 147.465C85.863 147.62 85.9078 147.771 85.9902 147.902C86.0725 148.033 86.1893 148.139 86.3276 148.208C86.466 148.277 86.6207 148.307 86.7749 148.294C86.9291 148.281 87.0768 148.227 87.202 148.136L99.5367 141.013C99.8678 140.799 100.133 140.498 100.304 140.143C100.474 139.788 100.543 139.392 100.503 139.001Z" fill="#1058FB"/>
<path d="M119.578 128.001L117.888 116.122C117.885 115.967 117.84 115.816 117.758 115.685C117.676 115.554 117.559 115.448 117.421 115.379C117.282 115.31 117.127 115.28 116.973 115.293C116.819 115.306 116.671 115.36 116.546 115.451L104.211 122.574C103.881 122.789 103.616 123.09 103.445 123.445C103.273 123.8 103.202 124.194 103.239 124.587L104.936 136.465C104.938 136.62 104.983 136.771 105.065 136.902C105.148 137.033 105.265 137.139 105.403 137.208C105.541 137.277 105.696 137.307 105.85 137.294C106.004 137.281 106.152 137.227 106.277 137.136L118.612 130.013C118.943 129.799 119.209 129.498 119.379 129.143C119.55 128.788 119.618 128.392 119.578 128.001Z" fill="#1058FB"/>
<path d="M138.653 117.001L136.963 105.122C136.96 104.968 136.916 104.817 136.833 104.686C136.751 104.555 136.634 104.449 136.496 104.38C136.357 104.31 136.203 104.281 136.048 104.293C135.894 104.306 135.747 104.361 135.621 104.452L123.287 111.575C122.956 111.79 122.691 112.091 122.52 112.445C122.348 112.8 122.277 113.195 122.314 113.587L124.011 125.465C124.013 125.62 124.058 125.771 124.141 125.902C124.223 126.033 124.34 126.139 124.478 126.208C124.617 126.277 124.771 126.307 124.925 126.295C125.08 126.282 125.227 126.227 125.353 126.136L137.687 119.013C138.018 118.8 138.284 118.499 138.454 118.143C138.625 117.788 138.694 117.393 138.653 117.001Z" fill="#1058FB"/>
<path d="M157.729 106.001L156.039 94.1223C156.037 93.9676 155.992 93.8166 155.909 93.6856C155.827 93.5547 155.71 93.4488 155.572 93.3796C155.434 93.3104 155.279 93.2806 155.125 93.2933C154.97 93.3059 154.823 93.3607 154.698 93.4516L142.363 100.575C142.033 100.79 141.768 101.091 141.596 101.445C141.425 101.8 141.353 102.195 141.39 102.587L143.087 114.465C143.09 114.62 143.135 114.771 143.217 114.902C143.299 115.033 143.416 115.139 143.554 115.208C143.693 115.277 143.847 115.307 144.002 115.295C144.156 115.282 144.304 115.227 144.429 115.136L156.763 108.013C157.094 107.8 157.36 107.499 157.531 107.143C157.701 106.788 157.77 106.393 157.729 106.001Z" fill="#FB4E4E"/>
<path d="M176.831 94.9742L175.141 83.0956C175.138 82.9409 175.094 82.7898 175.011 82.6589C174.929 82.5279 174.812 82.4221 174.674 82.3529C174.535 82.2837 174.381 82.2538 174.227 82.2665C174.072 82.2792 173.925 82.334 173.799 82.4248L161.404 89.6083C161.074 89.8232 160.809 90.1242 160.638 90.4789C160.466 90.8335 160.395 91.2283 160.432 91.6205L162.129 103.499C162.131 103.654 162.176 103.805 162.258 103.936C162.341 104.067 162.457 104.173 162.596 104.242C162.734 104.311 162.889 104.341 163.043 104.328C163.197 104.315 163.345 104.261 163.47 104.17L175.832 96.9863C176.17 96.7777 176.442 96.4787 176.619 96.123C176.796 95.7674 176.869 95.3694 176.831 94.9742Z" fill="#1058FB"/>
<path d="M195.88 84.001L194.19 72.1292C194.187 71.9745 194.142 71.8234 194.06 71.6924C193.978 71.5615 193.861 71.4557 193.723 71.3865C193.584 71.3173 193.43 71.2874 193.275 71.3001C193.121 71.3128 192.973 71.3675 192.848 71.4584L180.514 78.5748C180.183 78.7891 179.917 79.0901 179.746 79.4449C179.574 79.7997 179.503 80.1947 179.541 80.587L181.238 92.4656C181.24 92.6203 181.285 92.7714 181.368 92.9023C181.45 93.0333 181.567 93.1391 181.705 93.2083C181.843 93.2775 181.998 93.3074 182.152 93.2947C182.307 93.282 182.454 93.2272 182.579 93.1363L194.941 85.9998C195.266 85.7846 195.525 85.4844 195.69 85.1319C195.856 84.7794 195.922 84.3882 195.88 84.001Z" fill="#1058FB"/>
<path d="M78.1135 126.753L76.4165 114.881C76.4165 114.725 76.3732 114.573 76.2913 114.44C76.2095 114.308 76.0924 114.201 75.9531 114.131C75.8138 114.062 75.6579 114.032 75.5029 114.046C75.3478 114.06 75.1997 114.117 75.0751 114.21L62.7404 121.327C62.4086 121.54 62.1422 121.841 61.9705 122.196C61.7989 122.551 61.7288 122.947 61.7679 123.339L63.4782 135.218C63.4782 135.373 63.5216 135.526 63.6034 135.658C63.6853 135.791 63.8024 135.898 63.9417 135.967C64.0809 136.037 64.2368 136.067 64.3919 136.053C64.547 136.039 64.6951 135.982 64.8197 135.888L77.1544 128.765C77.4848 128.551 77.7494 128.25 77.9187 127.895C78.0881 127.54 78.1555 127.144 78.1135 126.753Z" fill="#1058FB"/>
<path d="M97.1894 115.767L95.4925 103.895C95.4925 103.739 95.4492 103.587 95.3673 103.454C95.2854 103.322 95.1683 103.215 95.0291 103.145C94.8898 103.075 94.7339 103.046 94.5788 103.06C94.4237 103.074 94.2756 103.131 94.1511 103.224L81.8164 110.347C81.4835 110.559 81.2162 110.86 81.0444 111.215C80.8726 111.571 80.8032 111.967 80.8438 112.36L82.5408 124.231C82.5408 124.387 82.5841 124.54 82.666 124.672C82.7478 124.805 82.865 124.912 83.0042 124.981C83.1435 125.051 83.2994 125.08 83.4545 125.066C83.6095 125.052 83.7577 124.996 83.8822 124.902L96.2169 117.779C96.5498 117.567 96.8171 117.266 96.9889 116.911C97.1606 116.556 97.2301 116.159 97.1894 115.767Z" fill="#1058FB"/>
<path d="M116.265 104.76L114.568 92.8811C114.568 92.7254 114.525 92.5728 114.443 92.4404C114.361 92.3079 114.244 92.2009 114.105 92.1312C113.965 92.0616 113.81 92.0321 113.654 92.0461C113.499 92.0601 113.351 92.117 113.227 92.2104L100.892 99.3335C100.559 99.5456 100.292 99.8462 100.12 100.202C99.9483 100.557 99.8789 100.953 99.9195 101.346L101.616 113.218C101.616 113.373 101.66 113.526 101.742 113.658C101.824 113.791 101.941 113.898 102.08 113.967C102.219 114.037 102.375 114.067 102.53 114.053C102.685 114.039 102.833 113.982 102.958 113.888L115.293 106.772C115.624 106.559 115.891 106.258 116.062 105.903C116.234 105.548 116.304 105.152 116.265 104.76Z" fill="#1058FB"/>
<path d="M135.34 93.76L133.643 81.8814C133.643 81.7257 133.6 81.573 133.518 81.4406C133.436 81.3082 133.319 81.2011 133.179 81.1315C133.04 81.0619 132.884 81.0324 132.729 81.0464C132.574 81.0603 132.426 81.1172 132.301 81.2107L119.967 88.3338C119.634 88.5459 119.367 88.8464 119.195 89.2018C119.023 89.5572 118.954 89.9534 118.994 90.346L120.684 102.225C120.687 102.379 120.732 102.53 120.814 102.661C120.896 102.792 121.013 102.898 121.152 102.967C121.29 103.036 121.445 103.066 121.599 103.054C121.753 103.041 121.901 102.986 122.026 102.895L134.361 95.7722C134.694 95.5598 134.961 95.2594 135.134 94.9043C135.307 94.5491 135.378 94.1531 135.34 93.76Z" fill="#1058FB"/>
<path d="M154.416 82.76L152.719 70.8814C152.719 70.7257 152.675 70.573 152.593 70.4406C152.512 70.3082 152.394 70.2011 152.255 70.1315C152.116 70.0618 151.96 70.0324 151.805 70.0464C151.65 70.0603 151.502 70.1172 151.377 70.2107L139.042 77.3338C138.71 77.5458 138.442 77.8464 138.27 78.2018C138.099 78.5572 138.029 78.9533 138.07 79.346L139.76 91.2245C139.763 91.3792 139.807 91.5303 139.89 91.6612C139.972 91.7922 140.089 91.898 140.227 91.9672C140.366 92.0364 140.52 92.0663 140.674 92.0536C140.829 92.0409 140.976 91.9862 141.102 91.8953L153.436 84.7721C153.77 84.5604 154.038 84.2601 154.211 83.9048C154.384 83.5495 154.455 83.1532 154.416 82.76Z" fill="#1058FB"/>
<path d="M173.478 71.7601L171.781 59.8815C171.781 59.7258 171.737 59.5732 171.655 59.4407C171.574 59.3083 171.457 59.2012 171.317 59.1316C171.178 59.062 171.022 59.0325 170.867 59.0465C170.712 59.0605 170.564 59.1174 170.439 59.2108L158.105 66.3339C157.772 66.5465 157.505 66.8472 157.334 67.2024C157.162 67.5577 157.092 67.9536 157.132 68.3461L158.829 80.218C158.831 80.3727 158.876 80.5237 158.959 80.6547C159.041 80.7856 159.158 80.8915 159.296 80.9607C159.434 81.0298 159.589 81.0597 159.743 81.047C159.897 81.0343 160.045 80.9796 160.17 80.8887L172.505 73.7656C172.836 73.5535 173.103 73.2539 173.274 72.9C173.446 72.546 173.516 72.1515 173.478 71.7601Z" fill="#1058FB"/>
<path d="M192.567 60.7669L190.87 48.8883C190.87 48.7326 190.826 48.58 190.744 48.4476C190.662 48.3151 190.545 48.2081 190.406 48.1384C190.267 48.0688 190.111 48.0393 189.956 48.0533C189.801 48.0673 189.653 48.1242 189.528 48.2176L177.193 55.3407C176.861 55.5534 176.594 55.854 176.423 56.2092C176.251 56.5645 176.181 56.9604 176.221 57.3529L177.911 69.2315C177.914 69.3862 177.958 69.5372 178.041 69.6682C178.123 69.7992 178.24 69.905 178.378 69.9742C178.517 70.0434 178.671 70.0733 178.825 70.0606C178.98 70.0479 179.127 69.9931 179.253 69.9022L191.587 62.7791C191.921 62.5673 192.189 62.267 192.362 61.9118C192.535 61.5565 192.606 61.1601 192.567 60.7669Z" fill="#1058FB"/>
<path d="M75.183 105.759L74.7537 102.728C74.7537 102.572 74.7103 102.419 74.6285 102.287C74.5466 102.154 74.4295 102.047 74.2903 101.978C74.151 101.908 73.9951 101.879 73.84 101.893C73.6849 101.907 73.5368 101.963 73.4123 102.057L61.0709 109.193C60.7385 109.406 60.4716 109.707 60.2999 110.062C60.1282 110.417 60.0585 110.813 60.0983 111.206L60.5209 114.237C60.5233 114.392 60.5681 114.543 60.6505 114.674C60.7328 114.805 60.8496 114.911 60.9879 114.98C61.1263 115.049 61.281 115.079 61.4352 115.066C61.5894 115.054 61.7371 114.999 61.8623 114.908L74.2104 107.758C74.539 107.545 74.8032 107.246 74.9746 106.894C75.146 106.542 75.218 106.149 75.183 105.759Z" fill="#E6E6E6"/>
<path d="M94.2582 94.7593L93.8289 91.7276C93.8289 91.5719 93.7856 91.4192 93.7037 91.2868C93.6218 91.1543 93.5047 91.0473 93.3655 90.9777C93.2262 90.908 93.0703 90.8786 92.9152 90.8925C92.7601 90.9065 92.612 90.9634 92.4875 91.0568L80.1461 98.1934C79.8137 98.406 79.5468 98.7067 79.3752 99.0619C79.2035 99.4171 79.1336 99.813 79.1735 100.206L79.5961 103.237C79.5985 103.392 79.6433 103.543 79.7257 103.674C79.808 103.805 79.9248 103.911 80.0631 103.98C80.2015 104.049 80.3562 104.079 80.5104 104.066C80.6646 104.054 80.8123 103.999 80.9375 103.908L93.2789 96.7849C93.613 96.5703 93.8814 96.2676 94.0542 95.9101C94.227 95.5527 94.2976 95.1544 94.2582 94.7593Z" fill="#E6E6E6"/>
<path d="M113.333 83.7595L112.904 80.7278C112.902 80.5731 112.857 80.422 112.774 80.2911C112.692 80.1601 112.575 80.0543 112.437 79.9851C112.299 79.9159 112.144 79.886 111.99 79.8987C111.836 79.9114 111.688 79.9662 111.563 80.057L99.2213 87.1936C98.8889 87.4062 98.622 87.7069 98.4503 88.0621C98.2786 88.4173 98.2088 88.8132 98.2487 89.2058L98.6713 92.2375C98.6713 92.3932 98.7146 92.5458 98.7965 92.6782C98.8783 92.8107 98.9955 92.9177 99.1347 92.9874C99.274 93.057 99.4299 93.0865 99.585 93.0725C99.74 93.0585 99.8882 93.0016 100.013 92.9082L112.354 85.7851C112.688 85.5706 112.957 85.2678 113.129 84.9104C113.302 84.5529 113.373 84.1546 113.333 83.7595Z" fill="#E6E6E6"/>
<path d="M132.409 72.7662L131.98 69.7278C131.977 69.5731 131.933 69.422 131.85 69.2911C131.768 69.1601 131.651 69.0543 131.513 68.9851C131.374 68.9159 131.22 68.886 131.065 68.8987C130.911 68.9114 130.764 68.9662 130.638 69.0571L118.297 76.1936C117.965 76.4062 117.698 76.7069 117.526 77.0621C117.354 77.4173 117.285 77.8132 117.324 78.2058L117.747 81.2375C117.747 81.3932 117.79 81.5458 117.872 81.6783C117.954 81.8107 118.071 81.9177 118.21 81.9874C118.35 82.057 118.506 82.0865 118.661 82.0725C118.816 82.0585 118.964 82.0016 119.088 81.9082L131.43 74.7918C131.763 74.5762 132.03 74.2733 132.203 73.9161C132.376 73.5589 132.447 73.1611 132.409 72.7662Z" fill="#E6E6E6"/>
<path d="M151.484 61.7664L151.055 58.728C151.053 58.5733 151.008 58.4223 150.925 58.2913C150.843 58.1604 150.726 58.0545 150.588 57.9853C150.45 57.9161 150.295 57.8863 150.141 57.899C149.987 57.9117 149.839 57.9664 149.714 58.0573L137.372 65.1938C137.04 65.407 136.774 65.7078 136.602 66.0629C136.431 66.4179 136.361 66.8136 136.4 67.206L136.822 70.2377C136.822 70.3934 136.866 70.546 136.947 70.6785C137.029 70.8109 137.146 70.918 137.286 70.9876C137.425 71.0572 137.581 71.0867 137.736 71.0727C137.891 71.0587 138.039 71.0019 138.164 70.9084L150.505 63.792C150.838 63.5764 151.106 63.2735 151.278 62.9163C151.451 62.5591 151.522 62.1614 151.484 61.7664Z" fill="#E6E6E6"/>
<path d="M170.56 50.7665L170.13 47.7348C170.13 47.5791 170.087 47.4264 170.005 47.294C169.923 47.1615 169.806 47.0545 169.667 46.9849C169.528 46.9152 169.372 46.8858 169.217 46.8998C169.062 46.9137 168.913 46.9706 168.789 47.064L156.447 54.1939C156.116 54.4071 155.849 54.7078 155.678 55.0629C155.506 55.418 155.436 55.8136 155.475 56.2061L155.897 59.2445C155.9 59.3991 155.945 59.5502 156.027 59.6812C156.109 59.8121 156.226 59.918 156.365 59.9871C156.503 60.0563 156.658 60.0862 156.812 60.0735C156.966 60.0608 157.114 60.0061 157.239 59.9152L169.58 52.7921C169.914 52.577 170.182 52.2742 170.355 51.9168C170.527 51.5595 170.598 51.1615 170.56 50.7665Z" fill="#E6E6E6"/>
<path d="M189.628 39.7665L189.206 36.7348C189.206 36.5791 189.163 36.4264 189.081 36.294C188.999 36.1615 188.882 36.0545 188.742 35.9849C188.603 35.9152 188.447 35.8858 188.292 35.8998C188.137 35.9137 187.989 35.9706 187.864 36.064L175.53 43.1872C175.197 43.3992 174.93 43.6998 174.758 44.0552C174.586 44.4106 174.517 44.8067 174.557 45.1994L174.98 48.231C174.982 48.3857 175.027 48.5368 175.109 48.6677C175.192 48.7987 175.308 48.9045 175.447 48.9737C175.585 49.0429 175.74 49.0728 175.894 49.0601C176.048 49.0474 176.196 48.9926 176.321 48.9018L188.663 41.7786C188.993 41.5646 189.258 41.2635 189.429 40.9085C189.599 40.5534 189.668 40.1583 189.628 39.7665Z" fill="#E6E6E6"/>
<path opacity="0.2" d="M60.7951 87.8507C60.7344 86.9645 60.9173 86.0785 61.324 85.2888C61.7307 84.499 62.3457 83.8356 63.1024 83.3703C64.6048 82.505 66.0066 83.102 66.2414 84.7117C66.3036 85.5989 66.1207 86.4862 65.7125 87.2764C65.3044 88.0666 64.6868 88.7294 63.9274 89.1922C62.4316 90.0574 61.0298 89.4605 60.7951 87.8507Z" fill="black"/>
<path opacity="0.2" d="M79.8913 76.8643C79.8291 75.9779 80.0114 75.0914 80.4182 74.3013C80.8251 73.5113 81.4409 72.8481 82.1986 72.3839C83.701 71.5119 85.1028 72.1089 85.3376 73.7253C85.3993 74.6115 85.2161 75.4976 84.808 76.2867C84.3999 77.0758 83.7825 77.7373 83.0236 78.1991C81.5212 79.0375 80.1193 78.4405 79.8913 76.8643Z" fill="black"/>
<path opacity="0.2" d="M98.9465 65.8308C98.8843 64.9443 99.0666 64.0578 99.4734 63.2678C99.8802 62.4778 100.496 61.8145 101.254 61.3503C102.756 60.4783 104.165 61.0753 104.393 62.6917C104.454 63.5772 104.272 64.4626 103.865 65.2514C103.458 66.0403 102.843 66.7024 102.085 67.1655C100.583 68.0307 99.1745 67.4338 98.9465 65.8308Z" fill="black"/>
<path opacity="0.2" d="M137.084 43.8108C137.022 42.9244 137.204 42.0379 137.611 41.2478C138.018 40.4578 138.634 39.7946 139.391 39.3304C140.894 38.4651 142.296 39.0621 142.524 40.6718C142.589 41.5587 142.408 42.4463 142.001 43.2369C141.594 44.0275 140.976 44.6903 140.216 45.1523C138.714 46.0108 137.312 45.4206 137.084 43.8108Z" fill="black"/>
<path opacity="0.2" d="M156.173 32.7974C156.109 31.9108 156.291 31.0237 156.698 30.2334C157.105 29.4431 157.722 28.7801 158.48 28.317C159.983 27.445 161.385 28.042 161.619 29.6584C161.682 30.5456 161.499 31.4329 161.091 32.2231C160.682 33.0133 160.065 33.6761 159.305 34.1389C157.803 34.9974 156.401 34.4005 156.173 32.7974Z" fill="black"/>
<path opacity="0.2" d="M175.228 21.7908C175.166 20.9044 175.348 20.0179 175.755 19.2279C176.162 18.4378 176.778 17.7746 177.536 17.3104C179.038 16.4384 180.446 17.0354 180.675 18.6518C180.736 19.5373 180.554 20.4227 180.147 21.2115C179.74 22.0004 179.124 22.6624 178.367 23.1256C176.831 23.9908 175.49 23.3939 175.228 21.7908Z" fill="black"/>
<path d="M58.8231 69.7278C56.8109 68.5541 54.839 68.3864 53.3366 69.2516C51.8342 70.1169 51.0024 71.8876 51.0024 74.2418C51.0155 75.343 51.178 76.4374 51.4854 77.4949L52.6793 76.8241C52.4649 75.9844 52.3523 75.1219 52.3439 74.2553C52.3439 72.404 52.9341 71.0425 54.0073 70.4254C54.4476 70.1795 54.9451 70.0546 55.4494 70.0632C56.4007 70.1086 57.3244 70.3973 58.1323 70.9016C61.7006 72.9675 64.6048 77.9979 64.6048 82.1162C64.6068 82.4097 64.5911 82.7032 64.5579 82.9948C64.5414 83.5789 64.387 84.1507 64.1072 84.6637C63.8275 85.1766 63.4303 85.616 62.9481 85.946C62.3332 86.2781 61.6238 86.3917 60.9359 86.268C60.8005 86.7016 60.7437 87.1559 60.7682 87.6094C61.0189 87.6493 61.2723 87.6694 61.5262 87.6698C62.2648 87.679 62.9924 87.489 63.6322 87.1198C64.2311 86.7443 64.7386 86.24 65.118 85.6436C65.4974 85.0472 65.7391 84.3738 65.8255 83.6723C65.9159 83.163 65.9608 82.6468 65.9597 82.1296C65.9664 77.5351 62.7603 72.0016 58.8231 69.7278Z" fill="#F5F5F5"/>
<path d="M77.9125 58.7144C75.9003 57.5406 73.9284 57.373 72.4259 58.2382C70.9235 59.1034 70.0918 60.8742 70.0918 63.2284C70.1049 64.3296 70.2673 65.4239 70.5747 66.4814L71.7686 65.8107C71.5543 64.971 71.4417 64.1085 71.4333 63.2418C71.4333 61.3906 72.0235 60.029 73.0967 59.412C73.537 59.1661 74.0345 59.0411 74.5387 59.0498C75.49 59.0952 76.4138 59.3838 77.2216 59.8882C80.7899 61.954 83.6942 66.9845 83.6942 71.1028C83.6961 71.3963 83.6805 71.6897 83.6472 71.9814C83.6308 72.5654 83.4764 73.1373 83.1966 73.6502C82.9168 74.1632 82.5196 74.6026 82.0375 74.9326C81.4225 75.2647 80.7131 75.3782 80.0253 75.2546C79.8899 75.6881 79.8331 76.1424 79.8576 76.596C80.1083 76.6358 80.3617 76.656 80.6155 76.6564C81.3542 76.6656 82.0817 76.4756 82.7216 76.1064C83.3204 75.7308 83.828 75.2266 84.2074 74.6302C84.5868 74.0338 84.8285 73.3604 84.9149 72.6588C85.0053 72.1496 85.0501 71.6333 85.049 71.1162C85.0557 66.5418 81.8497 60.9882 77.9125 58.7144Z" fill="#F5F5F5"/>
<path d="M96.9676 47.7078C94.9555 46.534 92.9835 46.3664 91.4811 47.2316C89.9787 48.0968 89.147 49.8676 89.147 52.2218C89.1601 53.323 89.3225 54.4173 89.6299 55.4748L90.8238 54.8041C90.6094 53.9644 90.4969 53.1019 90.4884 52.2352C90.4884 50.384 91.0787 49.0224 92.1518 48.4054C92.5921 48.1595 93.0897 48.0345 93.5939 48.0432C94.5452 48.0886 95.4689 48.3772 96.2768 48.8816C99.8451 50.9474 102.749 55.9779 102.749 60.0962C102.751 60.3897 102.736 60.6831 102.702 60.9748C102.686 61.5589 102.532 62.1307 102.252 62.6437C101.972 63.1566 101.575 63.596 101.093 63.926C100.478 64.2581 99.7683 64.3716 99.0804 64.248C98.945 64.6815 98.8882 65.1359 98.9128 65.5894C99.1634 65.6292 99.4169 65.6494 99.6707 65.6498C100.409 65.659 101.137 65.469 101.777 65.0998C102.376 64.7243 102.883 64.22 103.263 63.6236C103.642 63.0272 103.884 62.3538 103.97 61.6523C104.06 61.143 104.105 60.6268 104.104 60.1096C104.111 55.5352 100.905 49.9816 96.9676 47.7078Z" fill="#F5F5F5"/>
<path d="M135.112 25.7215C133.1 24.5477 131.128 24.38 129.626 25.2453C128.123 26.1105 127.292 27.8812 127.292 30.2355C127.305 31.3367 127.467 32.431 127.774 33.4885L128.968 32.8178C128.754 31.978 128.641 31.1155 128.633 30.2489C128.633 28.3977 129.223 27.0361 130.296 26.4191C130.737 26.1732 131.234 26.0482 131.738 26.0569C132.69 26.1022 133.613 26.3909 134.421 26.8953C137.99 28.9611 140.894 33.9916 140.894 38.1098C140.896 38.4034 140.88 38.6968 140.847 38.9885C140.83 39.5725 140.676 40.1444 140.396 40.6573C140.117 41.1702 139.719 41.6097 139.237 41.9397C138.622 42.2718 137.913 42.3853 137.225 42.2616C137.09 42.6952 137.033 43.1495 137.057 43.6031C137.308 43.6429 137.561 43.6631 137.815 43.6635C138.554 43.6727 139.281 43.4827 139.921 43.1135C140.52 42.7379 141.028 42.2336 141.407 41.6373C141.787 41.0409 142.028 40.3674 142.115 39.6659C142.205 39.1567 142.25 38.6404 142.249 38.1232C142.255 33.5489 139.049 27.9953 135.112 25.7215Z" fill="#F5F5F5"/>
<path d="M154.201 14.7012C152.189 13.5275 150.217 13.3598 148.714 14.225C147.212 15.0903 146.38 16.861 146.38 19.2152C146.393 20.3164 146.556 21.4107 146.863 22.4683L148.057 21.7975C147.843 20.9578 147.73 20.0953 147.722 19.2286C147.722 17.3774 148.312 16.0159 149.385 15.3988C149.826 15.1529 150.323 15.028 150.827 15.0366C151.779 15.082 152.702 15.3706 153.51 15.875C157.078 17.9408 159.983 22.9713 159.983 27.0896C159.985 27.3831 159.969 27.6765 159.936 27.9682C159.919 28.5523 159.765 29.1241 159.485 29.6371C159.205 30.15 158.808 30.5894 158.326 30.9194C157.711 31.2515 157.002 31.365 156.314 31.2414C156.178 31.675 156.122 32.1293 156.146 32.5828C156.397 32.6226 156.65 32.6428 156.904 32.6432C157.643 32.6524 158.37 32.4624 159.01 32.0932C159.609 31.7177 160.117 31.2134 160.496 30.617C160.875 30.0206 161.117 29.3472 161.203 28.6457C161.294 28.1364 161.339 27.6202 161.338 27.103C161.344 22.5353 158.138 16.975 154.201 14.7012Z" fill="#F5F5F5"/>
<path d="M173.256 3.69464C171.244 2.52087 169.272 2.35318 167.77 3.21842C166.267 4.08366 165.429 5.85438 165.429 8.20864C165.442 9.30983 165.604 10.4042 165.912 11.4617L167.106 10.7909C166.891 9.95118 166.779 9.08869 166.77 8.22205C166.77 6.37084 167.36 5.00927 168.434 4.3922C168.874 4.14632 169.371 4.02136 169.876 4.03C170.827 4.07538 171.751 4.36405 172.559 4.86841C176.127 6.93425 179.031 11.9647 179.031 16.083C179.033 16.3765 179.017 16.67 178.984 16.9616C178.968 17.5457 178.813 18.1175 178.534 18.6305C178.254 19.1434 177.857 19.5828 177.374 19.9128C176.759 20.2449 176.05 20.3585 175.362 20.2348C175.227 20.6684 175.17 21.1227 175.195 21.5762C175.445 21.6161 175.699 21.6362 175.952 21.6366C176.691 21.6458 177.419 21.4558 178.059 21.0866C178.657 20.7111 179.165 20.2068 179.544 19.6104C179.924 19.014 180.165 18.3406 180.252 17.6391C180.342 17.1298 180.387 16.6136 180.386 16.0964C180.399 11.522 177.193 5.96841 173.256 3.69464Z" fill="#F5F5F5"/>
<path d="M239.911 134.65C240.863 115.334 239.421 110.665 234.35 107.01L232.11 118.164C232.11 118.164 234.156 131.411 233.8 135.804C233.499 139.661 233.009 144.483 232.03 147.582C231.848 148.129 231.474 148.591 230.977 148.883C229.635 149.675 229.099 150.5 228.086 151.513C227.294 152.304 226.637 152.492 226.744 152.753C226.888 153.04 227.134 153.261 227.433 153.374C227.733 153.487 228.064 153.484 228.361 153.364C229.024 153.119 229.654 152.794 230.239 152.398C229.759 153.572 229.093 154.661 228.267 155.624C226.376 157.838 226.255 159.219 229.971 159.333C232.298 159.407 234.183 157.992 236.047 152.934C236.773 151.075 237.362 149.165 237.811 147.22C238.797 142.169 239.757 137.756 239.911 134.65Z" fill="#F28F8F"/>
<path d="M230.058 105.447C232.519 105.145 235.846 105.735 237.919 109.639C239.991 113.543 240.367 120.19 240.461 126.796C240.461 126.796 236.101 130.277 230.997 128.399L230.058 105.447Z" fill="#1058FB"/>
<path d="M230.058 105.447C232.519 105.145 235.846 105.735 237.919 109.639C239.991 113.543 240.367 120.19 240.461 126.796C240.461 126.796 236.101 130.277 230.997 128.399L230.058 105.447Z" fill="#C0C9DB"/>
<path d="M234.8 206.626C235.162 206.774 235.243 207.485 235.27 208.886C235.27 209.953 235.471 211.811 234.217 212.153C232.962 212.495 231.145 212.267 230.373 211.247C229.439 209.883 228.436 208.567 227.369 207.303C226.168 205.962 224.86 204.688 224.404 202.816C223.995 201.133 224.404 200.415 225.537 199.952C227.127 199.315 229.562 201.562 230.776 201.964C231.829 202.253 234.431 206.472 234.8 206.626Z" fill="#52575C"/>
<path d="M234.827 205.325L234.787 207.048C234.128 207.444 233.375 207.653 232.607 207.653C231.839 207.653 231.085 207.444 230.427 207.048C230.36 206.881 230.031 204.573 230.031 204.573L234.827 205.325Z" fill="#F28F8F"/>
<path d="M220.614 216.244C220.614 216.244 221.07 217.753 221.285 219.075C221.473 220.121 221.734 221.872 221.352 222.643C220.97 223.414 219.534 223.897 217.328 223.83C215.899 223.783 213.652 224.709 212.103 225.52C210.553 226.332 207.226 226.64 205.563 226.412C203.605 226.137 201.592 224.95 201.297 224.132C201.002 223.314 201.438 222.475 206.113 220.604C206.153 220.604 212.592 218.652 214.886 216.231L220.614 216.244Z" fill="#52575C"/>
<path d="M220.654 214.38C220.654 214.38 220.621 215.661 220.607 216.392C220.594 217.123 219.708 218.196 217.475 218.062C215.905 217.975 214.792 217.525 214.913 216.231L214.953 214.373L220.654 214.38Z" fill="#F28F8F"/>
<path d="M236.463 182.473C236.149 179.411 235.536 176.388 234.632 173.445C234.632 173.445 235.417 165.712 235.88 158.374C236.376 150.446 236.269 140.466 236.463 138.494C236.463 138.494 210.976 132.739 210.305 141.894C209.634 151.05 210.58 174.438 210.795 178.476C211.009 182.514 211.62 186.089 212.304 192.635C212.988 199.181 214.94 214.373 214.94 214.373C215.817 214.843 216.796 215.089 217.79 215.089C218.785 215.089 219.764 214.843 220.641 214.373C220.641 214.373 222.854 196.076 222.774 191.428C222.704 187.979 222.188 184.555 221.238 181.239C221.238 181.239 221.909 173.687 222.465 167.12C223.022 160.554 223.572 157.401 223.733 154.544L224.29 154.283C224.29 154.283 224.598 165.645 224.806 169.676C225.014 173.707 225.578 177.59 226.57 185.103C227.435 191.615 230.138 205.419 230.138 205.419C233.029 207.069 234.834 205.318 234.834 205.318C234.834 205.318 237.127 188.121 236.463 182.473Z" fill="#1058FB"/>
<path opacity="0.7" d="M236.463 182.473C236.149 179.411 235.536 176.388 234.632 173.445C234.632 173.445 235.417 165.712 235.88 158.374C236.376 150.446 236.269 140.466 236.463 138.494C236.463 138.494 210.976 132.739 210.305 141.894C209.634 151.05 210.58 174.438 210.795 178.476C211.009 182.514 211.62 186.089 212.304 192.635C212.988 199.181 214.94 214.373 214.94 214.373C215.817 214.843 216.796 215.089 217.79 215.089C218.785 215.089 219.764 214.843 220.641 214.373C220.641 214.373 222.854 196.076 222.774 191.428C222.704 187.979 222.188 184.555 221.238 181.239C221.238 181.239 221.909 173.687 222.465 167.12C223.022 160.554 223.572 157.401 223.733 154.544L224.29 154.283C224.29 154.283 224.598 165.645 224.806 169.676C225.014 173.707 225.578 177.59 226.57 185.103C227.435 191.615 230.138 205.419 230.138 205.419C233.029 207.069 234.834 205.318 234.834 205.318C234.834 205.318 237.127 188.121 236.463 182.473Z" fill="#00B6FF"/>
<path opacity="0.4" d="M223.746 154.551C223.746 154.551 230.024 151.626 233.197 148.937C233.197 148.937 230.219 152.961 226.389 154.658C226.389 154.658 224.725 168.743 224.739 168.448L224.276 154.537L223.746 154.551Z" fill="black"/>
<path d="M219.393 102.268L220.721 110.638L228.267 110.256L227.388 100.463L219.393 102.268Z" fill="#F28F8F"/>
<path d="M236.235 109.827C235.565 107.546 232.721 105.011 229.83 105.48C229.159 105.588 228.488 105.702 227.865 105.816C227.523 107.224 223.914 108.311 220.218 107.446C219.105 107.734 218.079 108.036 217.153 108.344C214.47 109.223 212.049 111.45 211.633 120.109C211.633 120.109 210.292 140.298 210.191 144.201C216.751 146.971 223.605 147.045 227.455 146.301C235.41 144.751 236.443 141.485 236.443 141.485C236.443 141.485 236.872 126.957 236.772 120.692C236.691 115.34 236.711 111.396 236.235 109.827Z" fill="#D3DBEC"/>
<path d="M213.813 91.9921C213.813 91.9921 211.834 94.9969 212.062 95.292C212.29 95.5872 213.739 95.8487 213.739 95.8487L213.813 91.9921Z" fill="#ED8484"/>
<path d="M214.739 93.9236C214.272 93.9249 213.814 93.7876 213.425 93.5289C213.036 93.2703 212.732 92.9021 212.553 92.4708C212.373 92.0395 212.325 91.5646 212.416 91.1061C212.506 90.6477 212.73 90.2264 213.06 89.8955C213.39 89.5647 213.811 89.3392 214.269 89.2475C214.727 89.1559 215.202 89.2022 215.634 89.3807C216.066 89.5592 216.435 89.8618 216.695 90.2502C216.954 90.6386 217.093 91.0954 217.093 91.5626C217.093 92.1876 216.845 92.7871 216.404 93.2297C215.963 93.6723 215.364 93.9218 214.739 93.9236ZM214.739 89.7315C214.375 89.7302 214.018 89.837 213.715 90.0385C213.412 90.2399 213.175 90.5268 213.035 90.8629C212.896 91.199 212.859 91.5691 212.929 91.9262C213 92.2833 213.175 92.6114 213.433 92.8688C213.69 93.1263 214.018 93.3014 214.375 93.3721C214.732 93.4428 215.102 93.4059 215.438 93.2659C215.775 93.126 216.062 92.8894 216.263 92.5862C216.464 92.2829 216.571 91.9267 216.57 91.5626C216.561 91.0828 216.364 90.6256 216.022 90.2895C215.679 89.9533 215.219 89.765 214.739 89.7651V89.7315Z" fill="#25282B"/>
<path d="M219.307 83.6884C215.283 84.5335 214.149 86.2908 213.773 92.656C213.378 99.2962 214.055 101.375 214.927 102.281C215.517 102.885 218.79 102.992 220.447 102.543C222.513 101.972 227.188 100.316 229.375 96.9688C231.95 93.0383 232.628 87.706 229.871 85.5194C225.987 82.4475 220.937 83.3463 219.307 83.6884Z" fill="#F28F8F"/>
<path d="M215.671 102.61C216.933 102.851 218.227 102.888 219.501 102.717C220.074 102.375 220.524 101.861 220.789 101.248C220.789 101.248 220.031 102.308 215.671 102.61Z" fill="#8C3F3E"/>
<path d="M212.599 91.0732L219.722 91.9921L219.433 92.4952L212.599 91.6098V91.0732Z" fill="#25282B"/>
<path d="M211.894 86.8207C212.446 87.7357 213.23 88.488 214.168 89.0006C215.167 89.5237 216.18 89.5505 217.28 90.6237C217.685 91.031 218.016 91.5053 218.259 92.0255C218.306 92.1396 219.151 93.2798 219.198 93.1054C219.198 93.1054 219.829 90.6505 221.881 90.9591C223.934 91.2676 224.249 93.9237 222.934 95.5401C221.62 97.1566 220.392 96.5328 220.392 96.5328C220.392 96.5328 220.459 100.047 222.015 102.033C222.015 102.033 223.786 102.61 227.039 101.912C229.051 101.483 231.875 98.981 233.076 96.3383C235.591 90.731 235.759 85.6872 232.19 84.178C231.801 81.5957 229.769 80.4354 227.455 79.9055C226.221 79.6853 224.959 79.6694 223.719 79.8585C222.321 80.0119 220.906 79.8795 219.561 79.4695C218.856 79.1705 218.099 79.0111 217.334 79C216.576 79.0738 215.798 79.711 215.905 80.4622C215.304 80.0691 214.598 79.8665 213.88 79.8808C213.162 79.8952 212.465 80.1259 211.881 80.5427C210.459 81.6024 210.432 83.192 210.955 84.775C211.187 85.4914 211.502 86.178 211.894 86.8207Z" fill="#25282B"/>
<path d="M232.258 85.07L234.659 83.6548C234.463 83.3544 234.158 83.1413 233.809 83.0596C233.459 82.9779 233.092 83.034 232.783 83.2162C232.474 83.3984 232.247 83.6927 232.149 84.0379C232.051 84.3832 232.09 84.7528 232.258 85.07Z" fill="#25282B"/>
<path d="M219.158 94.5073L219.232 91.7237C219.042 91.7065 218.851 91.7284 218.67 91.788C218.488 91.8477 218.321 91.9439 218.179 92.0706C218.036 92.1974 217.921 92.352 217.841 92.5249C217.761 92.6979 217.716 92.8855 217.711 93.0762C217.706 93.2668 217.74 93.4565 217.812 93.6335C217.883 93.8105 217.989 93.971 218.125 94.1051C218.261 94.2392 218.422 94.3441 218.6 94.4133C218.778 94.4824 218.968 94.5144 219.158 94.5073Z" fill="#25282B"/>
<path d="M216.751 109.981C211.7 106.574 201.74 99.2493 200.532 98.4847C198.856 97.4584 196.287 97.2237 194.711 98.0621C193.248 98.8469 194.073 100.805 196.904 104.146C199.647 107.379 211.566 119.572 211.566 119.572L216.751 109.981Z" fill="#F28F8F"/>
<path d="M217.026 108.787C213.511 106.56 206.294 102.08 206.294 102.08C206.294 102.08 201.317 105.655 202.471 111.658C202.471 111.658 209.701 118.586 211.861 120.377C213.323 121.558 217.542 119.707 218.139 115.468C218.924 110.229 217.026 108.787 217.026 108.787Z" fill="#1058FB"/>
<path d="M217.026 108.787C213.511 106.56 206.294 102.08 206.294 102.08C206.294 102.08 201.317 105.655 202.471 111.658C202.471 111.658 209.701 118.586 211.861 120.377C213.323 121.558 217.542 119.707 218.139 115.468C218.924 110.229 217.026 108.787 217.026 108.787Z" fill="#D7DFEF"/>
<path d="M194.107 99.1888C194.489 96.4187 203.001 90.5566 205.912 88.7523C207.226 87.9521 208.451 87.0145 209.567 85.9554C210.01 85.5261 210.399 85.0499 210.835 84.6139C211.271 84.178 211.646 83.581 212.176 83.1249C212.805 82.5119 213.519 81.9924 214.296 81.5822C215.779 80.9489 217.432 80.8308 218.991 81.2469C219.353 81.3274 219.715 81.428 220.091 81.4749C220.876 81.5755 221.768 81.4749 222.378 81.9579C222.446 82.003 222.502 82.0624 222.544 82.132C222.586 82.2016 222.611 82.2796 222.62 82.3603C222.62 82.6152 222.371 82.7761 222.143 82.8902C220.353 83.7621 218.24 84.0572 216.744 85.3786C216.63 85.4792 215.932 86.3981 216.315 86.4987C216.697 86.5993 217.998 86.0627 219.407 86.1029C221.104 86.1499 219.984 87.1292 219.407 87.4444C218.492 87.9711 217.501 88.3535 216.469 88.5779C214.886 88.9602 213.504 89.1346 212.445 89.8389C211.385 90.5432 201.954 100.081 201.954 100.081L194.107 99.1888Z" fill="#F28F8F"/>
</svg>
