<svg width="235" height="210" viewBox="0 0 235 210" fill="none" xmlns="http://www.w3.org/2000/svg">
<path d="M117.373 210C182.196 210 234.745 179.661 234.745 142.236C234.745 104.811 182.196 74.4717 117.373 74.4717C52.5495 74.4717 0 104.811 0 142.236C0 179.661 52.5495 210 117.373 210Z" fill="#F5F5F5"/>
<path d="M176.116 177.819C192.725 177.819 206.19 170.045 206.19 160.456C206.19 150.867 192.725 143.094 176.116 143.094C159.507 143.094 146.043 150.867 146.043 160.456C146.043 170.045 159.507 177.819 176.116 177.819Z" fill="#E6E6E6"/>
<path d="M136.387 160.283L88.7772 187.777C88.2123 188.064 87.5879 188.213 86.9546 188.213C86.3213 188.213 85.697 188.064 85.1321 187.777L37.5225 160.283C36.5306 159.703 36.5306 158.76 37.5225 158.18L85.1321 130.685C85.697 130.399 86.3213 130.25 86.9546 130.25C87.5879 130.25 88.2123 130.399 88.7772 130.685L136.387 158.18C137.379 158.76 137.379 159.703 136.387 160.283Z" fill="#E0E0E0"/>
<path d="M50.5358 7.07889L48.433 7.78312V3.77102C48.433 0.592084 45.5021 -0.171654 42.3231 1.41533C39.1442 3.00728 36.5653 6.8706 36.5653 10.0545V10.6199C36.1192 10.4987 35.6534 10.4679 35.1953 10.5293C34.7371 10.5906 34.2958 10.7428 33.8972 10.9769C31.606 12.1374 29.7611 14.9196 29.7611 17.2059V17.4737L26.8302 18.9615C25.3424 19.7153 24.1025 21.5502 24.1025 23.0529C24.1025 24.5556 25.3225 25.1705 26.8302 24.4167L50.5457 12.5639C52.0335 11.8101 53.2733 9.97515 53.2733 8.46751C53.2733 6.95987 52.0434 6.32508 50.5358 7.07889Z" fill="#EBEBEB"/>
<path d="M77.4996 18.5947L73.6908 20.4991C73.6908 20.3503 73.7206 20.2065 73.7206 20.0626V19.1055C73.7206 17.4044 72.3419 16.7151 70.6408 17.5681C69.926 17.9408 69.2987 18.4615 68.8009 19.0956C68.5232 16.9581 66.5841 16.1596 64.2334 17.335C61.6843 18.6096 59.6212 21.7042 59.6212 24.2483V25.6816C59.6071 26.2582 59.742 26.8287 60.013 27.338L56.8489 28.92C56.3717 29.1698 55.9649 29.5355 55.666 29.9835C55.367 30.4315 55.1854 30.9475 55.1379 31.484C55.1379 32.4263 55.9017 32.8131 56.8489 32.337L77.4996 22.0265C77.9768 21.7768 78.3836 21.4111 78.6825 20.9631C78.9815 20.5151 79.1631 19.9991 79.2106 19.4626C79.2106 18.5054 78.4419 18.1235 77.4996 18.5947Z" fill="#EBEBEB"/>
<path d="M40.5874 159.146L86.9175 132.396L133.253 159.146L86.9175 185.897L40.5874 159.146Z" fill="#1058FB"/>
<path opacity="0.25" d="M40.5874 159.146L86.9175 132.396L133.253 159.146L86.9175 185.897L40.5874 159.146Z" fill="black"/>
<path d="M86.9174 132.396V86.6514L39.645 113.943L79.1957 136.855L86.9174 132.396Z" fill="#37474F"/>
<path d="M86.9172 86.6514V132.396L94.6439 136.855L134.195 113.943L86.9172 86.6514Z" fill="#263238"/>
<path d="M86.9172 86.6514L102.093 93.0836L149.37 120.38L134.195 113.943L86.9172 86.6514Z" fill="#455A64"/>
<path d="M86.9174 86.6523L73.7603 91.9241L26.4829 119.215L39.645 113.944L86.9174 86.6523Z" fill="#455A64"/>
<path opacity="0.2" d="M86.9174 86.6523L39.3921 113.403L26.4829 119.215L39.645 113.944L86.9174 86.6523Z" fill="white"/>
<path d="M80.8768 142.235C84.1991 142.235 86.8924 139.542 86.8924 136.22C86.8924 132.897 84.1991 130.204 80.8768 130.204C77.5544 130.204 74.8611 132.897 74.8611 136.22C74.8611 139.542 77.5544 142.235 80.8768 142.235Z" fill="#1058FB"/>
<path d="M71.1841 131.682C73.4539 129.412 73.4539 125.732 71.1841 123.462C68.9142 121.192 65.2341 121.192 62.9642 123.462C60.6943 125.732 60.6943 129.412 62.9642 131.682C65.2341 133.952 68.9142 133.952 71.1841 131.682Z" fill="#1058FB"/>
<path opacity="0.4" d="M71.1841 131.682C73.4539 129.412 73.4539 125.732 71.1841 123.462C68.9142 121.192 65.2341 121.192 62.9642 123.462C60.6943 125.732 60.6943 129.412 62.9642 131.682C65.2341 133.952 68.9142 133.952 71.1841 131.682Z" fill="black"/>
<path d="M81.5445 118.742C85.7628 116.995 87.7659 112.159 86.0186 107.94C84.2714 103.722 79.4353 101.719 75.217 103.466C70.9987 105.213 68.9955 110.049 70.7428 114.268C72.4901 118.486 77.3262 120.489 81.5445 118.742Z" fill="#1058FB"/>
<path opacity="0.5" d="M81.5445 118.742C85.7628 116.995 87.7659 112.159 86.0186 107.94C84.2714 103.722 79.4353 101.719 75.217 103.466C70.9987 105.213 68.9955 110.049 70.7428 114.268C72.4901 118.486 77.3262 120.489 81.5445 118.742Z" fill="white"/>
<path opacity="0.3" d="M76.0811 114.076C72.1434 111.229 71.821 105.645 74.9008 103.606C73.5562 104.231 72.4043 105.205 71.5656 106.427C70.7268 107.65 70.2322 109.075 70.1334 110.554C70.0346 112.033 70.3353 113.511 71.004 114.834C71.6727 116.157 72.6849 117.276 73.9344 118.074C75.184 118.871 76.625 119.318 78.1065 119.367C79.5881 119.417 81.0556 119.067 82.3556 118.355C83.6555 117.642 84.74 116.593 85.4954 115.318C86.2508 114.042 86.6494 112.587 86.6494 111.105C86.337 115.087 80.0138 116.927 76.0811 114.076Z" fill="#1058FB"/>
<path opacity="0.02" d="M76.0811 114.076C72.1434 111.229 71.821 105.645 74.9008 103.606C73.5562 104.231 72.4043 105.205 71.5656 106.427C70.7268 107.65 70.2322 109.075 70.1334 110.554C70.0346 112.033 70.3353 113.511 71.004 114.834C71.6727 116.157 72.6849 117.276 73.9344 118.074C75.184 118.871 76.625 119.318 78.1065 119.367C79.5881 119.417 81.0556 119.067 82.3556 118.355C83.6555 117.642 84.74 116.593 85.4954 115.318C86.2508 114.042 86.6494 112.587 86.6494 111.105C86.337 115.087 80.0138 116.927 76.0811 114.076Z" fill="black"/>
<path d="M87.785 106.077L97.3416 103.101C97.7945 102.987 98.2681 102.981 98.7238 103.083C99.1796 103.186 99.6048 103.394 99.9651 103.692L107.067 109.687C107.393 110.022 107.636 110.43 107.776 110.876C107.915 111.322 107.948 111.795 107.87 112.256L105.683 122.026C105.557 122.477 105.327 122.891 105.01 123.236C104.694 123.58 104.301 123.846 103.863 124.01L94.3065 126.986C93.8536 127.1 93.3801 127.106 92.9243 127.004C92.4685 126.901 92.0433 126.693 91.683 126.395L84.5812 120.4C84.2549 120.065 84.012 119.658 83.8725 119.211C83.7329 118.765 83.7005 118.292 83.7778 117.831L85.9649 108.061C86.091 107.61 86.3215 107.196 86.6378 106.851C86.954 106.507 87.347 106.241 87.785 106.077Z" fill="#1058FB"/>
<path opacity="0.15" d="M87.785 106.077L97.3416 103.101C97.7945 102.987 98.2681 102.981 98.7238 103.083C99.1796 103.186 99.6048 103.394 99.9651 103.692L107.067 109.687C107.393 110.022 107.636 110.43 107.776 110.876C107.915 111.322 107.948 111.795 107.87 112.256L105.683 122.026C105.557 122.477 105.327 122.891 105.01 123.236C104.694 123.58 104.301 123.846 103.863 124.01L94.3065 126.986C93.8536 127.1 93.3801 127.106 92.9243 127.004C92.4685 126.901 92.0433 126.693 91.683 126.395L84.5812 120.4C84.2549 120.065 84.012 119.658 83.8725 119.211C83.7329 118.765 83.7005 118.292 83.7778 117.831L85.9649 108.061C86.091 107.61 86.3215 107.196 86.6378 106.851C86.954 106.507 87.347 106.241 87.785 106.077Z" fill="black"/>
<path d="M107.915 112.022C107.975 111.328 107.484 110.961 106.745 111.194L97.188 114.17C96.6304 114.369 96.1486 114.736 95.8093 115.221C95.8796 115.124 95.9558 115.031 96.0374 114.944L86.6494 106.84C86.9606 106.488 87.3567 106.222 87.8 106.066L97.3517 103.091C97.8053 102.975 98.2798 102.969 98.7365 103.071C99.1932 103.174 99.6193 103.383 99.9801 103.681L107.082 109.677C107.382 109.984 107.612 110.353 107.756 110.758C107.899 111.163 107.954 111.595 107.915 112.022Z" fill="#1058FB"/>
<path opacity="0.15" d="M83.7729 117.825C83.6956 118.286 83.728 118.759 83.8676 119.205C84.0072 119.652 84.25 120.059 84.5764 120.394L91.6781 126.39C92.0052 126.66 92.3864 126.858 92.7961 126.969C93.2058 127.08 93.6346 127.103 94.0536 127.034C93.3841 127.134 92.9923 126.677 93.161 125.928L95.348 116.159C95.4658 115.706 95.698 115.291 96.0225 114.953L86.6345 106.83C86.31 107.167 86.0777 107.582 85.96 108.035L83.7729 117.825Z" fill="black"/>
<path d="M57.0372 109.726L65.2845 108.68C65.6712 108.653 66.0587 108.717 66.4162 108.867C66.7736 109.017 67.0909 109.248 67.3427 109.543L72.2722 115.494C72.4896 115.816 72.6284 116.184 72.6775 116.569C72.7266 116.954 72.6846 117.345 72.5549 117.711L69.3363 125.378C69.1658 125.726 68.9158 126.03 68.6066 126.264C68.2974 126.499 67.9375 126.657 67.5559 126.727L59.3135 127.778C58.9256 127.805 58.5368 127.741 58.1785 127.59C57.8201 127.44 57.5022 127.207 57.2504 126.91L52.3258 120.959C52.1085 120.638 51.9697 120.269 51.9206 119.884C51.8715 119.499 51.9134 119.108 52.0431 118.742L55.2568 111.075C55.4273 110.727 55.6772 110.423 55.9865 110.189C56.2957 109.955 56.6556 109.796 57.0372 109.726Z" fill="#1058FB"/>
<g opacity="0.15">
<path opacity="0.15" d="M57.0372 109.726L65.2845 108.68C65.6712 108.653 66.0587 108.717 66.4162 108.867C66.7736 109.017 67.0909 109.248 67.3427 109.543L72.2722 115.494C72.4896 115.816 72.6284 116.184 72.6775 116.569C72.7266 116.954 72.6846 117.345 72.5549 117.711L69.3363 125.378C69.1658 125.726 68.9158 126.03 68.6066 126.264C68.2974 126.499 67.9375 126.657 67.5559 126.727L59.3135 127.778C58.9256 127.805 58.5368 127.741 58.1785 127.59C57.8201 127.44 57.5022 127.207 57.2504 126.91L52.3258 120.959C52.1085 120.638 51.9697 120.269 51.9206 119.884C51.8715 119.499 51.9134 119.108 52.0431 118.742L55.2568 111.075C55.4273 110.727 55.6772 110.423 55.9865 110.189C56.2957 109.955 56.6556 109.796 57.0372 109.726Z" fill="black"/>
</g>
<path opacity="0.2" d="M52.0382 118.732C51.9085 119.098 51.8666 119.489 51.9157 119.874C51.9648 120.259 52.1036 120.628 52.3209 120.949L57.2455 126.9C57.474 127.169 57.7573 127.386 58.0762 127.536C58.3952 127.687 58.7427 127.768 59.0954 127.773C58.5349 127.773 58.282 127.327 58.525 126.742L61.7436 119.075C61.9138 118.72 62.1715 118.414 62.4925 118.187L56.0057 110.192C55.6911 110.421 55.4402 110.727 55.2767 111.08L52.0382 118.732Z" fill="black"/>
<path d="M72.6193 117.528C72.7681 116.968 72.4209 116.601 71.7812 116.685L63.5338 117.742C63.0496 117.824 62.6027 118.055 62.2543 118.401C62.3257 118.33 62.4019 118.264 62.4824 118.203L55.9956 110.198C56.3004 109.957 56.6626 109.798 57.047 109.737L65.2894 108.686C65.6772 108.659 66.0661 108.723 66.4244 108.874C66.7828 109.024 67.1007 109.257 67.3525 109.554L72.2821 115.505C72.4794 115.799 72.6116 116.131 72.6697 116.48C72.7279 116.829 72.7107 117.186 72.6193 117.528Z" fill="#1058FB"/>
<path d="M112.527 133.978C118.191 133.978 122.783 129.386 122.783 123.722C122.783 118.058 118.191 113.466 112.527 113.466C106.863 113.466 102.271 118.058 102.271 123.722C102.271 129.386 106.863 133.978 112.527 133.978Z" fill="#1058FB"/>
<path opacity="0.5" d="M112.527 133.978C118.191 133.978 122.783 129.386 122.783 123.722C122.783 118.058 118.191 113.466 112.527 113.466C106.863 113.466 102.271 118.058 102.271 123.722C102.271 129.386 106.863 133.978 112.527 133.978Z" fill="white"/>
<path opacity="0.5" d="M109.666 127.412C104.781 123.876 104.379 116.918 108.178 114.419C106.509 115.194 105.08 116.404 104.04 117.921C102.999 119.439 102.386 121.208 102.264 123.043C102.142 124.879 102.516 126.714 103.346 128.355C104.177 129.997 105.433 131.385 106.984 132.375C108.535 133.364 110.324 133.918 112.163 133.979C114.001 134.04 115.823 133.606 117.436 132.721C119.049 131.837 120.394 130.535 121.332 128.951C122.269 127.368 122.763 125.562 122.763 123.723C122.396 128.652 114.565 130.953 109.666 127.412Z" fill="#1058FB"/>
<path d="M79.0219 112.781C81.2385 113.03 83.3314 113.932 85.0357 115.371C86.74 116.81 87.9791 118.722 88.596 120.865C89.213 123.009 89.1802 125.287 88.5018 127.412C87.8233 129.537 86.5297 131.413 84.7846 132.802C83.0396 134.192 80.9216 135.032 78.6988 135.217C76.4759 135.402 74.2481 134.924 72.2973 133.842C70.3465 132.761 68.7604 131.125 67.7398 129.141C66.7193 127.158 66.3101 124.916 66.564 122.7C66.9039 119.734 68.4064 117.024 70.7419 115.165C73.0775 113.305 76.0552 112.448 79.0219 112.781Z" fill="#1058FB"/>
<path opacity="0.7" d="M79.0219 112.781C81.2385 113.03 83.3314 113.932 85.0357 115.371C86.74 116.81 87.9791 118.722 88.596 120.865C89.213 123.009 89.1802 125.287 88.5018 127.412C87.8233 129.537 86.5297 131.413 84.7846 132.802C83.0396 134.192 80.9216 135.032 78.6988 135.217C76.4759 135.402 74.2481 134.924 72.2973 133.842C70.3465 132.761 68.7604 131.125 67.7398 129.141C66.7193 127.158 66.3101 124.916 66.564 122.7C66.9039 119.734 68.4064 117.024 70.7419 115.165C73.0775 113.305 76.0552 112.448 79.0219 112.781Z" fill="white"/>
<path opacity="0.2" d="M81.437 127.576C76.9736 132.476 69.3362 132.039 67.0549 127.576C67.6997 129.488 68.846 131.192 70.3743 132.509C71.9025 133.827 73.7566 134.71 75.7427 135.066C77.7289 135.423 79.7743 135.239 81.6652 134.535C83.5561 133.83 85.2231 132.631 86.4922 131.062C87.7612 129.493 88.5857 127.612 88.8795 125.616C89.1732 123.62 88.9255 121.581 88.1622 119.713C87.3988 117.845 86.1479 116.217 84.54 114.998C82.9322 113.778 81.0264 113.013 79.0218 112.782C84.3729 113.834 85.9004 122.701 81.437 127.576Z" fill="#1058FB"/>
<path d="M82.3297 131.175L88.4297 123.047C88.7322 122.681 89.1178 122.393 89.5544 122.207C89.9909 122.02 90.4657 121.941 90.9391 121.976L100.362 122.705C100.829 122.787 101.27 122.978 101.65 123.263C102.03 123.547 102.338 123.916 102.549 124.341L106.516 133.685C106.68 134.131 106.735 134.609 106.678 135.08C106.621 135.552 106.454 136.003 106.189 136.397L100.114 144.521C99.8087 144.885 99.4221 145.172 98.9853 145.359C98.5484 145.546 98.0737 145.628 97.5995 145.597L88.1768 144.863C87.7102 144.78 87.2695 144.589 86.8904 144.305C86.5114 144.021 86.2045 143.651 85.9947 143.226L82.0272 133.883C81.8623 133.439 81.8038 132.963 81.8564 132.493C81.9089 132.023 82.071 131.571 82.3297 131.175Z" fill="#1058FB"/>
<g opacity="0.15">
<path opacity="0.15" d="M82.3297 131.175L88.4297 123.047C88.7322 122.681 89.1178 122.393 89.5544 122.207C89.9909 122.02 90.4657 121.941 90.9391 121.976L100.362 122.705C100.829 122.787 101.27 122.978 101.65 123.263C102.03 123.547 102.338 123.916 102.549 124.341L106.516 133.685C106.68 134.131 106.735 134.609 106.678 135.08C106.621 135.552 106.454 136.003 106.189 136.397L100.114 144.521C99.8087 144.885 99.4221 145.172 98.9853 145.359C98.5484 145.546 98.0737 145.628 97.5995 145.597L88.1768 144.863C87.7102 144.78 87.2695 144.589 86.8904 144.305C86.5114 144.021 86.2045 143.651 85.9947 143.226L82.0272 133.883C81.8623 133.439 81.8038 132.963 81.8564 132.493C81.9089 132.023 82.071 131.571 82.3297 131.175Z" fill="black"/>
</g>
<path opacity="0.15" d="M86.0096 143.232C86.2195 143.657 86.5263 144.027 86.9054 144.311C87.2845 144.595 87.7251 144.786 88.1917 144.869L97.6145 145.603C98.0448 145.628 98.4757 145.563 98.879 145.411C99.2824 145.259 99.6491 145.023 99.9553 144.72C99.4593 145.216 98.8692 145.057 98.5617 144.338L94.5942 134.995C94.4245 134.551 94.3699 134.072 94.4355 133.601L81.8983 132.49C81.8327 132.962 81.8873 133.443 82.057 133.889L86.0096 143.232Z" fill="black"/>
<path d="M102.455 124.128C102.093 123.523 101.463 123.513 101.002 124.128L94.9015 132.256C94.5679 132.755 94.3949 133.343 94.4056 133.943C94.3981 133.82 94.3981 133.698 94.4056 133.576L81.8684 132.465C81.9188 131.99 82.0895 131.536 82.3643 131.145L88.4594 123.022C88.7642 122.658 89.1509 122.37 89.5878 122.183C90.0247 121.996 90.4995 121.915 90.9737 121.946L100.396 122.675C100.824 122.755 101.229 122.927 101.584 123.177C101.939 123.428 102.236 123.752 102.455 124.128Z" fill="#1058FB"/>
<path d="M39.6448 113.941V158.605L86.9172 185.896V141.312L39.6448 113.941Z" fill="#263238"/>
<path d="M39.6449 113.942L24.6033 134.955L71.8806 162.326L86.9173 141.313L39.6449 113.942Z" fill="#455A64"/>
<path opacity="0.2" d="M24.603 134.954L71.6175 161.085L86.9171 141.312L71.8804 162.325L24.603 134.954Z" fill="white"/>
<path d="M134.195 113.941L134.19 158.605L86.9172 185.896V141.312" fill="#37474F"/>
<path d="M86.9172 141.312L87.8496 184.195L122.183 165.538L86.9172 185.896V141.312Z" fill="#455A64"/>
<path d="M134.195 113.941L149.236 134.954L101.959 162.325L86.9172 141.312L134.195 113.941Z" fill="#455A64"/>
<g opacity="0.8">
<path opacity="0.8" d="M99.6079 174.183C99.5408 174.183 99.4765 174.156 99.4291 174.109C99.3816 174.061 99.355 173.997 99.355 173.93V168.276C99.3665 168.219 99.3975 168.168 99.4427 168.13C99.4879 168.093 99.5445 168.073 99.6029 168.073C99.6614 168.073 99.718 168.093 99.7632 168.13C99.8084 168.168 99.8394 168.219 99.8509 168.276V173.93C99.851 173.995 99.8257 174.058 99.7804 174.105C99.7351 174.153 99.6733 174.18 99.6079 174.183Z" fill="#E0E0E0"/>
<path opacity="0.8" d="M98.869 170.235C98.8271 170.236 98.7858 170.226 98.7488 170.206C98.7119 170.186 98.6806 170.157 98.6578 170.122C98.635 170.087 98.6215 170.047 98.6185 170.005C98.6156 169.963 98.6233 169.921 98.6409 169.883L99.5385 167.83L100.53 168.986C100.574 169.036 100.597 169.102 100.592 169.169C100.587 169.236 100.556 169.299 100.506 169.343C100.455 169.387 100.389 169.409 100.322 169.404C100.255 169.4 100.193 169.369 100.148 169.318L99.6526 168.767L99.0723 170.106C99.0522 170.143 99.0229 170.175 98.9874 170.197C98.9518 170.22 98.911 170.233 98.869 170.235Z" fill="#E0E0E0"/>
<path opacity="0.8" d="M101.944 172.854C101.877 172.854 101.812 172.827 101.765 172.78C101.718 172.732 101.691 172.668 101.691 172.601V166.947C101.702 166.89 101.733 166.838 101.779 166.801C101.824 166.764 101.88 166.744 101.939 166.744C101.997 166.744 102.054 166.764 102.099 166.801C102.144 166.838 102.175 166.89 102.187 166.947V172.601C102.187 172.666 102.162 172.729 102.116 172.776C102.071 172.823 102.009 172.851 101.944 172.854Z" fill="#E0E0E0"/>
<path opacity="0.8" d="M101.205 168.906C101.172 168.914 101.138 168.914 101.106 168.906C101.075 168.893 101.047 168.874 101.024 168.851C101.001 168.827 100.982 168.799 100.97 168.768C100.957 168.737 100.951 168.704 100.951 168.671C100.952 168.637 100.959 168.605 100.972 168.574L101.869 166.501L102.861 167.656C102.909 167.704 102.935 167.768 102.935 167.835C102.935 167.902 102.909 167.966 102.861 168.014C102.81 168.056 102.744 168.078 102.678 168.073C102.611 168.069 102.549 168.038 102.504 167.989L102.008 167.438L101.433 168.772C101.411 168.814 101.378 168.848 101.338 168.871C101.298 168.895 101.252 168.907 101.205 168.906Z" fill="#E0E0E0"/>
</g>
<g opacity="0.8">
<path opacity="0.8" d="M92.8831 178.02C92.7862 178.02 92.6908 177.996 92.6053 177.951C92.5061 177.885 92.4259 177.795 92.3727 177.689C92.3196 177.582 92.2955 177.464 92.3028 177.346V176.651C92.2954 176.615 92.2963 176.577 92.3053 176.54C92.3144 176.504 92.3314 176.47 92.3551 176.441C92.3788 176.412 92.4087 176.389 92.4425 176.373C92.4764 176.357 92.5133 176.348 92.5508 176.348C92.5882 176.348 92.6252 176.357 92.659 176.373C92.6929 176.389 92.7227 176.412 92.7465 176.441C92.7702 176.47 92.7872 176.504 92.7962 176.54C92.8053 176.577 92.8061 176.615 92.7987 176.651V177.346C92.7987 177.445 92.8285 177.499 92.8483 177.509C92.8682 177.519 92.9227 177.509 93.012 177.47C93.1676 177.324 93.2901 177.147 93.3714 176.95C93.4527 176.754 93.4908 176.542 93.4831 176.329V173.433C93.4758 173.396 93.4766 173.358 93.4857 173.322C93.4947 173.285 93.5117 173.252 93.5354 173.223C93.5591 173.194 93.589 173.17 93.6228 173.154C93.6567 173.138 93.6937 173.13 93.7311 173.13C93.7685 173.13 93.8055 173.138 93.8394 173.154C93.8732 173.17 93.903 173.194 93.9268 173.223C93.9505 173.252 93.9675 173.285 93.9765 173.322C93.9856 173.358 93.9864 173.396 93.9791 173.433V176.329C93.9911 176.629 93.9328 176.927 93.8088 177.2C93.6848 177.473 93.4985 177.713 93.2649 177.901C93.1499 177.973 93.0184 178.014 92.8831 178.02Z" fill="#E0E0E0"/>
<path opacity="0.8" d="M90.2249 175.69V175.268C90.2864 174.149 90.6107 173.059 91.1716 172.088C91.7325 171.117 92.5142 170.292 93.4534 169.679C94.3609 169.153 95.2338 169.074 95.8983 169.461C96.5629 169.848 96.9299 170.636 96.9299 171.688V171.797L90.2249 175.69ZM94.961 169.709C94.516 169.729 94.0837 169.864 93.7063 170.101C92.9051 170.626 92.2266 171.318 91.7174 172.129C91.2081 172.94 90.88 173.852 90.7555 174.802L96.424 171.529C96.4454 171.211 96.385 170.893 96.2488 170.605C96.1125 170.316 95.9048 170.068 95.6454 169.882C95.4363 169.766 95.2004 169.706 94.961 169.709Z" fill="#E0E0E0"/>
</g>
<path d="M164.327 63.088L158.738 59.8793L168.161 45.9237L162.919 36.501C162.919 36.501 151.686 52.47 149.42 58.1584C148.096 61.4861 148.582 62.7061 150.65 64.5559C151.994 65.761 158.758 69.8227 164.164 71.1221" fill="#F28F8F"/>
<path d="M175.099 29.6525C173.308 29.2586 171.448 29.3131 169.683 29.8111C167.095 30.6642 165.632 31.5568 162.983 35.2962C160.404 38.9413 155.693 46.3456 155.693 46.3456C156.587 47.9158 157.803 49.2785 159.263 50.3437C160.722 51.409 162.391 52.1524 164.159 52.5249L172.902 39.4323L175.099 29.6525Z" fill="#37474F"/>
<path d="M173.641 153.28L167.71 153.483L167.412 142.732L173.641 142.528V153.28Z" fill="#FFA8A7"/>
<path d="M167.631 151.653C167.323 151.653 167.075 152.099 166.396 152.833C165.386 153.857 164.212 154.705 162.924 155.343C160.702 156.459 156.378 158.17 154.424 159.048C153.204 159.598 153.258 161.076 154.523 161.914C155.788 162.752 158.833 163.362 162.493 162.544C164.476 162.097 167.085 160.253 168.727 160.352C170.368 160.451 173.448 160.431 174.678 159.593C175.908 158.755 175.407 156.97 175.065 155.437C174.688 153.761 174.221 151.152 173.666 151.266V151.842C172.952 152.923 169.272 153.364 167.715 152.571L167.631 151.653Z" fill="#263238"/>
<path d="M190.066 150.722H184.13V160.883H190.066V150.722Z" fill="#FFA8A7"/>
<path d="M184.13 157.952V157.104C183.56 157.347 182.241 162.385 179.89 164.543C178.015 166.249 175.461 168.222 174.812 170.122C174.137 172.106 178.368 173.197 180.118 172.889C182.151 172.527 185.673 171.094 186.565 169.77C187.458 168.446 187.865 166.487 188.584 165.515C189.303 164.543 190.959 163.456 191.346 162.331C191.559 161.716 191.306 160.347 191.004 159.216C190.731 158.165 190.434 157.014 190.077 157.113C190.077 157.237 190.077 157.758 190.077 157.758C189.645 158.254 188.45 158.71 187.101 158.75C186.228 158.785 184.12 158.611 184.13 157.952Z" fill="#263238"/>
<path d="M192.591 74.8585C192.591 80.527 191.599 113.487 191.599 113.487C191.738 115.118 193.31 118.02 193.429 123.901C193.607 132.422 190.329 155.81 190.329 155.81C189.304 156.314 188.181 156.587 187.038 156.609C185.896 156.632 184.763 156.403 183.719 155.939C183.719 155.939 181.031 124.234 179.964 115.803C179.037 108.448 177.46 88.457 177.46 88.457L174.668 112.48C175.355 115.571 175.602 118.743 175.402 121.903C175.124 125.806 174.028 149.953 174.028 149.953C174.028 149.953 171.236 151.847 167.174 150.478C167.174 150.478 162.988 116.051 162.919 112.475C162.84 108.394 164.471 66.75 164.471 66.75L192.591 74.8585Z" fill="#455A64"/>
<path opacity="0.2" d="M177.45 88.4462C177.45 88.4462 172.709 87.1072 169.188 83.7051C169.188 83.7051 170.785 86.6807 175.526 89.4678L174.891 110.446L177.45 88.4462Z" fill="black"/>
<path d="M188.693 33.1656C189.999 33.7443 191.027 34.8128 191.554 36.1412C192.165 37.7823 192.461 39.5236 192.427 41.2741V52.8988L192.596 74.8587C184.081 79.3469 173.254 79.6495 164.164 73.0139C164.164 73.0139 164.66 44.7457 164.66 40.1285C164.66 39.9153 164.66 39.707 164.66 39.4937C164.992 32.8879 171.494 28.3551 177.896 30.0016L183.272 31.3852L188.673 33.1656H188.693Z" fill="#F0F0F0"/>
<path d="M168.126 65.267L164.337 63.0898L164.159 71.124C164.809 71.2777 165.453 71.4166 166.103 71.5356C172.158 72.6465 179.235 71.6943 181.477 68.0641C183.719 64.4338 168.126 65.267 168.126 65.267Z" fill="#F28F8F"/>
<path d="M179.223 17.3058C182.409 14.1198 182.409 8.9544 179.223 5.76846C176.037 2.58252 170.872 2.58253 167.686 5.76846C164.5 8.9544 164.5 14.1198 167.686 17.3058C170.872 20.4917 176.037 20.4917 179.223 17.3058Z" fill="#263238"/>
<path d="M187.552 17.335C187.552 17.335 186.233 23.544 185.702 24.5657C185.349 25.1954 184.766 25.6644 184.076 25.8749L184.17 21.5107L187.552 17.335Z" fill="#263238"/>
<path d="M185.896 8.44338C186.358 8.38967 186.826 8.44168 187.265 8.59546C187.704 8.74925 188.102 9.0008 188.43 9.3311C189.516 10.447 188.926 13.9284 187.552 17.3355L185.073 17.6231L185.896 8.44338Z" fill="#263238"/>
<path d="M184.319 17.6222C184.815 17.9247 185.529 16.9626 186.144 16.3179C186.759 15.6732 188.767 14.7954 189.774 16.908C190.781 19.0207 188.886 21.907 187.294 22.403C184.567 23.256 184.16 21.5103 184.16 21.5103L183.957 31.6472C180.569 35.9916 171.162 35.6146 175.079 31.0818V28.1062C175.079 28.1062 172.6 28.4782 171.4 28.2947C169.416 27.9822 168.136 26.4002 167.526 24.233C166.534 20.7614 166.177 17.9297 167.006 11.0709C167.913 3.55751 176.656 3.47816 181.388 6.4488C186.119 9.41944 184.319 17.6222 184.319 17.6222Z" fill="#FFA8A7"/>
<path d="M176.404 19.4128H175.972C175.584 19.4024 175.201 19.3111 174.85 19.1448C174.499 18.9784 174.186 18.7407 173.932 18.4467C173.677 18.1527 173.487 17.809 173.373 17.4374C173.259 17.0658 173.224 16.6745 173.269 16.2884C173.372 15.5762 173.736 14.9278 174.291 14.4694C174.846 14.011 175.551 13.7755 176.27 13.8088H176.404C177.12 13.815 177.809 14.0858 178.338 14.5691C178.867 15.0525 179.199 15.7142 179.27 16.4273C179.297 16.8161 179.241 17.2061 179.108 17.5723C178.975 17.9385 178.767 18.2729 178.497 18.554C178.227 18.8351 177.902 19.0566 177.541 19.2045C177.181 19.3524 176.793 19.4234 176.404 19.4128ZM176.106 14.2849C175.761 14.2758 175.418 14.3437 175.103 14.4835C174.788 14.6233 174.507 14.8315 174.282 15.0931C174.057 15.3547 173.893 15.6631 173.802 15.996C173.711 16.3288 173.695 16.6777 173.755 17.0174C173.862 17.553 174.149 18.0357 174.569 18.385C174.989 18.7343 175.515 18.9291 176.061 18.9367H176.319C176.867 18.9614 177.407 18.7962 177.847 18.4691C178.287 18.142 178.6 17.6731 178.735 17.1414C178.811 16.8079 178.814 16.4614 178.741 16.1269C178.669 15.7923 178.524 15.4779 178.316 15.206C178.108 14.9341 177.842 14.7114 177.538 14.5539C177.234 14.3964 176.899 14.3079 176.557 14.2948L176.106 14.2849Z" fill="#263238"/>
<path d="M168.369 19.1898H167.938C167.551 19.1785 167.17 19.087 166.82 18.921C166.469 18.755 166.157 18.5182 165.903 18.2255C165.649 17.9328 165.459 17.5906 165.344 17.2205C165.229 16.8504 165.192 16.4605 165.235 16.0753C165.339 15.3636 165.703 14.7158 166.258 14.2577C166.812 13.7995 167.517 13.5636 168.236 13.5957H168.374C169.09 13.6008 169.778 13.8707 170.307 14.3533C170.835 14.8359 171.166 15.497 171.236 16.2092C171.261 16.5974 171.205 16.9866 171.071 17.3519C170.937 17.7171 170.729 18.0506 170.459 18.331C170.19 18.6113 169.865 18.8325 169.505 18.9804C169.145 19.1282 168.758 19.1995 168.369 19.1898ZM168.077 14.0569C167.732 14.048 167.389 14.1159 167.073 14.2557C166.758 14.3955 166.477 14.6036 166.252 14.8651C166.026 15.1265 165.862 15.4348 165.77 15.7676C165.678 16.1004 165.662 16.4495 165.721 16.7895C165.828 17.3267 166.117 17.8107 166.539 18.1601C166.96 18.5096 167.489 18.7034 168.037 18.7087H168.295C168.842 18.7327 169.38 18.5679 169.82 18.2419C170.26 17.916 170.574 17.4487 170.71 16.9184C170.784 16.5843 170.783 16.2379 170.708 15.9041C170.632 15.5703 170.484 15.2572 170.274 14.9872C170.064 14.7172 169.796 14.4969 169.491 14.3421C169.186 14.1873 168.85 14.1018 168.508 14.0916L168.077 14.0569Z" fill="#263238"/>
<path d="M173.547 15.6834C173.207 15.389 172.78 15.2147 172.332 15.1875C172.095 15.1526 171.853 15.1754 171.627 15.254C171.401 15.3325 171.197 15.4646 171.033 15.6388L170.666 15.3462C170.876 15.109 171.142 14.9275 171.44 14.8176C171.737 14.7078 172.057 14.673 172.372 14.7164C172.92 14.7496 173.443 14.9622 173.859 15.3214C173.993 15.4503 173.646 15.7777 173.547 15.6834Z" fill="#263238"/>
<path d="M179.039 16.1159L179.026 16.5869L184.975 16.7448L184.988 16.2738L179.039 16.1159Z" fill="#263238"/>
<path d="M184.319 18.4659C184.567 18.4659 185.524 16.8839 186.144 16.3185C187.007 15.5349 185.896 8.44307 185.896 8.44307C185.896 8.44307 186.724 6.67755 185.063 4.85251C183.882 3.55317 182.583 2.73488 179.201 2.55138C176.225 2.39269 173.061 3.33 170.15 2.60098C169.464 2.38488 168.747 2.28268 168.027 2.29846C167.668 2.30896 167.317 2.40877 167.007 2.58887C166.696 2.76898 166.435 3.02369 166.247 3.33C166.106 3.61033 166.05 3.92557 166.085 4.2373C166.12 4.54902 166.245 4.84377 166.445 5.0856C166.076 5.00623 165.691 5.07365 165.37 5.2736C165.05 5.47355 164.82 5.79032 164.729 6.15682C164.663 6.53521 164.716 6.92478 164.88 7.27199C165.045 7.6192 165.312 7.90703 165.647 8.09592C166.297 8.48771 166.822 8.27942 167.502 8.35877C167.905 8.46048 168.295 8.61034 168.662 8.8051C169.812 9.20855 171.006 9.47327 172.218 9.59364C175.412 9.98047 180.386 9.51429 181.065 9.42502C181.993 9.29608 182.191 10.1937 182.692 12.6486C183.109 14.8009 183.5 18.451 184.319 18.4659Z" fill="#263238"/>
<path d="M185.891 8.99317L188.906 7.37146C188.81 7.16861 188.673 6.9874 188.505 6.83878C188.337 6.69015 188.14 6.5772 187.927 6.50674C187.714 6.43628 187.488 6.40979 187.265 6.42885C187.041 6.44791 186.823 6.51214 186.625 6.61765C186.22 6.84234 185.917 7.21504 185.78 7.65778C185.643 8.10053 185.683 8.57902 185.891 8.99317Z" fill="#263238"/>
<path d="M175.099 28.091C175.099 28.091 179.563 27.1884 181.14 26.3552C182.059 25.8757 182.812 25.131 183.302 24.2178C183.065 25.1331 182.647 25.9915 182.072 26.7421C180.927 28.2051 175.099 29.2813 175.099 29.2813V28.091Z" fill="#F28F8F"/>
<path d="M175.317 16.5065C175.323 16.6829 175.381 16.8536 175.483 16.9973C175.586 17.1411 175.728 17.2515 175.893 17.3147C176.058 17.378 176.237 17.3913 176.41 17.353C176.582 17.3146 176.739 17.2264 176.861 17.0992C176.984 16.9721 177.066 16.8117 177.098 16.6382C177.129 16.4646 177.109 16.2855 177.04 16.1233C176.97 15.9611 176.854 15.823 176.707 15.7262C176.559 15.6294 176.387 15.5782 176.21 15.5791C175.97 15.5869 175.742 15.6881 175.575 15.8614C175.408 16.0346 175.316 16.2661 175.317 16.5065Z" fill="#263238"/>
<path d="M176.265 13.0997L178.184 14.156C178.321 13.8929 178.351 13.5873 178.267 13.3027C178.184 13.0181 177.994 12.7766 177.738 12.6285C177.611 12.5597 177.471 12.5172 177.327 12.5037C177.183 12.4902 177.038 12.5059 176.901 12.5499C176.763 12.594 176.636 12.6653 176.526 12.7598C176.417 12.8543 176.328 12.9699 176.265 13.0997Z" fill="#263238"/>
<path d="M175.501 22.7012L173.453 23.4699C173.497 23.6076 173.569 23.7349 173.664 23.8442C173.759 23.9535 173.875 24.0425 174.005 24.1059C174.135 24.1694 174.277 24.2059 174.421 24.2133C174.566 24.2208 174.71 24.199 174.846 24.1493C175.121 24.0395 175.343 23.8272 175.465 23.5572C175.588 23.2872 175.6 22.9804 175.501 22.7012Z" fill="#F28F8F"/>
<path d="M167.576 13.8635L169.327 12.5195C169.244 12.4011 169.139 12.3007 169.017 12.2244C168.894 12.1481 168.758 12.0975 168.615 12.0757C168.473 12.0539 168.328 12.0613 168.188 12.0975C168.049 12.1338 167.918 12.198 167.804 12.2864C167.571 12.4697 167.417 12.7357 167.375 13.0293C167.332 13.3229 167.404 13.6216 167.576 13.8635Z" fill="#263238"/>
<path d="M168.126 16.2488C168.133 16.4247 168.192 16.5947 168.294 16.7377C168.397 16.8806 168.539 16.9903 168.704 17.0529C168.868 17.1156 169.048 17.1285 169.22 17.09C169.391 17.0515 169.548 16.9634 169.67 16.8366C169.792 16.7098 169.874 16.5499 169.906 16.3768C169.938 16.2037 169.918 16.025 169.85 15.863C169.781 15.701 169.666 15.5628 169.519 15.4656C169.372 15.3684 169.2 15.3165 169.024 15.3164C168.904 15.3183 168.785 15.344 168.675 15.392C168.565 15.44 168.465 15.5093 168.381 15.5959C168.298 15.6826 168.232 15.7848 168.189 15.8969C168.145 16.0089 168.124 16.1285 168.126 16.2488Z" fill="#263238"/>
<path d="M172.798 15.7676L172.5 21.1633L169.684 20.2012L172.798 15.7676Z" fill="#F28F8F"/>
<path d="M162.909 64.7253C165.508 64.7253 167.615 62.6182 167.615 60.0189C167.615 57.4196 165.508 55.3125 162.909 55.3125C160.31 55.3125 158.202 57.4196 158.202 60.0189C158.202 62.6182 160.31 64.7253 162.909 64.7253Z" fill="#1058FB"/>
<path opacity="0.4" d="M162.909 64.7253C165.508 64.7253 167.615 62.6182 167.615 60.0189C167.615 57.4196 165.508 55.3125 162.909 55.3125C160.31 55.3125 158.202 57.4196 158.202 60.0189C158.202 62.6182 160.31 64.7253 162.909 64.7253Z" fill="black"/>
<path d="M175.094 40.5383L168.954 35.5443C168.655 35.3269 168.309 35.183 167.943 35.1244C167.578 35.0659 167.204 35.0941 166.852 35.207L159.884 37.5329C159.546 37.683 159.248 37.9108 159.014 38.1978C158.78 38.4847 158.618 38.8228 158.54 39.1844L157.285 46.9954C157.247 47.3624 157.296 47.7332 157.428 48.0778C157.559 48.4224 157.771 48.7312 158.044 48.9791L164.183 53.9731C164.483 54.1895 164.83 54.3326 165.195 54.3912C165.56 54.4497 165.934 54.4221 166.286 54.3104L173.229 51.9844C173.567 51.8337 173.865 51.6057 174.098 51.3188C174.331 51.032 174.494 50.6943 174.573 50.333L175.828 42.522C175.869 42.157 175.824 41.7874 175.697 41.4429C175.569 41.0984 175.363 40.7886 175.094 40.5383Z" fill="#1058FB"/>
<path opacity="0.15" d="M175.094 40.5383L168.954 35.5443C168.655 35.3269 168.309 35.183 167.943 35.1244C167.578 35.0659 167.204 35.0941 166.852 35.207L159.884 37.5329C159.546 37.683 159.248 37.9108 159.014 38.1978C158.78 38.4847 158.618 38.8228 158.54 39.1844L157.285 46.9954C157.247 47.3624 157.296 47.7332 157.428 48.0778C157.559 48.4224 157.771 48.7312 158.044 48.9791L164.183 53.9731C164.483 54.1895 164.83 54.3326 165.195 54.3912C165.56 54.4497 165.934 54.4221 166.286 54.3104L173.229 51.9844C173.567 51.8337 173.865 51.6057 174.098 51.3188C174.331 51.032 174.494 50.6943 174.573 50.333L175.828 42.522C175.869 42.157 175.824 41.7874 175.697 41.4429C175.569 41.0984 175.363 40.7886 175.094 40.5383Z" fill="black"/>
<path d="M158.57 39.0065C158.728 38.4808 159.194 38.3518 159.671 38.7436L165.815 43.7377C166.164 44.0489 166.409 44.4588 166.519 44.913C166.495 44.8238 166.465 44.7295 166.43 44.6403L175.694 41.4415C175.57 41.0914 175.358 40.7789 175.079 40.5339L168.94 35.5448C168.642 35.3264 168.296 35.1819 167.931 35.1233C167.567 35.0647 167.193 35.0936 166.842 35.2076L159.869 37.5286C159.559 37.6672 159.282 37.871 159.058 38.126C158.834 38.381 158.667 38.6813 158.57 39.0065Z" fill="#1058FB"/>
<path opacity="0.2" d="M174.598 50.3385C174.519 50.6998 174.356 51.0375 174.123 51.3243C173.889 51.6112 173.592 51.8392 173.254 51.9899L166.311 54.3158C165.991 54.4174 165.653 54.45 165.32 54.4115C164.987 54.373 164.665 54.2644 164.377 54.0927C164.838 54.3555 165.26 54.1373 165.369 53.5372L166.624 45.7263C166.672 45.3583 166.624 44.9842 166.485 44.6402L175.749 41.4414C175.889 41.785 175.939 42.1591 175.893 42.5275L174.598 50.3385Z" fill="black"/>
<path d="M163.706 60.5883C167.108 57.0505 166.998 51.4245 163.46 48.0224C159.922 44.6202 154.296 44.7302 150.894 48.268C147.492 51.8059 147.602 57.4318 151.14 60.8339C154.677 64.2361 160.303 64.1261 163.706 60.5883Z" fill="#1058FB"/>
<path opacity="0.7" d="M163.706 60.5883C167.108 57.0505 166.998 51.4245 163.46 48.0224C159.922 44.6202 154.296 44.7302 150.894 48.268C147.492 51.8059 147.602 57.4318 151.14 60.8339C154.677 64.2361 160.303 64.1261 163.706 60.5883Z" fill="white"/>
<path opacity="0.2" d="M160.479 56.9291C163.841 52.9269 162.711 47.0104 158.991 45.7012C160.556 46.0005 162.013 46.7153 163.207 47.7707C164.401 48.826 165.29 50.1831 165.779 51.6998C166.269 53.2165 166.342 54.8369 165.99 56.3914C165.638 57.9458 164.875 59.3771 163.78 60.5353C162.685 61.6934 161.299 62.5359 159.767 62.9743C158.235 63.4128 156.613 63.4311 155.071 63.0274C153.529 62.6238 152.124 61.8129 151.003 60.6798C149.883 59.5467 149.087 58.133 148.7 56.5869C150.049 60.6585 157.116 60.9313 160.479 56.9291Z" fill="#1058FB"/>
<path d="M182.642 59.5484L180.415 51.3209C180.291 50.943 180.079 50.5998 179.798 50.3189C179.516 50.038 179.172 49.8274 178.794 49.7042L171.236 47.3534C170.846 47.272 170.443 47.2834 170.059 47.3868C169.674 47.4902 169.32 47.6827 169.024 47.9485L163.013 53.989C162.748 54.2863 162.557 54.6421 162.455 55.0273C162.353 55.4125 162.344 55.8164 162.428 56.2058L164.655 64.4334C164.78 64.8116 164.992 65.155 165.275 65.4359C165.558 65.7167 165.902 65.9272 166.281 66.0501L173.834 68.4008C174.224 68.4827 174.627 68.4714 175.012 68.368C175.396 68.2646 175.75 68.072 176.046 67.8057L182.062 61.7653C182.326 61.4675 182.517 61.1115 182.617 60.7263C182.718 60.3411 182.727 59.9375 182.642 59.5484Z" fill="#1058FB"/>
<path opacity="0.2" d="M176.061 67.8055C175.765 68.0717 175.411 68.2644 175.026 68.3678C174.642 68.4712 174.239 68.4825 173.849 68.4006L166.296 66.0499C165.953 65.9363 165.637 65.7518 165.37 65.5083C165.102 65.2648 164.889 64.9678 164.744 64.6365C164.982 65.1622 165.488 65.2316 165.949 64.7704L171.94 58.725C172.213 58.4338 172.406 58.0767 172.5 57.6885L182.612 60.7087C182.518 61.0956 182.327 61.4522 182.057 61.7452L176.061 67.8055Z" fill="black"/>
<path d="M169.163 47.8149C169.659 47.4529 170.12 47.6364 170.294 48.2761L172.52 56.5086C172.634 57.0059 172.588 57.5261 172.391 57.9964C172.433 57.9018 172.466 57.804 172.491 57.7038L182.603 60.7092C182.711 60.3244 182.721 59.9186 182.632 59.5289L180.406 51.3013C180.282 50.9231 180.071 50.5795 179.789 50.2985C179.507 50.0175 179.163 49.8072 178.784 49.6846L171.226 47.319C170.867 47.2486 170.496 47.2565 170.14 47.3421C169.784 47.4277 169.451 47.5889 169.163 47.8149Z" fill="#1058FB"/>
<path opacity="0.5" d="M169.163 47.8149C169.659 47.4529 170.12 47.6364 170.294 48.2761L172.52 56.5086C172.634 57.0059 172.588 57.5261 172.391 57.9964C172.433 57.9018 172.466 57.804 172.491 57.7038L182.603 60.7092C182.711 60.3244 182.721 59.9186 182.632 59.5289L180.406 51.3013C180.282 50.9231 180.071 50.5795 179.789 50.2985C179.507 50.0175 179.163 49.8072 178.784 49.6846L171.226 47.319C170.867 47.2486 170.496 47.2565 170.14 47.3421C169.784 47.4277 169.451 47.5889 169.163 47.8149Z" fill="white"/>
<path d="M175.674 69.8584C170.723 70.4895 165.732 70.7465 160.742 70.6271C158.475 70.5527 156.254 70.6668 153.863 69.913C147.461 67.8945 147.669 62.6128 148.904 62.4045C149.231 63.0294 149.732 63.4658 151.428 63.5749C153.124 63.6841 155.049 63.1633 154.984 62.4492C154.984 62.1615 153.992 61.3879 153.794 61.1498C153.407 60.7476 153.066 60.3034 152.777 59.8257C152.45 59.2306 151.969 57.9312 152.673 57.4006C153.303 56.9046 153.169 57.0286 154.315 57.956C155.46 58.8834 156.73 59.3645 158.208 60.8027C159.512 62.0673 160.072 62.5632 161.644 63.1881C163.35 63.8675 164.957 63.6841 169.689 62.9104C173.78 62.2558 175.759 61.7945 177.435 61.254C179.543 58.0453 184.185 40.271 186.397 36.5565C187.24 35.1381 188.574 35.2572 189.928 35.9862C191.431 36.8247 192.592 38.1659 193.206 39.7746C193.82 41.3833 193.848 43.1568 193.285 44.784C192.789 46.2718 192.154 48.2258 191.405 50.646C189.422 57.1179 186.967 62.9302 183.471 67.3391C181.774 69.4964 177.966 69.5906 175.674 69.8584Z" fill="#FFA8A7"/>
<path d="M172.471 69.8294C173.685 69.3398 174.751 68.5435 175.565 67.5183C176.25 66.7099 177.628 65.8173 178.372 65.0684C179.116 64.3195 179.463 65.852 178.709 66.9976C177.956 68.1432 176.994 69.7748 178.149 69.5913C179.305 69.4078 183.024 68.3862 184.1 66.5612C184.434 67.0986 184.594 67.7255 184.56 68.3572C184.525 68.9888 184.297 69.5945 183.907 70.0922C182.548 71.9272 179.091 74.5556 165.994 71.4858C165.969 71.4858 170.784 70.5733 172.471 69.8294Z" fill="#F28F8F"/>
<path d="M188.693 33.165C190.82 33.5469 193.652 34.3354 194.431 39.4485C195.209 44.5616 189.471 57.1186 189.471 57.1186C189.471 57.1186 185.663 58.7255 180.118 53.7909C180.118 53.7909 183.753 40.5644 185.053 37.2565C186.352 33.9486 188.693 33.165 188.693 33.165Z" fill="#37474F"/>
</svg>
