<svg width="234" height="210" viewBox="0 0 234 210" fill="none" xmlns="http://www.w3.org/2000/svg">
<path d="M34.2038 192.116C79.8062 215.961 153.747 215.961 199.35 192.116C244.952 168.271 244.952 129.663 199.35 105.839C153.747 82.0149 79.8062 81.9937 34.2038 105.839C-11.3986 129.684 -11.4039 168.297 34.2038 192.116Z" fill="#F5F5F5"/>
<path d="M41.4845 168.711L40.0431 167.879C39.426 167.477 38.9124 166.934 38.5441 166.296C38.1758 165.658 37.9632 164.942 37.9236 164.207V37.8331C37.9628 37.0967 38.1752 36.3799 38.5435 35.7409C38.9118 35.1019 39.4256 34.5588 40.0431 34.1557L98.3312 0.507615C98.9879 0.173921 99.7141 0 100.451 0C101.187 0 101.914 0.173921 102.57 0.507615L104.012 1.33954C104.628 1.74215 105.142 2.28441 105.51 2.9224C105.878 3.56038 106.091 4.27614 106.131 5.01169V131.391C106.091 132.126 105.878 132.842 105.51 133.48C105.142 134.118 104.628 134.66 104.012 135.063L45.7236 168.711C45.0669 169.045 44.3406 169.219 43.604 169.219C42.8674 169.219 42.1412 169.045 41.4845 168.711Z" fill="#37474F"/>
<path d="M46.4493 40.329L38.5433 35.7666C38.163 36.4006 37.9497 37.1208 37.9233 37.8597V164.207C37.963 164.943 38.1756 165.658 38.5439 166.296C38.9121 166.935 39.4257 167.477 40.0429 167.879L41.4842 168.711C42.1409 169.045 42.8671 169.219 43.6038 169.219C44.3404 169.219 45.0666 169.045 45.7233 168.711L46.444 168.298L46.4493 40.329Z" fill="#263238"/>
<path d="M43.6038 41.1126V167.502C43.6038 168.859 44.5523 169.405 45.7233 168.726L104.011 135.078C104.628 134.676 105.142 134.133 105.51 133.495C105.878 132.857 106.091 132.142 106.131 131.406V5.01114C106.131 3.65992 105.182 3.11413 104.011 3.78709L45.7233 37.4405C45.1056 37.8421 44.5915 38.3842 44.2232 39.0224C43.8548 39.6605 43.6426 40.3768 43.6038 41.1126Z" fill="#455A64"/>
<path d="M48.267 49.1045L101.256 18.5033C102.258 17.9257 103.074 18.3973 103.074 19.5631V120.375C103.039 121.005 102.857 121.619 102.541 122.166C102.225 122.713 101.785 123.178 101.256 123.522L48.267 154.118C47.2602 154.701 46.4495 154.23 46.4495 153.058V52.252C46.4824 51.6211 46.6642 51.007 46.9802 50.4599C47.2961 49.9129 47.737 49.4484 48.267 49.1045Z" fill="#FAFAFA"/>
<path d="M74.8671 23.902C75.6514 23.4463 76.2872 23.8173 76.2872 24.7234C76.261 25.2161 76.1186 25.6956 75.8718 26.1229C75.625 26.5502 75.2808 26.9131 74.8671 27.1821C74.0829 27.6378 73.447 27.2669 73.447 26.3607C73.4733 25.868 73.6156 25.3885 73.8624 24.9612C74.1092 24.5339 74.4535 24.171 74.8671 23.902Z" fill="#263238"/>
<path d="M70.7658 30.9922C73.6537 29.4025 78.8043 26.3345 81.6498 24.66C82.132 24.3739 82.5241 24.5699 82.5241 25.0945C82.5031 25.3904 82.4125 25.6771 82.2597 25.9313C82.1068 26.1854 81.896 26.3998 81.6445 26.557L70.7446 32.8521C70.2571 33.133 69.865 32.9369 69.865 32.407C69.8896 32.1159 69.9844 31.8352 70.1413 31.5887C70.2982 31.3423 70.5125 31.1376 70.7658 30.9922Z" fill="#263238"/>
<path d="M68.0106 32.5874C68.4504 32.333 68.8107 32.5397 68.8107 33.0484C68.7951 33.3255 68.7146 33.5951 68.5756 33.8353C68.4366 34.0756 68.2431 34.2797 68.0106 34.4314C67.5708 34.6857 67.2104 34.4791 67.2104 33.9704C67.226 33.6933 67.3066 33.4237 67.4456 33.1834C67.5846 32.9432 67.7781 32.739 68.0106 32.5874Z" fill="#263238"/>
<path d="M74.8676 142.068C76.4572 141.162 77.7131 141.899 77.7131 143.711C77.6599 144.698 77.3745 145.658 76.88 146.513C76.3855 147.369 75.696 148.095 74.8676 148.634C73.2779 149.54 72.0273 148.803 72.0273 146.991C72.0808 146.005 72.3657 145.046 72.8592 144.19C73.3527 143.335 74.0407 142.608 74.8676 142.068Z" fill="#263238"/>
<path d="M54.0566 73.4343L53.7853 73.2772C53.5571 73.1279 53.3671 72.927 53.2307 72.6908C53.0943 72.4545 53.0153 72.1896 53 71.9172V55.4901C53.0153 55.2182 53.0943 54.9538 53.2307 54.7181C53.3672 54.4825 53.5571 54.2823 53.7853 54.1337L107.297 23.1962C107.539 23.073 107.808 23.0088 108.08 23.0088C108.352 23.0088 108.621 23.073 108.864 23.1962L109.135 23.3533C109.364 23.5013 109.554 23.7013 109.691 23.9371C109.827 24.1729 109.906 24.4377 109.92 24.7097V41.1512C109.906 41.4237 109.827 41.689 109.691 41.9253C109.554 42.1617 109.364 42.3624 109.135 42.5112L55.6272 73.4343C55.3838 73.5576 55.1148 73.6218 54.8419 73.6218C54.569 73.6218 54.3 73.5576 54.0566 73.4343Z" fill="#C9D9FF"/>
<path d="M63.8631 54.1841C66.915 52.4243 69.3887 53.795 69.3887 57.2467C69.3887 60.6985 66.9115 64.8999 63.8559 66.6276C60.8004 68.3552 58.3231 66.9845 58.3267 63.5649C58.3302 60.1452 60.8111 55.9474 63.8631 54.1841Z" fill="#3472FF"/>
<path d="M63.9881 64.1184C63.8915 64.1917 63.775 64.234 63.6539 64.2397C63.5329 64.2454 63.4129 64.2143 63.3099 64.1505L60.8826 62.3158C60.5577 62.0695 60.597 61.3948 60.9718 60.8023C61.3466 60.2097 61.9142 59.9313 62.2354 60.1776L63.9274 61.4591L68.6285 51.3608C68.9212 50.729 69.4816 50.2899 69.8814 50.4148C70.2812 50.5398 70.3669 51.1288 70.0706 51.7499L64.702 63.2796C64.5535 63.6112 64.3148 63.8945 64.0131 64.097L63.9881 64.1184Z" fill="white"/>
<path d="M109.913 24.5867C109.859 24.1798 109.531 24.0334 109.135 24.2583L55.6233 55.185C55.3919 55.3282 55.2013 55.5286 55.07 55.7669L53.2317 54.696C53.3632 54.4558 53.5552 54.254 53.7885 54.1106L107.296 23.1874C107.539 23.0642 107.808 23 108.08 23C108.352 23 108.621 23.0642 108.863 23.1874L109.135 23.3445C109.346 23.4831 109.526 23.6659 109.66 23.8804C109.794 24.0948 109.88 24.3358 109.913 24.5867Z" fill="#D8E3FE"/>
<path d="M55.4909 73.4973C55.2622 73.5889 55.0166 73.6309 54.7705 73.6204C54.5243 73.61 54.2832 73.5473 54.0631 73.4366L53.7847 73.2795C53.556 73.1292 53.3659 72.9271 53.2301 72.6895C53.0943 72.452 53.0164 72.1857 53.0029 71.9124V55.4924C53.0106 55.2187 53.0893 54.9518 53.2314 54.7178L55.0697 55.7886C54.9296 56.0237 54.8498 56.2898 54.8377 56.5632V72.9832C54.8377 73.433 55.1233 73.64 55.4909 73.4973Z" fill="#A5C0FF"/>
<path d="M54.0566 96.2644L53.7853 96.1073C53.5571 95.9579 53.3671 95.7571 53.2307 95.5208C53.0943 95.2846 53.0153 95.0197 53 94.7473V78.3202C53.0153 78.0483 53.0943 77.7839 53.2307 77.5482C53.3672 77.3126 53.5571 77.1123 53.7853 76.9637L107.297 46.0263C107.539 45.9031 107.808 45.8389 108.08 45.8389C108.352 45.8389 108.621 45.9031 108.864 46.0263L109.135 46.1834C109.364 46.3313 109.554 46.5314 109.691 46.7672C109.827 47.003 109.906 47.2678 109.92 47.5398V63.9812C109.906 64.2538 109.827 64.519 109.691 64.7554C109.554 64.9918 109.364 65.1925 109.135 65.3412L55.6272 96.2644C55.3838 96.3876 55.1148 96.4519 54.8419 96.4519C54.569 96.4519 54.3 96.3876 54.0566 96.2644Z" fill="#C9D9FF"/>
<path d="M63.8631 77.0132C66.915 75.2534 69.3887 76.6241 69.3887 80.0758C69.3887 83.5276 66.9115 87.729 63.8559 89.4567C60.8004 91.1843 58.3231 89.8136 58.3267 86.394C58.3302 82.9743 60.8111 78.7765 63.8631 77.0132Z" fill="#3472FF"/>
<path d="M63.9881 86.9475C63.8915 87.0208 63.775 87.0631 63.6539 87.0688C63.5329 87.0745 63.4129 87.0434 63.3099 86.9796L60.8826 85.1449C60.5577 84.8986 60.597 84.2239 60.9718 83.6314C61.3466 83.0388 61.9142 82.7604 62.2354 83.0067L63.9274 84.2882L68.6285 74.1899C68.9212 73.5581 69.4816 73.119 69.8814 73.2439C70.2812 73.3689 70.3669 73.9579 70.0706 74.579L64.702 86.1087C64.5535 86.4403 64.3148 86.7236 64.0131 86.9261L63.9881 86.9475Z" fill="white"/>
<path d="M109.913 47.4158C109.859 47.0089 109.531 46.8625 109.135 47.0874L55.6233 78.0141C55.3919 78.1573 55.2013 78.3577 55.07 78.596L53.2317 77.5251C53.3632 77.2849 53.5552 77.0831 53.7885 76.9397L107.296 46.0166C107.539 45.8933 107.808 45.8291 108.08 45.8291C108.352 45.8291 108.621 45.8933 108.863 46.0166L109.135 46.1736C109.346 46.3122 109.526 46.495 109.66 46.7095C109.794 46.9239 109.88 47.1649 109.913 47.4158Z" fill="#D8E3FE"/>
<path d="M55.4909 96.3264C55.2622 96.418 55.0166 96.46 54.7705 96.4495C54.5243 96.4391 54.2832 96.3764 54.0631 96.2657L53.7847 96.1086C53.556 95.9584 53.3659 95.7562 53.2301 95.5186C53.0943 95.2811 53.0164 95.0148 53.0029 94.7415V78.3215C53.0106 78.0478 53.0893 77.7809 53.2314 77.5469L55.0697 78.6177C54.9296 78.8528 54.8498 79.1189 54.8377 79.3923V95.8123C54.8377 96.2621 55.1233 96.4691 55.4909 96.3264Z" fill="#A5C0FF"/>
<path d="M54.0566 119.095L53.7853 118.938C53.5571 118.789 53.3671 118.588 53.2307 118.352C53.0943 118.116 53.0153 117.851 53 117.578V101.151C53.0153 100.879 53.0943 100.615 53.2307 100.379C53.3672 100.144 53.5571 99.9434 53.7853 99.7948L107.297 68.8574C107.539 68.7341 107.808 68.6699 108.08 68.6699C108.352 68.6699 108.621 68.7341 108.864 68.8574L109.135 69.0144C109.364 69.1624 109.554 69.3625 109.691 69.5983C109.827 69.834 109.906 70.0988 109.92 70.3709V86.8123C109.906 87.0848 109.827 87.3501 109.691 87.5865C109.554 87.8228 109.364 88.0235 109.135 88.1723L55.6272 119.095C55.3838 119.219 55.1148 119.283 54.8419 119.283C54.569 119.283 54.3 119.219 54.0566 119.095Z" fill="#C9D9FF"/>
<path d="M63.8631 99.8413C66.915 98.0815 69.3887 99.4522 69.3887 102.904C69.3887 106.356 66.9115 110.557 63.8559 112.285C60.8004 114.012 58.3231 112.642 58.3267 109.222C58.3302 105.802 60.8111 101.605 63.8631 99.8413Z" fill="#3472FF"/>
<path d="M63.9881 109.776C63.8915 109.849 63.775 109.891 63.6539 109.897C63.5329 109.903 63.4129 109.872 63.3099 109.808L60.8826 107.973C60.5577 107.727 60.597 107.052 60.9718 106.46C61.3466 105.867 61.9142 105.589 62.2354 105.835L63.9274 107.116L68.6285 97.018C68.9212 96.3862 69.4816 95.9471 69.8814 96.0721C70.2812 96.197 70.3669 96.786 70.0706 97.4071L64.702 108.937C64.5535 109.268 64.3148 109.552 64.0131 109.754L63.9881 109.776Z" fill="white"/>
<path d="M109.913 70.2439C109.859 69.837 109.531 69.6907 109.135 69.9155L55.6233 100.842C55.3919 100.985 55.2013 101.186 55.07 101.424L53.2317 100.353C53.3632 100.113 53.5552 99.9112 53.7885 99.7678L107.296 68.8447C107.539 68.7214 107.808 68.6572 108.08 68.6572C108.352 68.6572 108.621 68.7214 108.863 68.8447L109.135 69.0017C109.346 69.1403 109.526 69.3232 109.66 69.5376C109.794 69.752 109.88 69.993 109.913 70.2439Z" fill="#D8E3FE"/>
<path d="M55.4909 119.154C55.2622 119.246 55.0166 119.288 54.7705 119.278C54.5243 119.267 54.2832 119.205 54.0631 119.094L53.7847 118.937C53.556 118.786 53.3659 118.584 53.2301 118.347C53.0943 118.109 53.0164 117.843 53.0029 117.57V101.15C53.0106 100.876 53.0893 100.609 53.2314 100.375L55.0697 101.446C54.9296 101.681 54.8498 101.947 54.8377 102.22V118.64C54.8377 119.09 55.1233 119.297 55.4909 119.154Z" fill="#A5C0FF"/>
<path d="M54.0566 141.923L53.7853 141.766C53.5571 141.616 53.3671 141.415 53.2307 141.179C53.0943 140.943 53.0153 140.678 53 140.406V123.978C53.0153 123.707 53.0943 123.442 53.2307 123.206C53.3672 122.971 53.5571 122.771 53.7853 122.622L107.297 91.6845C107.539 91.5613 107.808 91.4971 108.08 91.4971C108.352 91.4971 108.621 91.5613 108.864 91.6845L109.135 91.8416C109.364 91.9895 109.554 92.1896 109.691 92.4254C109.827 92.6612 109.906 92.926 109.92 93.198V109.639C109.906 109.912 109.827 110.177 109.691 110.414C109.554 110.65 109.364 110.851 109.135 110.999L55.6272 141.923C55.3838 142.046 55.1148 142.11 54.8419 142.11C54.569 142.11 54.3 142.046 54.0566 141.923Z" fill="#C9D9FF"/>
<path d="M63.8631 122.67C66.915 120.911 69.3887 122.281 69.3887 125.733C69.3887 129.185 66.9115 133.386 63.8559 135.114C60.8004 136.842 58.3231 135.471 58.3267 132.051C58.3302 128.632 60.8111 124.434 63.8631 122.67Z" fill="#3472FF"/>
<path d="M63.9881 132.605C63.8915 132.678 63.775 132.72 63.6539 132.726C63.5329 132.732 63.4129 132.701 63.3099 132.637L60.8826 130.802C60.5577 130.556 60.597 129.881 60.9718 129.289C61.3466 128.696 61.9142 128.418 62.2354 128.664L63.9274 129.945L68.6285 119.847C68.9212 119.215 69.4816 118.776 69.8814 118.901C70.2812 119.026 70.3669 119.615 70.0706 120.236L64.702 131.766C64.5535 132.098 64.3148 132.381 64.0131 132.583L63.9881 132.605Z" fill="white"/>
<path d="M109.913 93.073C109.859 92.6661 109.531 92.5198 109.135 92.7446L55.6233 123.671C55.3919 123.814 55.2013 124.015 55.07 124.253L53.2317 123.182C53.3632 122.942 53.5552 122.74 53.7885 122.597L107.296 91.6738C107.539 91.5505 107.808 91.4863 108.08 91.4863C108.352 91.4863 108.621 91.5505 108.863 91.6738L109.135 91.8308C109.346 91.9694 109.526 92.1523 109.66 92.3667C109.794 92.5811 109.88 92.8221 109.913 93.073Z" fill="#D8E3FE"/>
<path d="M55.4909 141.983C55.2622 142.074 55.0166 142.116 54.7705 142.106C54.5243 142.095 54.2832 142.033 54.0631 141.922L53.7847 141.765C53.556 141.615 53.3659 141.412 53.2301 141.175C53.0943 140.937 53.0164 140.671 53.0029 140.398V123.978C53.0106 123.704 53.0893 123.437 53.2314 123.203L55.0697 124.274C54.9296 124.509 54.8498 124.775 54.8377 125.049V141.469C54.8377 141.918 55.1233 142.125 55.4909 141.983Z" fill="#A5C0FF"/>
<path d="M127.125 47.5785L122.029 44.7802L121.986 44.7548C119.763 43.5643 116.707 43.7373 113.329 45.5943C106.531 49.3134 101.016 58.3592 101.016 65.7974C101.016 69.5114 102.396 72.1214 104.614 73.3424L109.259 75.8863L110.333 74.1615C111.574 73.901 112.766 73.4618 113.866 72.8591C120.665 69.14 126.18 60.0941 126.18 52.656C126.179 51.651 126.049 50.6499 125.793 49.6746L127.125 47.5785Z" fill="#1058FB"/>
<path opacity="0.15" d="M101.467 61.8857C101.167 63.1724 101.01 64.4855 101 65.8032C101 69.5172 102.38 72.1272 104.598 73.3483L109.243 75.8921L110.317 74.1674C111.558 73.9069 112.75 73.4676 113.851 72.8649C115.054 72.1979 116.179 71.4116 117.207 70.5195L101.467 61.8857Z" fill="black"/>
<path d="M118.163 48.2449C111.364 51.964 105.849 61.0099 105.849 68.448C105.849 75.8862 111.364 78.9032 118.163 75.1841C124.961 71.465 130.476 62.4192 130.476 54.981C130.476 47.5428 124.966 44.5258 118.163 48.2449Z" fill="#3774FF"/>
<path d="M116 60.0146V68.4894C116 69.0417 116.295 69.1572 116.655 68.7334L123.552 60.7706C123.924 60.3468 123.77 60 123.205 60L117.015 59C116.746 59 116.487 59.1069 116.297 59.2972C116.107 59.4875 116 59.7455 116 60.0146Z" fill="white"/>
<path d="M174.558 190.541C184.679 190.541 192.885 186.631 192.885 181.808C192.885 176.985 184.679 173.075 174.558 173.075C164.436 173.075 156.231 176.985 156.231 181.808C156.231 186.631 164.436 190.541 174.558 190.541Z" fill="#E6E6E6"/>
<path d="M143.272 93.9452C143.272 93.9452 133.478 80.4354 132.904 78.7925C132.449 77.5803 132.904 75.778 133.048 74.9406C133.191 74.1032 133.319 72.237 133.462 71.7505C133.701 70.8414 132.529 71.0248 131.867 71.8542C131.205 72.6836 130.982 74.3424 130.639 74.6136C130.296 74.8847 127.688 71.0806 126.324 69.3261C124.961 67.5716 124.107 66.5029 123.27 67.1569C122.672 67.6274 123.119 68.6482 124.107 70.1475C124.685 70.9549 125.217 71.7936 125.702 72.6597C125.854 72.9867 125.041 73.0106 124.602 73.6885C124.259 74.2148 124.602 75.0682 124.123 75.4749C123.829 75.699 123.627 76.0236 123.557 76.3869C123.486 76.7501 123.551 77.1267 123.741 77.4448C124.628 78.8389 125.773 80.0513 127.114 81.0176C128.581 82.0304 129.172 82.3893 130.041 83.769C130.91 85.1487 138.71 99.2407 139.236 100.086C139.763 100.931 140.775 102.654 142.315 102.702C143.854 102.75 156.454 91.9036 157.1 91.3613C159.174 89.6307 159.836 89.3835 160.187 90.9386C160.308 91.4914 160.398 92.0506 160.458 92.6134C160.705 94.5912 162.053 101.657 162.053 101.657C162.053 101.657 168.433 104.744 173.673 103.252C178.912 101.761 180.683 99.5358 180.683 99.5358L178.059 95.2611C178.769 93.4986 182.047 86.3529 183.107 81.3525L166.678 78.6968C166.344 78.6251 165.801 78.4895 165.083 78.3061C164.182 78.0668 161.893 77.2773 160.163 78.7925C154.516 83.7132 143.288 93.9452 143.288 93.9452" fill="#FFA8A7"/>
<path d="M175.842 176.84L172.899 180.931C174.237 181.555 175.698 181.869 177.174 181.848C179.814 181.944 180.539 181.05 180.635 180.875C181.082 179.918 180.388 178.195 180.196 176.712L175.842 176.84Z" fill="#37474F"/>
<path d="M173.066 178.968C173.066 178.968 169.494 178.737 167.029 178.434C164.565 178.131 162.611 179.327 163.185 180.34C163.759 181.352 165.123 182.198 167.245 182.908C169.055 183.522 171.232 183.96 173.114 184.503C174.996 185.045 176.304 185.755 177.397 185.372C178.617 184.949 179.143 184.463 179.04 183.57C178.773 182.299 178.443 181.043 178.051 179.805L173.066 178.968Z" fill="#37474F"/>
<path d="M180.635 172.732C180.635 172.732 180.188 176.448 180.156 177.245C180.124 178.043 176.528 178.298 175.842 176.839L175.73 172.293L180.635 172.732Z" fill="#F28F8F"/>
<path d="M177.014 175.013L178.298 180.659C178.298 180.659 178.418 181.345 175.483 181.784C172.548 182.222 167.939 180.244 167.149 179.846C166.36 179.447 166.272 178.641 169.159 178.801C172.046 178.96 173.067 178.968 173.067 178.968L172.126 176.472L177.014 175.013Z" fill="#FFA8A7"/>
<path d="M183.06 81.3055L185.093 80.7393C185.093 80.7393 189.344 94.1933 189.815 95.4932C190.285 96.7931 190.819 98.1649 189.902 99.7678C188.81 101.674 183.06 109.338 183.06 109.338L179.407 105.765L183.554 98.1728L179.885 90.756L183.06 81.3055Z" fill="#F28F8F"/>
<path d="M162.173 63.8315C161.696 62.9365 161.454 61.9352 161.469 60.9212C161.485 59.9073 161.757 58.9138 162.26 58.0336C164.286 54.2773 168.8 52.451 174.175 53.1448C176.663 53.4718 179.598 55.5374 181.201 58.6237C182.972 62.0451 183.139 68.9355 183.594 71.5434L162.173 63.8315Z" fill="#37474F"/>
<path d="M162.029 65.3066C162.029 65.3066 160.753 67.739 160.976 67.9624C161.307 68.1555 161.669 68.2904 162.045 68.3611L162.029 65.3066Z" fill="#FFA8A7"/>
<path d="M165.905 57.6186C164.517 58.5198 162.125 60.1787 162.021 65.6416C161.91 71.2242 162.707 73.0664 163.537 73.7124C164.095 74.151 167.373 73.9277 168.776 73.6007C170.18 73.2738 174.223 71.272 175.683 68.2335C177.397 64.6607 177.046 59.4609 174.502 57.8659C173.207 57.1002 171.739 56.6758 170.236 56.6326C168.732 56.5893 167.242 56.9286 165.905 57.6186Z" fill="#FFA8A7"/>
<path d="M180.635 99.5049C183.091 103.333 185.42 106.682 185.93 111.005C186.983 120.089 183.538 130.472 182.796 137.195C184.191 139.107 184.995 141.387 185.109 143.751C185.109 146.534 180.635 172.732 180.635 172.732C180.635 172.732 177.381 173.721 175.73 172.294L172.66 124.1L174.255 118.23L180.635 99.5049Z" fill="#1058FB"/>
<path opacity="0.2" d="M180.635 99.5049C183.091 103.333 185.42 106.682 185.93 111.005C186.983 120.089 183.538 130.472 182.796 137.195C184.191 139.107 184.995 141.387 185.109 143.751C185.109 146.534 180.635 172.732 180.635 172.732C180.635 172.732 177.381 173.721 175.73 172.294L172.66 124.1L174.255 118.23L180.635 99.5049Z" fill="black"/>
<path d="M172.66 124.099L174.255 118.229C177.309 117.425 180.254 116.255 183.027 114.744C183.027 114.744 181.368 117.767 176.599 119.426L174.135 126.962L173.928 144.228L172.66 124.099Z" fill="#1058FB"/>
<path opacity="0.3" d="M172.66 124.099L174.255 118.229C177.309 117.425 180.254 116.255 183.027 114.744C183.027 114.744 181.368 117.767 176.599 119.426L174.135 126.962L173.928 144.228L172.66 124.099Z" fill="black"/>
<path d="M180.635 99.5049C181.951 101.658 185.093 105.327 184.423 108.86C183.626 113.134 181.313 116.141 174.279 118.23L167.675 142.156C167.675 142.156 171.113 145.346 172.165 148.432C173.218 151.518 177.014 175.029 177.014 175.029C177.014 175.029 175.834 176.951 172.126 176.489C172.126 176.489 159.198 146.981 158.289 145.059C157.185 143.112 156.799 140.841 157.196 138.639C157.603 135.544 161.981 101.674 161.981 101.674L180.635 99.5049Z" fill="#1058FB"/>
<path opacity="0.2" d="M180.635 99.5049C181.951 101.658 185.093 105.327 184.423 108.86C183.626 113.134 181.313 116.141 174.279 118.23L167.675 142.156C167.675 142.156 171.113 145.346 172.165 148.432C173.218 151.518 177.014 175.029 177.014 175.029C177.014 175.029 175.834 176.951 172.126 176.489C172.126 176.489 159.198 146.981 158.289 145.059C157.185 143.112 156.799 140.841 157.196 138.639C157.603 135.544 161.981 101.674 161.981 101.674L180.635 99.5049Z" fill="black"/>
<path d="M183.059 81.3053L166.631 78.6496C166.296 78.5778 165.753 78.4422 165.036 78.2588C165.036 78.2588 164.334 88.5626 160.115 90.9233C160.219 91.4177 160.306 91.968 160.386 92.598C160.633 94.5759 161.981 101.642 161.981 101.642C161.981 101.642 168.361 104.728 173.601 103.237C178.841 101.745 180.611 99.5204 180.611 99.5204L177.987 95.2458C178.721 93.4673 182.023 86.3216 183.059 81.3053Z" fill="#1058FB"/>
<path opacity="0.7" d="M183.059 81.3053L166.631 78.6496C166.296 78.5778 165.753 78.4422 165.036 78.2588C165.036 78.2588 164.334 88.5626 160.115 90.9233C160.219 91.4177 160.306 91.968 160.386 92.598C160.633 94.5759 161.981 101.642 161.981 101.642C161.981 101.642 168.361 104.728 173.601 103.237C178.841 101.745 180.611 99.5204 180.611 99.5204L177.987 95.2458C178.721 93.4673 182.023 86.3216 183.059 81.3053Z" fill="white"/>
<path d="M178.729 93.5469C176.547 94.857 174.261 95.9853 171.894 96.9203C174.043 96.8775 176.146 96.2961 178.011 95.2296L178.729 93.5469Z" fill="#1058FB"/>
<path d="M165.498 57.8907C165.498 57.8907 164.701 63.0745 166.583 66.121C166.583 66.121 167.285 64.0554 169.031 64.4462C170.778 64.837 170.873 67.1418 169.645 68.4337C169.333 68.7961 168.925 69.0632 168.468 69.2042C168.011 69.3453 167.523 69.3547 167.061 69.2312C167.061 69.2312 166.782 72.9795 166.631 76.1217C166.479 79.2639 165.65 86.1145 169.183 88.8819C172.716 91.6493 181.584 92.6222 185.739 86.8163C188.052 83.5864 184.981 77.8763 183.554 71.4722C182.238 65.5866 181.496 56.8619 175.252 55.4582C169.007 54.0546 165.498 57.8907 165.498 57.8907Z" fill="#37474F"/>
</svg>
