<svg width="194" height="210" viewBox="0 0 194 210" fill="none" xmlns="http://www.w3.org/2000/svg">
<path d="M28.3516 195.059C66.1459 214.981 127.423 214.981 165.217 195.059C203.011 175.137 203.016 142.845 165.217 122.927C127.418 103.01 66.1459 103.005 28.3469 122.927C-9.4521 142.849 -9.44741 175.127 28.3516 195.059Z" fill="#F5F5F5"/>
<path d="M12.1446 170.126L13.899 171.135C14.2138 171.294 14.5617 171.377 14.9146 171.377C15.2674 171.377 15.6154 171.294 15.9301 171.135L96.9977 124.334C97.1208 124.294 97.2281 124.215 97.3041 124.11C97.3801 124.006 97.4211 123.879 97.4211 123.75C97.4211 123.62 97.3801 123.494 97.3041 123.389C97.2281 123.284 97.1208 123.206 96.9977 123.166L95.2574 122.171C94.9426 122.012 94.5947 121.929 94.2418 121.929C93.889 121.929 93.541 122.012 93.2263 122.171L12.1446 168.953C12.0221 168.995 11.9156 169.074 11.8403 169.179C11.7649 169.284 11.7244 169.41 11.7244 169.54C11.7244 169.669 11.7649 169.795 11.8403 169.9C11.9156 170.006 12.0221 170.084 12.1446 170.126Z" fill="#E0E0E0"/>
<path d="M129.177 186.985C142.841 186.985 153.917 180.913 153.917 173.424C153.917 165.934 142.841 159.862 129.177 159.862C115.514 159.862 104.438 165.934 104.438 173.424C104.438 180.913 115.514 186.985 129.177 186.985Z" fill="#E6E6E6"/>
<path d="M157.759 150.082C168.3 150.082 176.846 145.397 176.846 139.617C176.846 133.837 168.3 129.151 157.759 129.151C147.217 129.151 138.672 133.837 138.672 139.617C138.672 145.397 147.217 150.082 157.759 150.082Z" fill="#E6E6E6"/>
<path d="M14.3305 168.944L13.974 168.738C13.6742 168.542 13.4245 168.279 13.2452 167.97C13.0659 167.66 12.9621 167.312 12.942 166.955V46.747C12.9625 46.3892 13.0665 46.0411 13.2457 45.7308C13.4249 45.4204 13.6743 45.1563 13.974 44.9598L91.4296 0.246386C91.7495 0.0844052 92.1031 0 92.4616 0C92.8202 0 93.1737 0.0844052 93.4936 0.246386L93.8454 0.452783C94.1461 0.648251 94.3964 0.912047 94.5757 1.22265C94.7551 1.53324 94.8585 1.88185 94.8774 2.24001V122.444C94.8585 122.802 94.7551 123.15 94.5757 123.461C94.3964 123.771 94.1461 124.035 93.8454 124.231L16.3945 168.944C16.0746 169.106 15.7211 169.191 15.3625 169.191C15.0039 169.191 14.6504 169.106 14.3305 168.944Z" fill="#1058FB"/>
<path opacity="0.4" d="M94.8681 2.07582C94.7977 1.54107 94.3661 1.34405 93.8501 1.63957L16.3898 46.3576C16.0866 46.5488 15.8365 46.8134 15.6627 47.1269L13.2469 45.7197C13.423 45.4063 13.6745 45.1419 13.9787 44.9504L91.4297 0.246386C91.7496 0.0844052 92.1031 0 92.4616 0C92.8202 0 93.1738 0.0844052 93.4936 0.246386L93.8501 0.452783C94.1245 0.63644 94.357 0.875945 94.5324 1.15563C94.7078 1.43532 94.8222 1.74889 94.8681 2.07582Z" fill="white"/>
<path opacity="0.1" d="M16.221 169.024C15.9203 169.143 15.5977 169.198 15.2743 169.184C14.9509 169.171 14.6341 169.089 14.3447 168.944L13.9835 168.737C13.6836 168.541 13.4343 168.277 13.2558 167.967C13.0773 167.656 12.9746 167.308 12.9562 166.95V46.7466C12.9671 46.3886 13.0705 46.0395 13.2564 45.7334L15.6722 47.1407C15.4805 47.4412 15.3661 47.7844 15.3391 48.1398V168.348C15.3391 168.939 15.7332 169.216 16.221 169.024Z" fill="black"/>
<path d="M24.4957 125.468L24.1392 125.261C23.8393 125.066 23.5897 124.803 23.4104 124.493C23.2311 124.184 23.1272 123.836 23.1072 123.479V101.873C23.1272 101.515 23.2311 101.167 23.4103 100.856C23.5896 100.546 23.8392 100.282 24.1392 100.085L94.46 59.4485C94.7791 59.2865 95.1318 59.2021 95.4896 59.2021C95.8474 59.2021 96.2002 59.2865 96.5193 59.4485L96.8758 59.6549C97.1765 59.8503 97.4267 60.1141 97.6061 60.4247C97.7854 60.7353 97.8888 61.0839 97.9078 61.4421V83.0482C97.8888 83.4058 97.7854 83.7537 97.606 84.0636C97.4267 84.3734 97.1764 84.6363 96.8758 84.8308L26.5597 125.468C26.2398 125.63 25.8862 125.714 25.5277 125.714C25.1691 125.714 24.8156 125.63 24.4957 125.468Z" fill="#EBEBEB"/>
<path d="M97.8982 61.2783C97.8278 60.7436 97.3963 60.5465 96.8756 60.8421L26.5547 101.484C26.2515 101.675 26.0014 101.94 25.8277 102.253L23.4119 100.846C23.5858 100.53 23.8377 100.263 24.1436 100.072L94.4598 59.4348C94.7788 59.2729 95.1316 59.1885 95.4894 59.1885C95.8472 59.1885 96.2 59.2729 96.5191 59.4348L96.8756 59.6412C97.1539 59.8243 97.3893 60.0654 97.5658 60.348C97.7423 60.6305 97.8557 60.9479 97.8982 61.2783Z" fill="#FAFAFA"/>
<path d="M26.3817 125.552C26.0808 125.672 25.7579 125.726 25.4344 125.712C25.1109 125.697 24.7942 125.614 24.5053 125.468L24.1394 125.266C23.8418 125.068 23.5943 124.804 23.4168 124.493C23.2393 124.183 23.1366 123.836 23.1168 123.479V101.873C23.1277 101.515 23.2311 101.166 23.417 100.859L25.8328 102.267C25.6489 102.574 25.5441 102.922 25.5279 103.28V124.891C25.5232 125.463 25.8985 125.74 26.3817 125.552Z" fill="#E0E0E0"/>
<path d="M36.4998 100.034C40.5105 97.7171 43.7612 99.5184 43.7612 104.059C43.7612 108.6 40.5058 114.116 36.4904 116.382C32.475 118.648 29.2242 116.851 29.2242 112.357C29.2242 107.863 32.4891 102.352 36.4998 100.034Z" fill="#1058FB"/>
<path d="M24.4957 154.75L24.1392 154.544C23.8393 154.348 23.5897 154.085 23.4104 153.776C23.2311 153.466 23.1272 153.118 23.1072 152.761V131.155C23.1272 130.797 23.2311 130.449 23.4103 130.138C23.5896 129.828 23.8392 129.564 24.1392 129.368L94.46 88.7307C94.7791 88.5688 95.1318 88.4844 95.4896 88.4844C95.8474 88.4844 96.2002 88.5688 96.5193 88.7307L96.8758 88.9371C97.1768 89.1323 97.4272 89.396 97.6066 89.7067C97.786 90.0173 97.8892 90.3661 97.9078 90.7243V112.33C97.8888 112.688 97.7854 113.036 97.606 113.346C97.4267 113.656 97.1764 113.919 96.8758 114.113L26.5597 154.75C26.2398 154.912 25.8862 154.996 25.5277 154.996C25.1691 154.996 24.8156 154.912 24.4957 154.75Z" fill="#EBEBEB"/>
<path d="M97.8982 90.5562C97.8278 90.0215 97.3963 89.8291 96.8756 90.1247L26.5547 130.766C26.2527 130.957 26.0029 131.22 25.8277 131.531L23.4119 130.124C23.5897 129.82 23.8415 129.567 24.1436 129.387L94.4598 88.7502C94.7788 88.5883 95.1316 88.5039 95.4894 88.5039C95.8472 88.5039 96.2 88.5883 96.5191 88.7502L96.8756 88.9566C97.1499 89.1353 97.383 89.3703 97.5593 89.6462C97.7357 89.922 97.8512 90.2322 97.8982 90.5562Z" fill="#FAFAFA"/>
<path d="M26.3817 154.829C26.0811 154.949 25.7584 155.004 25.4349 154.991C25.1114 154.977 24.7946 154.894 24.5053 154.749L24.1394 154.543C23.841 154.345 23.593 154.081 23.4153 153.771C23.2377 153.46 23.1355 153.112 23.1168 152.755V131.154C23.1271 130.796 23.2305 130.447 23.417 130.141L25.8328 131.548C25.6494 131.857 25.5447 132.207 25.5279 132.566V154.177C25.5232 154.744 25.8985 155.021 26.3817 154.829Z" fill="#E0E0E0"/>
<path d="M36.4997 129.316C40.5104 126.998 43.7611 128.8 43.7611 133.34C43.7611 137.881 40.5057 143.398 36.4903 145.663C32.4749 147.929 29.2241 146.132 29.2241 141.639C29.2241 137.145 32.489 131.628 36.4997 129.316Z" fill="#1058FB"/>
<path d="M24.4958 76.5068L24.1393 76.3004C23.8394 76.1041 23.5897 75.8401 23.4105 75.5297C23.2312 75.2193 23.1274 74.8711 23.1073 74.5132V52.9258C23.1274 52.5686 23.2312 52.2211 23.4105 51.9114C23.5898 51.6017 23.8395 51.3386 24.1393 51.1433L94.4601 10.4875C94.7792 10.3256 95.1319 10.2412 95.4898 10.2412C95.8476 10.2412 96.2003 10.3256 96.5194 10.4875L96.8759 10.6939C97.1765 10.8884 97.4268 11.1513 97.6062 11.4612C97.7855 11.771 97.889 12.1189 97.9079 12.4765V34.0826C97.8889 34.4408 97.7856 34.7894 97.6062 35.1C97.4269 35.4106 97.1766 35.6744 96.8759 35.8698L26.5598 76.5068C26.2399 76.6688 25.8864 76.7532 25.5278 76.7532C25.1692 76.7532 24.8157 76.6688 24.4958 76.5068Z" fill="#EBEBEB"/>
<path d="M97.8983 12.3117C97.8279 11.777 97.3964 11.5846 96.8757 11.8802L26.5549 52.5219C26.2508 52.7099 26.0003 52.9733 25.8278 53.2865L23.412 51.8792C23.5848 51.5635 23.8371 51.2983 24.1438 51.1099L94.4599 10.4729C94.779 10.311 95.1317 10.2266 95.4895 10.2266C95.8473 10.2266 96.2001 10.311 96.5192 10.4729L96.8757 10.6793C97.1539 10.8614 97.3893 11.1017 97.5658 11.3835C97.7424 11.6653 97.8558 11.9819 97.8983 12.3117Z" fill="#FAFAFA"/>
<path d="M26.3812 76.5859C26.0807 76.7063 25.758 76.7615 25.4345 76.7477C25.111 76.734 24.7941 76.6516 24.5049 76.5061L24.139 76.2997C23.8384 76.1023 23.5887 75.8366 23.4102 75.5244C23.2317 75.2123 23.1294 74.8623 23.1117 74.5031V52.9251C23.1218 52.5655 23.2252 52.2147 23.4119 51.9072L25.8277 53.3145C25.6435 53.6234 25.5388 53.9731 25.5228 54.3324V75.9104C25.5228 76.5015 25.8981 76.7735 26.3812 76.5859Z" fill="#E0E0E0"/>
<path d="M36.4998 51.0726C40.5105 48.7553 43.7612 50.5566 43.7612 55.0927C43.7612 59.6287 40.5058 65.1499 36.4904 67.4203C32.475 69.6907 29.2242 67.8894 29.2242 63.3955C29.2242 58.9017 32.4891 53.3946 36.4998 51.0726Z" fill="#1058FB"/>
<path d="M29.4398 103.939L29.0833 103.733C28.7825 103.537 28.5323 103.274 28.353 102.963C28.1736 102.652 28.0702 102.304 28.0513 101.946V80.3396C28.071 79.9816 28.1747 79.6332 28.3539 79.3228C28.5332 79.0123 28.7831 78.7484 29.0833 78.5523L99.3994 37.9153C99.7193 37.7534 100.073 37.6689 100.431 37.6689C100.79 37.6689 101.143 37.7534 101.463 37.9153L101.82 38.117C102.12 38.3136 102.369 38.5777 102.548 38.888C102.727 39.1984 102.831 39.5464 102.852 39.9043V61.5104C102.832 61.8683 102.728 62.2165 102.549 62.5269C102.369 62.8373 102.12 63.1013 101.82 63.2976L31.4991 103.939C31.18 104.101 30.8272 104.186 30.4694 104.186C30.1116 104.186 29.7588 104.101 29.4398 103.939Z" fill="#37474F"/>
<path d="M102.842 39.7448C102.772 39.21 102.34 39.013 101.82 39.3132L31.499 79.9549C31.1946 80.1441 30.9429 80.4071 30.7672 80.7195L28.3561 79.3123C28.5284 78.9964 28.7787 78.7299 29.0832 78.5383L99.3993 37.9153C99.7192 37.7534 100.073 37.6689 100.431 37.6689C100.79 37.6689 101.143 37.7534 101.463 37.9153L101.82 38.117C102.097 38.2992 102.332 38.5388 102.508 38.8196C102.685 39.1005 102.799 39.416 102.842 39.7448Z" fill="#455A64"/>
<path d="M31.3259 104.019C31.0252 104.139 30.7026 104.194 30.3792 104.18C30.0558 104.166 29.739 104.084 29.4495 103.939L29.0883 103.733C28.789 103.536 28.5401 103.272 28.3616 102.962C28.1832 102.651 28.0802 102.303 28.061 101.946V80.3394C28.0735 79.981 28.1786 79.6319 28.3659 79.3262L30.777 80.7334C30.5944 81.041 30.4912 81.3892 30.4768 81.7467V103.357C30.4674 103.93 30.8193 104.207 31.3259 104.019Z" fill="#263238"/>
<path d="M41.444 78.5002C45.4547 76.1876 48.7055 77.9889 48.7055 82.525C48.7055 87.0611 45.45 92.5822 41.4346 94.8526C37.4192 97.123 34.1638 95.3217 34.1685 90.8278C34.1732 86.334 37.4333 80.8175 41.444 78.5002Z" fill="#F5F5F5"/>
<path d="M41.6081 91.5548C41.4812 91.6511 41.3282 91.7066 41.1691 91.7142C41.01 91.7217 40.8523 91.6809 40.7169 91.597L37.5271 89.1859C37.1002 88.8622 37.1518 87.9756 37.6444 87.197C38.1369 86.4183 38.8827 86.0524 39.3049 86.3761L41.5284 88.0601L47.7063 74.7896C48.0909 73.9593 48.8274 73.3824 49.3528 73.5465C49.8781 73.7107 49.9907 74.4847 49.6014 75.3009L42.5463 90.4524C42.3512 90.8883 42.0375 91.2605 41.641 91.5266L41.6081 91.5548Z" fill="#1058FB"/>
<path d="M102.833 71.8276L100.793 70.6502C99.906 70.1436 98.8224 70.6502 98.2502 70.9973L96.9602 70.2796C95.4169 69.3415 93.2684 71.2976 92.79 71.7619L92.2365 71.4477C90.5993 70.4626 87.6206 73.1035 87.6206 73.1035V63.2433L88.9153 62.6194L86.856 61.428C86.561 61.297 86.2367 61.2459 85.9156 61.2796C85.5946 61.3134 85.288 61.4309 85.0266 61.6203C84.2646 62.1164 83.6304 62.7854 83.1756 63.5727C82.7207 64.3601 82.4581 65.2437 82.4091 66.1517V88.9352C80.5327 87.528 78.525 86.6836 76.78 86.9979C75.3899 87.3228 74.1737 88.1604 73.3745 89.3433C72.5114 90.8725 73.9374 91.8295 75.7762 93.931C77.615 96.0325 79.2099 98.528 80.8705 100.076C81.6901 100.906 82.6636 101.569 83.7366 102.027V104.992L85.7537 106.16L99.1133 96.1169V93.1476C99.1133 93.1476 101.018 85.539 101.628 82.3586C102.214 79.3002 102.753 74.417 101.745 71.8839L102.838 71.8089L102.833 71.8276Z" fill="#1058FB"/>
<path opacity="0.4" d="M102.833 71.8276L100.793 70.6502C99.906 70.1436 98.8224 70.6502 98.2502 70.9973L96.9602 70.2796C95.4169 69.3415 93.2684 71.2976 92.79 71.7619L92.2365 71.4477C90.5993 70.4626 87.6206 73.1035 87.6206 73.1035V63.2433L88.9153 62.6194L86.856 61.428C86.561 61.297 86.2367 61.2459 85.9156 61.2796C85.5946 61.3134 85.288 61.4309 85.0266 61.6203C84.2646 62.1164 83.6304 62.7854 83.1756 63.5727C82.7207 64.3601 82.4581 65.2437 82.4091 66.1517V88.9352C80.5327 87.528 78.525 86.6836 76.78 86.9979C75.3899 87.3228 74.1737 88.1604 73.3745 89.3433C72.5114 90.8725 73.9374 91.8295 75.7762 93.931C77.615 96.0325 79.2099 98.528 80.8705 100.076C81.6901 100.906 82.6636 101.569 83.7366 102.027V104.992L85.7537 106.16L99.1133 96.1169V93.1476C99.1133 93.1476 101.018 85.539 101.628 82.3586C102.214 79.3002 102.753 74.417 101.745 71.8839L102.838 71.8089L102.833 71.8276Z" fill="white"/>
<path d="M87.7709 98.0123L77.6667 92.1815L73.2433 89.625C72.6804 91.0041 74.0454 91.9704 75.7716 93.9453C77.5964 96.0327 79.2054 98.5423 80.8659 100.09C81.6855 100.921 82.659 101.584 83.732 102.042V104.992L85.7491 106.16L88.6997 103.942C88.3197 101.437 87.7709 98.0123 87.7709 98.0123Z" fill="#1058FB"/>
<path d="M84.431 67.3292L82.4139 66.1611V90.0611L84.431 90.1127V67.3292Z" fill="#1058FB"/>
<path d="M100.282 73.3617L101.849 72.2078C101.811 72.1046 101.783 72.0014 101.741 71.9029L102.313 71.8653L101.056 71.809L98.9589 70.6504C98.7139 70.7487 98.477 70.8663 98.2506 71.0022L98.9073 71.3822L100.282 73.3617Z" fill="#1058FB"/>
<path d="M94.732 73.0202L96.2002 71.9038L94.1738 70.6748C93.6846 70.9891 93.2275 71.3504 92.8087 71.7537L94.216 72.5699L94.732 73.0202Z" fill="#1058FB"/>
<path d="M91.6639 72.9122L89.6562 71.7395L89.6656 71.7207V74.2585L92.0017 73.4047L91.6639 72.9122Z" fill="#1058FB"/>
<g opacity="0.15">
<path opacity="0.15" d="M87.7709 98.0113L77.6667 92.1805L73.2433 89.624C72.6804 91.0031 74.0454 91.9695 75.7716 93.9443C77.5964 96.0317 79.2054 98.5414 80.8659 100.089C81.6855 100.92 82.659 101.583 83.732 102.041V104.991L85.7491 106.159L88.6997 103.941C88.3197 101.436 87.7709 98.0113 87.7709 98.0113Z" fill="black"/>
<path opacity="0.15" d="M84.431 67.3292L82.4139 66.1611V90.0611L84.431 90.1127V67.3292Z" fill="black"/>
<path opacity="0.15" d="M100.282 73.3617L101.849 72.2078C101.811 72.1046 101.783 72.0014 101.741 71.9029L102.313 71.8653L101.056 71.809L98.9589 70.6504C98.7139 70.7487 98.477 70.8663 98.2506 71.0022L98.9073 71.3822L100.282 73.3617Z" fill="black"/>
<path opacity="0.15" d="M94.732 73.0193L96.2002 71.9028L94.1738 70.6738C93.6846 70.9881 93.2275 71.3494 92.8087 71.7527L94.216 72.5689L94.732 73.0193Z" fill="black"/>
<path opacity="0.15" d="M91.6641 72.9102L89.6564 71.7375L89.6658 71.7188V74.2565L92.0018 73.4028L91.6641 72.9102Z" fill="black"/>
</g>
<path d="M85.7493 106.18V103.211C84.6766 102.746 83.7047 102.077 82.8879 101.241C81.2273 99.693 79.6043 97.1787 77.7936 95.096C75.9829 93.0132 74.51 92.0328 75.3919 90.5083C76.1911 89.3254 77.4073 88.4878 78.7974 88.1629C80.5518 87.8486 82.5501 88.707 84.4265 90.1002V67.3307C84.475 66.4232 84.7369 65.5398 85.1909 64.7525C85.6449 63.9652 86.2782 63.296 87.0393 62.7993C88.4841 61.9644 89.6568 62.6398 89.6568 64.3098V74.2591C89.6568 74.2591 93.2641 71.06 94.7183 73.0207C94.7183 73.0207 98.2646 69.3103 99.8782 72.4438C99.8782 72.4438 102.477 70.3469 103.631 72.7815C104.785 75.2161 104.241 80.3666 103.631 83.547C103.021 86.7275 101.112 94.336 101.112 94.336V97.3054L85.7493 106.18Z" fill="#1058FB"/>
<path d="M89.6658 78.5314C89.6658 78.5314 89.9941 73.9906 91.6641 72.9023H91.6031C90.9121 73.2749 90.2626 73.7199 89.6658 74.2299V74.1454C89.6595 74.1586 89.6562 74.173 89.6563 74.1876C89.6562 74.2022 89.6595 74.2167 89.6658 74.2299V78.5314Z" fill="#455A64"/>
<path d="M94.7322 73.0194V77.1755C94.7322 77.1755 95.2013 72.9021 96.1394 71.8701C95.6296 72.2004 95.1577 72.5859 94.7322 73.0194Z" fill="#455A64"/>
<path d="M99.8729 72.4432V76.6134C99.8729 76.6134 100.126 72.4151 101.032 71.7959C100.616 71.954 100.225 72.172 99.8729 72.4432Z" fill="#455A64"/>
<path d="M85.0172 58.7595C84.6888 58.9472 84.4261 58.8393 84.4261 58.5109V55.2273C84.4435 55.0353 84.5062 54.8502 84.6089 54.6872C84.7116 54.5241 84.8516 54.3877 85.0172 54.2891C85.3409 54.1015 85.6036 54.2141 85.6036 54.5377V57.8213C85.5871 58.013 85.5253 58.198 85.4234 58.3611C85.3214 58.5242 85.1822 58.6607 85.0172 58.7595Z" fill="#EBEBEB"/>
<path d="M80.0732 63.962C79.8434 64.356 79.4728 64.5718 79.2429 64.4311L77.3338 63.3287C77.1039 63.1974 77.1039 62.7658 77.3338 62.3905C77.5636 61.9918 77.9342 61.776 78.164 61.9215L80.0732 63.0238C80.3218 63.1317 80.3218 63.5633 80.0732 63.962Z" fill="#EBEBEB"/>
<path d="M78.0513 70.778V70.8718C78.0313 71.0757 77.9635 71.2719 77.8535 71.4447C77.7434 71.6175 77.5943 71.7619 77.418 71.8663L74.8099 73.3721C74.4628 73.5738 74.1766 73.4565 74.1766 73.1047V73.0109C74.1978 72.8073 74.266 72.6115 74.3759 72.4389C74.4858 72.2663 74.6344 72.1216 74.8099 72.0164L77.418 70.5106C77.7698 70.3089 78.0513 70.4262 78.0513 70.778Z" fill="#EBEBEB"/>
<path d="M91.9786 62.832V62.7382C91.998 62.5335 92.0654 62.3363 92.1755 62.1626C92.2855 61.989 92.4351 61.8438 92.6119 61.739L95.22 60.2332C95.5671 60.0315 95.8533 60.1535 95.8533 60.5006V60.5944C95.8322 60.798 95.764 60.9938 95.654 61.1664C95.5441 61.339 95.3955 61.4837 95.22 61.5889L92.6119 63.0947C92.2695 63.2964 91.9786 63.1791 91.9786 62.832Z" fill="#EBEBEB"/>
<path d="M89.9241 58.2715C89.6942 58.1402 89.6942 57.7133 89.9241 57.3333L91.8333 54.0497C92.0631 53.651 92.4337 53.4352 92.6636 53.5806C92.8934 53.7167 92.8934 54.1435 92.6636 54.5423L90.7544 57.8259C90.5433 58.1918 90.168 58.4075 89.9241 58.2715Z" fill="#EBEBEB"/>
<path d="M164.142 135.588V135.053C163.931 135.677 162.956 138.374 161.478 139.744C160.301 140.818 158.692 142.056 158.284 143.252C157.875 144.449 160.521 144.918 161.619 144.725C162.899 144.495 164.551 143.787 165.451 142.666C166.085 141.887 166.488 140.968 166.938 140.353C167.389 139.739 168.43 139.063 168.679 138.355C168.81 137.966 168.65 137.112 168.463 136.394C168.275 135.677 168.102 135.011 167.876 135.072V135.484C167.341 135.903 166.679 136.124 166 136.113C165.447 136.113 164.138 136 164.142 135.588Z" fill="#263238"/>
<path d="M160.409 140.667C160.775 140.343 161.145 140.024 161.478 139.729C162.51 138.791 163.298 137.186 163.753 136.093C164.01 135.47 164.142 134.802 164.143 134.128V132.003H167.895V135.465V135.559C167.717 136.333 166.019 138.373 165.029 139.743C164.377 140.644 163.153 141.788 161.656 141.99C160.216 142.177 159.499 141.732 160.409 140.667Z" fill="#FFA8A7"/>
<path d="M149.587 131.904V131.369C149.376 131.998 148.396 134.695 146.918 136.06C145.741 137.134 144.132 138.377 143.724 139.573C143.316 140.77 145.961 141.239 147.059 141.042C148.339 140.817 149.991 140.104 150.891 138.987C151.525 138.208 151.928 137.284 152.378 136.675C152.829 136.065 153.875 135.38 154.119 134.672C154.25 134.282 154.09 133.433 153.903 132.715C153.715 131.998 153.542 131.308 153.316 131.388V131.796C152.783 132.217 152.12 132.441 151.44 132.429C150.905 132.429 149.583 132.321 149.587 131.904Z" fill="#263238"/>
<path d="M145.853 136.99C146.214 136.662 146.585 136.347 146.918 136.052C147.95 135.114 148.738 133.505 149.193 132.412C149.452 131.79 149.586 131.124 149.587 130.451V128.321H153.316V131.783V131.877C153.138 132.656 151.44 134.715 150.45 136.061C149.798 136.962 148.574 138.111 147.077 138.308C145.656 138.496 144.938 138.055 145.853 136.99Z" fill="#FFA8A7"/>
<path d="M167.136 77.5749C170.03 83.8935 167.028 106.161 167.028 106.161C167.117 107.184 168.29 109.205 168.726 113.718C169.242 119.052 167.914 132.444 167.914 132.444C167.348 132.771 166.71 132.956 166.056 132.982C165.403 133.009 164.752 132.875 164.162 132.594C164.162 132.594 160.606 112.423 159.94 107.123C159.349 102.493 158.214 92.3277 158.214 92.3277L155.028 107.104C155.493 108.596 155.83 110.124 156.037 111.673C156.342 114.792 153.316 129.315 153.316 129.315C153.316 129.315 152.031 129.784 149.587 129.428C149.587 129.428 148.518 110.153 148.236 106.396C147.767 100.086 149.437 80.3941 150.582 76.6602L167.136 77.5749Z" fill="#37474F"/>
<path d="M158.213 92.3275L157.275 86.4545C157.275 86.4545 153.297 85.6336 151.496 83.9355C152.737 85.3942 154.362 86.4764 156.187 87.0597L157.242 91.5817L155.399 105.265L158.213 92.3275Z" fill="#263238"/>
<path d="M155.854 55.4436C154.946 55.3656 154.033 55.5202 153.202 55.8928C152.371 56.2654 151.648 56.8438 151.102 57.5732C149.61 59.5246 143.892 66.955 143.892 66.955C143.892 66.955 135.449 62.7332 135.05 62.236C134.651 61.7387 134.872 60.7255 134.984 60.172C135.097 59.6184 135.289 58.3754 135.411 58.0282C135.627 57.4231 134.731 57.5873 134.201 58.1549C133.671 58.7225 133.441 59.8295 133.174 60.0312C132.906 60.2329 130.908 57.9157 129.932 56.8039C128.956 55.6922 128.525 54.9276 127.854 55.3732C127.385 55.7016 127.685 56.363 128.384 57.3152C128.71 57.7189 129.01 58.1418 129.285 58.5818C129.365 58.7506 129.111 58.8867 129.008 58.9805C128.82 59.1494 128.483 59.4496 128.459 59.6888C128.464 59.8332 128.455 59.9778 128.431 60.1204C128.342 60.4393 127.962 60.5895 127.84 60.8991C127.76 61.1195 127.84 61.3681 127.802 61.6074C127.774 61.7575 127.69 61.8935 127.662 62.0483C127.652 62.199 127.675 62.35 127.729 62.4908C127.784 62.6317 127.868 62.7592 127.976 62.8645C128.656 63.6807 129.59 63.9903 130.486 64.4876C131.232 64.9004 132.001 65.0786 132.859 65.4586C133.718 65.8385 143.672 72.7435 145.248 71.871C146.824 70.9985 154.958 61.5511 154.958 61.5511C157.303 57.653 155.854 55.4436 155.854 55.4436Z" fill="#FFA8A7"/>
<path d="M162.032 55.6162C165.738 55.8742 166 57.6661 166.929 59.6222C167.609 61.1334 167.671 62.8504 167.103 64.4069L164.509 71.8841C164.509 71.8841 165.719 74.8112 167.126 77.5741C160.639 81.1955 152.538 79.291 150.586 76.636C150.502 76.0731 151.004 71.6918 151.313 68.8304C150.169 65.9642 149.868 64.1395 150.352 62.2631C151.248 58.745 154.719 55.3207 156.257 55.4426L162.032 55.6162Z" fill="#F5F5F5"/>
<path d="M158.462 52.5443H159.902C160.899 52.5443 161.886 52.3478 162.807 51.966C163.728 51.5843 164.564 51.0247 165.269 50.3194C165.973 49.614 166.532 48.7768 166.913 47.8554C167.293 46.934 167.488 45.9467 167.487 44.9498C167.486 42.9277 166.682 40.9889 165.252 39.5595C163.821 38.1301 161.882 37.3271 159.86 37.3271H158.504C156.487 37.3334 154.554 38.1392 153.129 39.568C151.705 40.9969 150.905 42.9322 150.905 44.9498C150.901 46.9586 151.695 48.8868 153.112 50.3108C154.529 51.7348 156.453 52.5381 158.462 52.5443Z" fill="#263238"/>
<path d="M171.545 56.5412C170.357 56.5399 169.218 56.0675 168.379 55.2277C167.539 54.3878 167.066 53.2491 167.065 52.0614V42.4639C167.654 42.4639 168.237 42.5799 168.78 42.8053C169.324 43.0307 169.818 43.3611 170.234 43.7776C170.65 44.1941 170.98 44.6885 171.205 45.2326C171.43 45.7766 171.545 46.3597 171.545 46.9483V56.5412Z" fill="#263238"/>
<path d="M167.886 40.7656L166.765 42.5669C166.879 42.6468 167.009 42.7027 167.145 42.7311C167.282 42.7595 167.423 42.7599 167.56 42.7323C167.697 42.7047 167.826 42.6496 167.941 42.5704C168.056 42.4911 168.154 42.3894 168.228 42.2714C168.375 42.0243 168.421 41.7304 168.358 41.4502C168.294 41.1699 168.125 40.9249 167.886 40.7656Z" fill="#263238"/>
<path d="M153.607 40.6953C152.73 41.2113 151.646 43.416 151.754 48.0412C151.843 51.9628 153.114 52.9291 153.752 53.2012C154.39 53.4732 155.628 53.3091 156.815 53.1074V55.4528C156.815 55.4528 155.164 57.3714 155.267 58.4503C155.37 59.5292 157.655 59.7825 159.203 58.7317C160.205 58.008 161.065 57.1065 161.741 56.072V50.4054C161.866 50.5597 162.021 50.6874 162.196 50.7812C162.371 50.875 162.563 50.933 162.761 50.9518C162.959 50.9706 163.158 50.9497 163.348 50.8906C163.538 50.8314 163.714 50.735 163.866 50.6071C165.188 49.7299 165.24 47.5581 164.471 46.7794C163.701 46.0007 162.046 46.2493 161.741 47.3235C161.741 47.3235 159.831 47.3939 157.294 46.0007C156.305 45.4685 155.456 44.7107 154.816 43.7889C154.175 42.8671 153.761 41.8072 153.607 40.6953Z" fill="#FFA8A7"/>
<path d="M156.567 47.0551C156.563 47.1522 156.587 47.2484 156.637 47.3317C156.687 47.4149 156.761 47.4815 156.849 47.523C156.936 47.5646 157.035 47.5792 157.131 47.5651C157.227 47.551 157.317 47.5087 157.389 47.4437C157.461 47.3787 157.512 47.2937 157.536 47.1996C157.56 47.1055 157.556 47.0063 157.524 46.9147C157.492 46.823 157.433 46.7429 157.356 46.6844C157.278 46.6259 157.185 46.5917 157.088 46.5861C156.958 46.5832 156.831 46.6302 156.735 46.7174C156.638 46.8045 156.578 46.9253 156.567 47.0551Z" fill="#263238"/>
<path d="M155.999 50.3828L154.855 50.744C154.875 50.8204 154.911 50.8919 154.96 50.9543C155.008 51.0167 155.069 51.0687 155.138 51.1072C155.207 51.1457 155.283 51.1699 155.362 51.1784C155.441 51.187 155.52 51.1796 155.596 51.1568C155.75 51.1051 155.879 50.9956 155.954 50.8512C156.029 50.7069 156.045 50.539 155.999 50.3828Z" fill="#F28F8F"/>
<path d="M152.528 45.5466L153.523 44.8523C153.481 44.7855 153.426 44.7279 153.361 44.6829C153.296 44.638 153.223 44.6067 153.146 44.5909C153.069 44.5751 152.989 44.5752 152.912 44.5911C152.835 44.607 152.762 44.6384 152.697 44.6835C152.564 44.7782 152.472 44.9206 152.44 45.0813C152.409 45.2419 152.44 45.4085 152.528 45.5466Z" fill="#263238"/>
<path d="M152.781 46.699C152.776 46.7651 152.784 46.8316 152.805 46.8944C152.826 46.9573 152.86 47.0154 152.903 47.0652C152.947 47.115 153 47.1556 153.06 47.1845C153.119 47.2135 153.184 47.2303 153.25 47.2338C153.352 47.2421 153.454 47.2199 153.542 47.17C153.631 47.1202 153.703 47.0449 153.749 46.954C153.795 46.863 153.812 46.7604 153.799 46.6594C153.786 46.5584 153.744 46.4636 153.676 46.387C153.609 46.3105 153.521 46.2557 153.422 46.2298C153.324 46.2038 153.22 46.2079 153.124 46.2414C153.028 46.2749 152.944 46.3364 152.883 46.4179C152.822 46.4994 152.786 46.5973 152.781 46.699Z" fill="#263238"/>
<path d="M155.164 46.418L155.084 49.3873L153.522 48.9041L155.164 46.418Z" fill="#F28F8F"/>
<path d="M156.816 53.1172C158.078 52.953 160.672 52.2072 161.075 51.1846C160.912 51.7032 160.594 52.1597 160.165 52.4933C159.391 53.1547 156.816 53.9006 156.816 53.9006V53.1172Z" fill="#F28F8F"/>
<path opacity="0.1" d="M160.371 78.2785C160.879 78.1615 161.359 77.9441 161.782 77.639C162.206 77.334 162.564 76.9475 162.835 76.5023C163.107 76.057 163.287 75.562 163.365 75.0462C163.443 74.5303 163.417 74.0042 163.289 73.4985C163.214 73.1902 163.037 72.9163 162.786 72.7213C162.536 72.5263 162.227 72.4217 161.91 72.4243C162.326 72.1485 162.684 71.793 162.962 71.3784C163.241 70.9638 163.435 70.4983 163.533 70.0085L164.321 65.3177C164.416 64.5536 164.347 63.778 164.119 63.0426L166.727 60.0264L167.196 60.3594C167.593 61.6843 167.555 63.1011 167.088 64.4029L164.508 71.8849C164.508 71.8849 165.719 74.812 167.126 77.5749C165.017 78.7127 162.688 79.3851 160.297 79.547C157.906 79.7088 155.508 79.3563 153.264 78.5131C155.627 78.8834 158.038 78.8039 160.371 78.2785Z" fill="black"/>
<path d="M173.773 74.2336C170.405 60.4659 167.914 55.8735 163.824 55.9392C162.628 57.3464 162.961 61.6808 164.846 64.2983C164.846 64.2983 169.068 73.1781 169.73 76.3351C170.316 79.1074 170.987 82.5974 170.944 84.9803C170.931 85.4032 170.765 85.8067 170.475 86.1155C169.706 86.9505 169.706 87.6213 169.204 88.5407C168.815 89.2631 168.388 89.5352 168.51 89.6947C168.671 89.8662 168.89 89.9711 169.125 89.9885C169.359 90.0058 169.592 89.9345 169.776 89.7885C170.131 89.5206 170.447 89.2049 170.715 88.8503C170.582 89.7338 170.326 90.5943 169.955 91.4068C169.092 93.3535 169.303 94.348 171.93 93.6538C173.576 93.2175 174.613 91.8478 174.861 87.884C174.98 86.4265 174.994 84.9623 174.904 83.5027C174.571 79.75 174.317 76.4476 173.773 74.2336Z" fill="#FFA8A7"/>
<path d="M140.356 113.596C140.717 100.194 139.643 96.9856 136.078 94.5322L134.694 102.296C134.694 102.296 136.317 111.443 136.143 114.492C135.993 117.17 135.73 120.52 135.097 122.682C134.986 123.072 134.733 123.406 134.389 123.62C133.479 124.188 133.113 124.77 132.428 125.497C131.893 126.06 131.438 126.196 131.49 126.374C131.593 126.571 131.767 126.721 131.976 126.796C132.186 126.871 132.416 126.864 132.62 126.777C133.074 126.594 133.505 126.36 133.906 126.078C133.591 126.9 133.146 127.665 132.588 128.344C131.312 129.906 131.255 130.868 133.831 130.891C135.44 130.891 136.725 129.911 137.94 126.36C138.411 125.058 138.789 123.724 139.07 122.368C139.708 118.826 140.299 115.754 140.356 113.596Z" fill="#B16668"/>
<path d="M133.08 93.5142C134.783 93.2656 137.095 93.6221 138.592 96.2959C140.088 98.9697 140.468 103.571 140.623 108.145C140.623 108.145 137.654 110.626 134.088 109.407L133.08 93.5142Z" fill="#1058FB"/>
<path opacity="0.1" d="M133.08 93.5142C134.783 93.2656 137.095 93.6221 138.592 96.2959C140.088 98.9697 140.468 103.571 140.623 108.145C140.623 108.145 137.654 110.626 134.088 109.407L133.08 93.5142Z" fill="black"/>
<path d="M138.086 167.213C138.353 167.316 138.423 167.832 138.465 168.854C138.494 169.628 138.662 170.984 137.752 171.251C136.842 171.519 135.515 171.383 134.938 170.656C134.211 169.717 133.723 168.939 132.686 167.841C131.786 166.875 130.81 165.965 130.453 164.623C130.125 163.399 130.397 162.869 131.232 162.512C132.377 162.043 134.183 163.624 135.079 163.873C135.848 164.098 137.813 167.109 138.086 167.213Z" fill="#263238"/>
<path d="M138.085 166.265V167.522C137.613 167.824 137.067 167.991 136.507 168.006C135.946 168.021 135.392 167.883 134.905 167.606C134.853 167.484 134.576 165.81 134.576 165.81L138.085 166.265Z" fill="#B16668"/>
<path d="M127.92 174.46C128.139 175.133 128.324 175.818 128.473 176.51C128.628 177.27 128.849 178.541 128.586 179.113C128.323 179.686 127.282 180.051 125.668 180.051C124.627 180.051 123.004 180.75 121.892 181.37C120.78 181.989 118.351 182.266 117.136 182.125C115.705 181.956 114.223 181.126 113.988 180.53C113.754 179.934 114.063 179.324 117.441 177.884C117.473 177.884 122.131 176.355 123.764 174.554L127.92 174.46Z" fill="#263238"/>
<path d="M127.92 173.1C127.92 173.1 127.92 174.038 127.92 174.568C127.92 175.098 127.296 175.895 125.664 175.834C124.519 175.797 123.722 175.487 123.787 174.544V173.184L127.92 173.1Z" fill="#B16668"/>
<path d="M138.901 149.58C138.623 147.347 138.126 145.148 137.419 143.012C137.419 143.012 137.865 137.383 138.08 132.008C138.315 126.219 138.08 118.948 138.179 117.504C138.179 117.504 119.509 113.751 119.176 120.412C118.843 127.073 119.913 144.129 120.114 147.065C120.316 150.002 120.841 152.605 121.451 157.385C122.061 162.165 123.726 173.184 123.726 173.184C124.373 173.513 125.09 173.677 125.815 173.662C126.54 173.648 127.25 173.454 127.882 173.1C127.882 173.1 129.196 159.726 129.06 156.335C128.954 153.823 128.522 151.337 127.774 148.937C127.774 148.937 128.126 143.421 128.441 138.617C128.755 133.814 129.083 131.515 129.154 129.432L129.557 129.231C129.557 129.231 129.965 137.505 130.186 140.447C130.406 143.388 130.875 146.202 131.724 151.658C132.465 156.396 134.661 166.411 134.661 166.411C136.79 167.564 138.066 166.26 138.066 166.26C138.066 166.26 139.478 153.689 138.901 149.58Z" fill="#37474F"/>
<path d="M129.173 129.438C129.173 129.438 133.704 127.205 135.97 125.192C135.97 125.192 133.863 128.157 131.101 129.47C131.101 129.47 130.12 139.753 130.125 139.546L129.557 129.419L129.173 129.438Z" fill="#263238"/>
<path d="M125.143 91.3927L126.25 97.472L131.738 97.0733L130.589 90.1777L125.143 91.3927Z" fill="#B16668"/>
<path d="M137.541 96.6295C136.997 94.9783 134.901 93.177 132.804 93.5664C129.685 94.0962 126.612 94.863 123.61 95.8602C121.686 96.5498 119.937 98.2056 119.777 104.529C119.777 104.529 119.135 119.268 119.125 122.115C123.947 124.024 128.976 123.968 131.739 123.363C137.518 122.101 138.212 119.704 138.212 119.704C138.212 119.704 138.287 109.107 138.114 104.529C137.968 100.64 137.917 97.7647 137.541 96.6295Z" fill="#1058FB"/>
<path d="M120.908 83.9971C120.908 83.9971 119.5 86.2205 119.683 86.4316C119.866 86.6427 120.917 86.8116 120.917 86.8116L120.908 83.9971Z" fill="#B16668"/>
<path d="M124.772 77.8565C121.869 78.5366 121.057 79.836 120.884 84.48C120.705 89.3303 121.235 90.8408 121.888 91.4788C122.324 91.9103 124.702 91.9478 125.912 91.5773C127.409 91.1082 130.791 89.8416 132.329 87.3555C134.14 84.4471 134.548 80.5537 132.503 79.001C129.623 76.8479 125.955 77.575 124.772 77.8565Z" fill="#B16668"/>
<path d="M125.204 91.7269C126.189 90.9342 126.1 90.4229 126.1 90.4229C125.396 91.0843 122.779 91.6472 121.878 91.4783C122.249 91.8583 123.951 91.9145 125.204 91.7269Z" fill="#9A4A4D"/>
<path d="M120.917 79.0616C121.77 80.5204 123.619 81.2194 123.619 81.2194C124.177 81.8527 123.867 84.3294 124.848 84.7188C124.848 84.7188 125.27 82.9175 126.785 83.1098C128.3 83.3021 128.558 85.2348 127.625 86.4309C126.691 87.6271 125.795 87.2002 125.795 87.2002C125.795 87.2002 125.898 89.7568 127.066 91.1828C127.066 91.1828 128.366 91.5721 130.725 91.0092C132.18 90.6668 134.201 88.7951 135.022 86.8484C136.767 82.7205 136.809 79.0428 134.178 78.0014C133.854 76.1251 132.353 75.3136 130.655 74.9618C127.001 74.2112 124.646 76.491 121.831 76.294C120.218 76.1814 119.918 77.3494 120.917 79.0616Z" fill="#263238"/>
<path d="M134.239 78.6311L135.96 77.5616C135.818 77.3333 135.592 77.1707 135.33 77.1096C135.068 77.0484 134.793 77.0938 134.565 77.2356C134.336 77.3774 134.174 77.6041 134.113 77.8658C134.051 78.1276 134.097 78.4028 134.239 78.6311Z" fill="#263238"/>
<path d="M123.759 95.8359C123.759 95.8359 121.029 96.3426 119.603 98.5004C118.177 100.658 112.004 108.398 112.004 108.398C112.004 108.398 103.129 103.956 102.693 103.426C102.256 102.896 102.5 101.836 102.622 101.249C102.744 100.663 102.941 99.3729 103.091 98.9976C103.316 98.3549 102.374 98.5285 101.815 99.1242C101.257 99.72 101.013 100.888 100.737 101.09C100.46 101.291 98.3442 98.8615 97.3216 97.6888C96.2989 96.5161 95.8158 95.6952 95.1262 96.1784C94.6337 96.5302 94.9527 97.2244 95.6844 98.2283C96.0287 98.6493 96.3423 99.0945 96.6226 99.5605C96.7117 99.7387 96.4397 99.8842 96.3365 99.978C96.1348 100.156 95.7829 100.447 95.7548 100.729C95.7697 100.885 95.7697 101.042 95.7548 101.198C95.6563 101.531 95.2435 101.667 95.1262 102.014C95.0418 102.253 95.1262 102.516 95.0887 102.764C95.0559 102.924 94.9714 103.065 94.9386 103.233C94.9295 103.393 94.9545 103.552 95.0119 103.701C95.0694 103.85 95.1579 103.985 95.2716 104.097C95.9893 104.955 96.9744 105.283 97.9173 105.804C98.7007 106.24 99.5122 106.428 100.418 106.831C101.323 107.235 111.962 115.097 113.622 114.182C115.283 113.267 123.792 103.323 123.792 103.323C124.511 102.205 124.891 100.903 124.885 99.5744C124.879 98.2456 124.488 96.9471 123.759 95.8359Z" fill="#B16668"/>
<path d="M124.711 95.5166C123.539 95.6479 121.897 95.4322 119.594 97.8996C117.745 100.017 116.022 102.241 114.434 104.561C114.736 105.779 115.384 106.884 116.299 107.744C117.215 108.603 118.358 109.181 119.594 109.406C119.594 109.406 123.618 105.283 124.754 103.008C125.889 100.733 126.09 97.0458 124.711 95.5166Z" fill="#1058FB"/>
<path opacity="0.1" d="M124.711 95.5166C123.539 95.6479 121.897 95.4322 119.594 97.8996C117.745 100.017 116.022 102.241 114.434 104.561C114.736 105.779 115.384 106.884 116.299 107.744C117.215 108.603 118.358 109.181 119.594 109.406C119.594 109.406 123.618 105.283 124.754 103.008C125.889 100.733 126.09 97.0458 124.711 95.5166Z" fill="black"/>
<path d="M78.7469 8.41093L72.0242 4.71968L71.9675 4.68612C69.0348 3.11566 65.004 3.34386 60.5483 5.7935C51.58 10.6995 44.3048 22.6323 44.3048 32.4443C44.3048 37.3436 46.1254 40.7865 49.051 42.3972L55.1786 45.7529L56.5954 43.4778C58.2327 43.1341 59.8047 42.5547 61.2566 41.7597C70.2249 36.8537 77.5001 24.9209 77.5001 15.1089C77.4987 13.7832 77.3274 12.4626 76.9901 11.176L78.7469 8.41093Z" fill="#1058FB"/>
<path opacity="0.15" d="M44.8995 27.2852C44.5031 28.9825 44.2965 30.7146 44.2832 32.4529C44.2832 37.3522 46.1038 40.7951 49.0294 42.4058L55.157 45.7615L56.5738 43.4864C58.2111 43.1427 59.7831 42.5633 61.235 41.7683C62.8223 40.8883 64.3064 39.8512 65.6625 38.6743L44.8995 27.2852Z" fill="black"/>
<path d="M66.9231 9.28928C57.9549 14.1953 50.6797 26.1281 50.6797 35.9401C50.6797 45.7521 57.9549 49.7319 66.9231 44.8259C75.8914 39.9199 83.1666 27.9871 83.1666 18.1751C83.1666 8.36312 75.8985 4.38328 66.9231 9.28928Z" fill="#1058FB"/>
<path d="M73.3412 22.9469V19.1751C73.3412 14.8731 70.5785 12.8933 67.1782 14.759C63.7709 16.6248 61.0081 21.618 61.0081 25.92V29.2757C60.9335 31.6041 60.218 33.8737 58.9325 35.8595C58.6162 36.3859 58.4433 36.9787 58.4296 37.5843C58.4296 38.6649 59.138 39.1682 59.9809 38.6984L74.3826 30.8193C74.8548 30.4978 75.2411 30.076 75.5105 29.5877C75.7799 29.0994 75.9249 28.5581 75.934 28.0072C75.956 27.7968 75.9266 27.5845 75.8479 27.3866C75.7693 27.1887 75.6436 27.0107 75.4806 26.8663C74.1771 26.3428 73.3412 24.9603 73.3412 22.9469Z" fill="white"/>
<path d="M70.1331 34.3555C70.1331 36.4226 68.8084 38.8185 67.1791 39.7246C65.5498 40.6306 64.218 39.6709 64.218 37.6105L70.1331 34.3555Z" fill="white"/>
</svg>
