<svg width="332" height="410" viewBox="0 0 332 410" fill="none" xmlns="http://www.w3.org/2000/svg">
<path d="M62.5275 190.674C58.3148 194.285 59.8134 206.015 66.7403 205.189C70.5755 204.729 74.328 199.289 70.9649 196.15C70.862 196.075 70.7381 196.035 70.6109 196.035C70.4837 196.035 70.3597 196.075 70.2568 196.15C66.5397 198.592 64.9112 202.982 69.0768 205.944C70.9121 207.16 73.1056 207.717 75.2985 207.524C77.4913 207.331 79.5539 206.399 81.1487 204.882C81.3375 204.705 80.9363 204.445 80.7711 204.563C77.585 206.747 73.4194 207.702 69.9972 205.437C69.3636 205.068 68.8166 204.567 68.3931 203.969C67.9697 203.37 67.6797 202.688 67.5427 201.967C67.4428 201.157 67.5866 200.335 67.9558 199.607C68.2508 198.994 69.596 197.058 70.3159 197.058C71.7909 197.058 71.1537 200.28 70.7879 201.071C70.4346 201.86 69.9121 202.561 69.2575 203.126C68.603 203.691 67.8323 204.105 66.9999 204.339C64.274 204.894 62.4803 202.392 61.7015 200.115C60.6512 197.047 60.7575 193.518 63.0114 191.005C63.212 190.769 62.6927 190.497 62.5157 190.651L62.5275 190.674Z" fill="#1058FB"/>
<path d="M114.665 309.246C116.4 305.34 116.223 301.292 121.274 300.006C123.492 299.439 128.743 298.92 130.407 300.903C130.707 301.377 130.828 301.944 130.748 302.5C130.668 303.055 130.392 303.565 129.971 303.935C128.661 305.115 127.67 303.699 127.339 302.449C127.07 301.294 127.169 300.083 127.622 298.987C128.075 297.891 128.859 296.964 129.864 296.336C131.984 294.939 134.551 294.388 137.057 294.792C139.563 295.196 141.827 296.526 143.4 298.519C143.588 298.743 143.789 298.46 143.706 298.248C139.836 289.338 121.286 295.533 127.186 304.148C128.991 306.732 132.177 304.443 131.576 301.717C130.915 298.684 125.675 298.838 123.457 298.979C121.146 298.971 118.912 299.811 117.179 301.339C115.149 303.334 114.89 306.473 114.465 309.128C114.465 309.246 114.571 309.423 114.642 309.246H114.665Z" fill="#1058FB"/>
<path d="M282.457 175.511C286.079 174.449 291.059 174.744 294.092 177.186C296.452 179.074 297.774 183.169 294.316 184.574C292.959 185.116 288.487 185.116 287.956 183.275C287.578 181.989 288.959 181.222 290.068 181.057C293.313 180.55 296.358 183.972 296.275 187.028C296.169 191.618 290.823 193.141 287.047 193.176C286.799 193.176 286.858 193.648 287.047 193.66C293.478 194.285 300.653 188.326 294.93 182.355C293.396 180.75 290.988 179.606 288.77 180.491C287.519 180.998 286.528 182.131 287.153 183.488C288.156 185.671 292.192 186.049 294.151 185.494C294.67 185.356 295.156 185.113 295.577 184.779C295.999 184.446 296.348 184.03 296.602 183.557C296.856 183.083 297.011 182.563 297.056 182.027C297.101 181.492 297.036 180.953 296.865 180.443C295.284 174.638 287.153 173.363 282.339 175.169C282.197 175.169 282.256 175.558 282.421 175.511H282.457Z" fill="#1058FB"/>
<path d="M119.365 216.49C122.988 215.428 127.968 215.723 131.012 218.165C133.373 220.053 134.694 224.148 131.225 225.553C129.88 226.095 125.407 226.095 124.864 224.254C124.499 222.968 125.879 222.201 126.977 222.036C130.234 221.529 133.266 224.951 133.196 228.007C133.089 232.597 127.744 234.12 123.968 234.155C123.708 234.155 123.779 234.627 123.968 234.651C130.399 235.264 137.574 229.305 131.862 223.334C130.316 221.729 127.921 220.585 125.702 221.47C124.44 221.977 123.448 223.11 124.074 224.467C125.077 226.65 129.124 227.028 131.083 226.473C131.603 226.335 132.088 226.092 132.51 225.758C132.931 225.425 133.28 225.009 133.534 224.536C133.789 224.062 133.943 223.542 133.989 223.006C134.034 222.471 133.969 221.932 133.797 221.422C132.216 215.617 124.086 214.342 119.259 216.148C119.129 216.148 119.177 216.537 119.342 216.49H119.365Z" fill="#1058FB"/>
<path d="M192.534 326.199C196.157 325.149 201.137 325.432 204.181 327.887C206.541 329.763 207.863 333.858 204.394 335.262C203.037 335.817 198.576 335.817 198.033 333.964C197.667 332.678 199.048 331.911 200.145 331.745C203.402 331.25 206.435 334.672 206.364 337.728C206.258 342.319 200.912 343.829 197.136 343.876C196.877 343.876 196.947 344.337 197.136 344.36C203.568 344.974 210.742 339.015 205.031 333.055C203.485 331.439 201.089 330.306 198.871 331.191C197.608 331.686 196.617 332.819 197.242 334.188C198.246 336.371 202.293 336.737 204.252 336.182C204.772 336.046 205.259 335.804 205.681 335.471C206.103 335.138 206.452 334.721 206.705 334.247C206.959 333.773 207.112 333.251 207.155 332.715C207.198 332.179 207.129 331.64 206.954 331.132C205.385 325.326 197.254 324.122 192.428 325.869C192.286 325.869 192.345 326.246 192.51 326.199H192.534Z" fill="#1058FB"/>
<path d="M303.379 242.667C299.06 243.954 295.048 251.553 299.06 255.011C302.47 257.949 309.362 257.288 308.217 251.683C308.206 251.619 308.179 251.559 308.138 251.509C308.096 251.46 308.042 251.422 307.981 251.4C303.45 250.314 301.951 255.601 302.907 259.094C304.382 264.522 309.857 264.451 313.811 261.619C313.94 261.524 313.881 261.147 313.693 261.241C310.459 262.858 305.928 264.298 303.957 260.167C302.907 257.961 302.872 254.267 304.901 252.603C305.429 252.111 306.126 251.84 306.848 251.848C308.359 252.025 308.099 253.654 307.25 254.692C305.893 256.344 303.167 256.167 301.349 255.53C295.13 253.323 299.402 245.263 303.462 242.998C303.58 242.927 303.556 242.62 303.379 242.667Z" fill="#1058FB"/>
<path d="M305.973 129.005C301.654 130.291 297.642 137.891 301.654 141.348C305.065 144.287 311.956 143.626 310.811 138.02C310.801 137.957 310.773 137.897 310.732 137.847C310.69 137.797 310.636 137.759 310.575 137.737C306.044 136.652 304.545 141.938 305.501 145.431C306.976 150.859 312.452 150.789 316.405 147.957C316.535 147.862 316.476 147.484 316.287 147.579C313.054 149.196 308.522 150.635 306.551 146.505C305.501 144.298 305.466 140.605 307.495 138.941C308.023 138.448 308.721 138.178 309.443 138.186C310.953 138.363 310.693 139.991 309.844 141.03C308.487 142.682 305.761 142.505 303.944 141.867C297.725 139.661 301.996 131.601 306.056 129.335C306.174 129.265 306.15 128.958 305.973 129.005Z" fill="#1058FB"/>
<path d="M201.044 242.593C195.958 241.944 184.995 246.239 187.839 253.213C189.361 256.918 196.158 259.302 198.4 255.042C198.445 254.926 198.445 254.797 198.399 254.681C198.353 254.565 198.265 254.471 198.153 254.417C187.532 248.41 176.333 265.781 187.615 272.117C187.969 272.318 187.957 271.716 187.745 271.563C186.77 270.897 185.939 270.044 185.299 269.052C184.66 268.061 184.224 266.952 184.019 265.79C183.813 264.628 183.842 263.437 184.102 262.287C184.363 261.136 184.851 260.049 185.538 259.09C186.684 257.255 188.318 255.776 190.258 254.818C191.709 254.134 195.356 253.166 196.701 254.594C197.327 255.243 197.303 254.417 196.984 255.184C196.795 255.656 196.146 255.927 195.686 256.104C194.545 256.457 193.317 256.412 192.205 255.974C189.845 255.16 187.98 252.989 188.606 250.369C189.857 245.142 196.512 243.289 201.162 243.206C201.492 243.206 201.28 242.604 201.032 242.569L201.044 242.593Z" fill="#1058FB"/>
<path d="M48.1359 0.0645513C43.0499 -0.584476 32.0873 3.7109 34.9312 10.685C36.4534 14.3904 43.2505 16.7741 45.4926 12.5141C45.5376 12.3978 45.537 12.2688 45.4911 12.1529C45.4452 12.037 45.3572 11.9426 45.2448 11.8887C34.6244 5.8822 23.4257 23.2525 34.707 29.5894C35.061 29.79 35.0492 29.1882 34.8368 29.0348C33.8628 28.369 33.0314 27.5155 32.3916 26.5243C31.7518 25.533 31.3164 24.424 31.1109 23.2622C30.9053 22.1004 30.9338 20.9093 31.1947 19.7587C31.4556 18.6081 31.9436 17.5212 32.6301 16.5617C33.7763 14.727 35.4107 13.2478 37.3503 12.2899C38.8018 11.6054 42.4481 10.6378 43.7934 12.0657C44.4188 12.7147 44.3952 11.8887 44.0766 12.6557C43.8878 13.1277 43.2387 13.3991 42.7785 13.5761C41.637 13.9293 40.4094 13.8835 39.2974 13.4463C36.9373 12.6321 35.0728 10.4608 35.6982 7.84109C36.9491 2.61347 43.6046 0.760786 48.254 0.678182C48.5844 0.678182 48.3719 0.0763648 48.1241 0.0409633L48.1359 0.0645513Z" fill="#1058FB"/>
<path d="M230.535 176.632C230.535 176.632 230.228 182.343 234.464 185.518L238.901 184.161C238.901 184.161 235.939 182.744 234.464 176.632H230.535Z" fill="#00B6FF"/>
<path d="M118.619 324.02C118.619 324.02 118.3 329.719 122.548 332.894L126.985 331.548C126.985 331.548 124.023 330.121 122.548 324.02H118.619Z" fill="#00B6FF"/>
<path d="M251.005 378C251.005 378 250.687 383.7 254.935 386.874L259.372 385.529C259.372 385.529 256.41 384.101 254.935 378H251.005Z" fill="#00B6FF"/>
<path d="M331.146 205.248C331.146 205.248 328.55 210.346 323.298 210.971L320.124 207.573C320.124 207.573 323.405 207.832 327.747 203.289L331.146 205.248Z" fill="#00B6FF"/>
<path d="M68.8326 237.419C68.8326 237.419 66.2483 242.505 60.9853 243.13L57.8228 239.743C57.8228 239.743 61.1033 239.991 65.4341 235.448L68.8326 237.419Z" fill="#00B6FF"/>
<path d="M151.306 349.497C151.306 349.497 148.722 354.595 143.459 355.221L140.284 351.822C140.284 351.822 143.577 352.082 147.907 347.538L151.306 349.497Z" fill="#1058FB"/>
<path d="M283.693 403.477C283.693 403.477 281.108 408.575 275.845 409.201L272.671 405.802C272.671 405.802 275.963 406.062 280.294 401.519L283.693 403.477Z" fill="#1058FB"/>
<path d="M270.022 143.959C270.022 143.959 267.437 149.057 262.174 149.682L259 146.284C259 146.284 262.292 146.543 266.623 142L270.022 143.959Z" fill="#1058FB"/>
<path d="M221.022 132.959C221.022 132.959 218.437 138.057 213.174 138.682L210 135.284C210 135.284 213.292 135.543 217.623 131L221.022 132.959Z" fill="#1058FB"/>
<path d="M131.022 31.9589C131.022 31.9589 128.437 37.0567 123.174 37.6821L120 34.2836C120 34.2836 123.292 34.5432 127.623 30L131.022 31.9589Z" fill="#1058FB"/>
<path d="M305.022 16.9589C305.022 16.9589 302.437 22.0567 297.174 22.6821L294 19.2836C294 19.2836 297.292 19.5432 301.623 15L305.022 16.9589Z" fill="#1058FB"/>
<path d="M311.022 89.9589C311.022 89.9589 308.437 95.0567 303.174 95.6821L300 92.2836C300 92.2836 303.292 92.5432 307.623 88L311.022 89.9589Z" fill="#1058FB"/>
<path d="M278.917 225.214C278.917 225.214 273.241 225.922 269.783 221.898L270.833 217.379C270.833 217.379 272.45 220.246 278.645 221.297L278.917 225.214Z" fill="#1058FB"/>
<path d="M196.62 197.353C196.62 197.353 190.956 198.061 187.498 194.049L188.536 189.53C188.536 189.53 190.165 192.385 196.36 193.447L196.62 197.353Z" fill="#1058FB"/>
<path d="M246.324 344.768C246.324 344.768 240.647 345.476 237.19 341.464L238.24 336.932C238.24 336.932 239.869 339.8 246.052 340.85L246.324 344.768Z" fill="#1058FB"/>
<path d="M149.926 272.169C149.926 272.169 144.25 272.865 140.792 268.853L141.83 264.333C141.83 264.333 143.459 267.201 149.654 268.251L149.926 272.169Z" fill="#1058FB"/>
<path d="M241.592 296.386C241.592 296.386 235.915 297.082 232.47 293.07L233.508 288.55C233.508 288.55 235.137 291.418 241.32 292.468L241.592 296.386Z" fill="#1058FB"/>
<path d="M13.4948 180.021C13.4948 180.021 7.83059 180.717 4.37305 176.705L5.41149 172.185C5.41149 172.185 7.03996 175.041 13.2352 176.103L13.4948 180.021Z" fill="#1058FB"/>
<path d="M240.057 224.034C240.057 224.034 237.461 229.132 232.21 229.758L229.036 226.394C229.036 226.394 232.918 226.996 237.296 222.453L240.057 224.034Z" fill="#00B6FF"/>
<path d="M297.373 309.697C297.373 309.697 291.673 309.201 289.112 304.563L291.071 300.351C291.071 300.351 291.968 304.174 297.809 306.487L297.373 309.697Z" fill="#1058FB"/>
<path d="M245.769 231.551C245.769 231.551 244.755 237.168 239.869 239.28L235.857 236.92C238.698 235.638 241.058 233.485 242.595 230.772L245.769 231.551Z" fill="#00B6FF"/>
<path d="M229.031 69.108C234.554 68.5652 242.012 77.7578 236.607 82.183C233.622 84.6493 227.084 83.5755 227.167 78.9851C227.183 78.8599 227.238 78.743 227.325 78.6517C227.412 78.5604 227.526 78.4994 227.651 78.4776C231.993 77.4864 236.277 79.3391 235.545 84.3779C235.155 86.5428 234.041 88.5109 232.386 89.9601C230.731 91.4093 228.633 92.2537 226.435 92.355C226.164 92.355 226.258 91.9066 226.435 91.8712C230.211 91.0688 233.775 88.7205 234.507 84.6847C234.677 83.9726 234.693 83.2321 234.553 82.5134C234.412 81.7947 234.119 81.1146 233.692 80.5191C233.182 79.8916 232.496 79.4313 231.722 79.1975C231.085 78.9969 228.748 78.6311 228.241 79.1975C227.214 80.2595 229.987 82.0296 230.813 82.3128C231.626 82.6094 232.495 82.721 233.356 82.6393C234.218 82.5577 235.05 82.2849 235.793 81.8408C238.082 80.2477 237.516 77.2268 236.407 75.0791C234.92 72.1998 232.288 69.8397 228.913 69.7335C228.618 69.7335 228.772 69.1552 229.008 69.1316L229.031 69.108Z" fill="#1058FB"/>
<path d="M29.0484 238.174C27.3137 234.268 27.4907 230.22 22.4519 228.934C20.2334 228.368 14.9822 227.848 13.3065 229.819C13.0149 230.298 12.899 230.864 12.9787 231.42C13.0583 231.975 13.3286 232.486 13.7431 232.864C15.0648 234.044 16.0442 232.628 16.3864 231.377C16.6499 230.222 16.5484 229.014 16.0961 227.919C15.6438 226.824 14.8629 225.896 13.8611 225.264C11.743 223.865 9.17777 223.31 6.67056 223.707C4.16335 224.105 1.89575 225.426 0.314168 227.412C0.137161 227.648 -0.0634477 227.353 0.0191558 227.152C3.88972 218.243 22.4401 224.438 16.5399 232.982C14.7344 235.566 11.5364 233.288 12.1383 230.563C12.8109 227.518 18.0385 227.671 20.257 227.825C22.572 227.814 24.8104 228.654 26.5467 230.185C28.5646 232.167 28.836 235.306 29.2608 237.973C29.2608 238.091 29.1546 238.268 29.072 238.091L29.0484 238.174Z" fill="#1058FB"/>
<path d="M227.048 45.3732C225.314 41.4672 225.491 37.4197 220.452 36.1334C218.233 35.567 212.982 35.0478 211.307 37.0184C211.015 37.4978 210.899 38.0636 210.979 38.619C211.058 39.1744 211.329 39.6849 211.743 40.063C213.065 41.243 214.044 39.827 214.386 38.5761C214.65 37.4212 214.548 36.2129 214.096 35.1181C213.644 34.0232 212.863 33.0957 211.861 32.4635C209.743 31.0644 207.178 30.5089 204.671 30.9064C202.163 31.3039 199.896 32.6255 198.314 34.6112C198.137 34.8472 197.937 34.5521 198.019 34.3515C201.89 25.4422 220.44 31.6374 214.54 40.181C212.734 42.7653 209.536 40.4878 210.138 37.7619C210.811 34.7174 216.039 34.8708 218.257 35.0242C220.572 35.0131 222.81 35.853 224.547 37.3843C226.565 39.3668 226.836 42.5057 227.261 45.1726C227.261 45.2906 227.155 45.4676 227.072 45.2906L227.048 45.3732Z" fill="#1058FB"/>
<path d="M75.1648 63.2432C71.5421 62.1812 66.5623 62.4762 63.5178 64.9189C61.1577 66.807 59.8478 70.9018 63.3053 72.306C64.6624 72.8488 69.1348 72.8488 69.6658 71.008C70.0434 69.7217 68.6628 68.9547 67.5535 68.7895C64.3084 68.282 61.2639 71.7042 61.3347 74.7605C61.4527 79.3509 66.7983 80.8732 70.5745 80.9086C70.8223 80.9086 70.7633 81.3806 70.5745 81.3924C64.1432 82.0178 56.9685 76.0586 62.6799 70.0875C64.2258 68.4827 66.6331 67.338 68.8516 68.223C70.1024 68.7305 71.0937 69.8633 70.4682 71.2204C69.4652 73.4035 65.4294 73.7811 63.4705 73.2264C62.9512 73.0883 62.4658 72.8451 62.0442 72.5118C61.6226 72.1786 61.2738 71.7625 61.0194 71.2891C60.765 70.8157 60.6104 70.2952 60.5652 69.7597C60.52 69.2242 60.5851 68.6852 60.7564 68.1758C62.3377 62.37 70.4564 61.0955 75.2828 62.901C75.4245 62.901 75.3655 63.2904 75.2002 63.2432H75.1648Z" fill="#1058FB"/>
<path d="M76.7347 345.712C73.112 344.662 68.1322 344.945 65.0876 347.399C62.7275 349.276 61.4177 353.37 64.8752 354.775C66.2323 355.329 70.7047 355.329 71.2357 353.477C71.6133 352.19 70.2327 351.435 69.1234 351.258C65.8783 350.763 62.8337 354.185 62.9046 357.241C63.0226 361.831 68.3682 363.354 72.1443 363.389C72.3922 363.389 72.3214 363.849 72.1443 363.873C65.7131 364.498 58.5384 358.539 64.2498 352.568C65.7957 350.951 68.203 349.818 70.4215 350.703C71.6723 351.199 72.6636 352.332 72.0381 353.701C71.0351 355.884 66.9993 356.262 65.0404 355.695C64.5192 355.56 64.0316 355.319 63.6081 354.986C63.1846 354.654 62.8345 354.237 62.5796 353.763C62.3247 353.289 62.1707 352.767 62.1271 352.23C62.0835 351.694 62.1513 351.154 62.3263 350.644C63.9076 344.839 72.0263 343.635 76.8527 345.381C76.9943 345.381 76.9353 345.771 76.7701 345.712H76.7347Z" fill="#1058FB"/>
<path d="M42.3122 132.583C46.6312 133.869 50.6434 141.469 46.6312 144.926C43.2209 147.876 36.3294 147.204 37.474 141.599C37.4869 141.536 37.5152 141.477 37.5564 141.427C37.5976 141.378 37.6504 141.339 37.71 141.315C42.2414 140.242 43.7401 145.528 42.7842 149.021C41.3092 154.438 35.8337 154.379 31.8806 151.535C31.7508 151.44 31.8098 151.074 31.9986 151.169C35.2319 152.785 39.7633 154.213 41.734 150.083C42.7842 147.876 42.8196 144.183 40.79 142.531C40.2633 142.035 39.5663 141.76 38.8429 141.764C37.3324 141.941 37.592 143.581 38.4417 144.608C39.7987 146.26 42.5246 146.083 44.3419 145.446C50.5608 143.251 46.289 135.179 42.2296 132.913C42.1116 132.843 42.1352 132.536 42.3122 132.583Z" fill="#1058FB"/>
<path d="M190.501 372.005C194.82 373.291 198.832 380.891 194.82 384.348C191.41 387.298 184.518 386.626 185.663 381.02C185.676 380.957 185.704 380.899 185.745 380.849C185.787 380.8 185.839 380.761 185.899 380.737C190.43 379.663 191.929 384.95 190.973 388.443C189.498 393.859 184.023 393.8 180.07 390.957C179.94 390.862 179.999 390.496 180.188 390.591C183.421 392.207 187.952 393.635 189.923 389.505C190.973 387.298 191.009 383.605 188.979 381.953C188.452 381.457 187.755 381.182 187.032 381.186C185.521 381.363 185.781 383.003 186.631 384.03C187.988 385.682 190.714 385.505 192.531 384.867C198.75 382.673 194.478 374.601 190.419 372.335C190.301 372.265 190.324 371.958 190.501 372.005Z" fill="#1058FB"/>
<path d="M47.7051 270.802C40.3534 271.392 41.6868 285.352 47.6225 287.229C47.9862 287.364 48.3739 287.424 48.7617 287.404C49.1494 287.383 49.5288 287.284 49.8764 287.111C50.3186 286.788 50.6726 286.36 50.9056 285.865C51.1387 285.37 51.2433 284.824 51.2098 284.278C50.5018 281.918 46.4896 284.916 46.0294 285.848C45.2648 287.073 44.9067 288.509 45.0063 289.95C45.1059 291.391 45.6581 292.764 46.584 293.872C49.6167 297.2 55.3872 297.318 59.1751 295.406C59.3757 295.312 59.4112 295.678 59.2695 295.772C55.2102 298.38 48.3777 298.002 45.3686 293.872C43.0085 290.556 44.6133 281.8 49.8882 282.579C54.7972 283.299 51.3986 288.892 47.6815 288.149C43.9643 287.406 42.619 282.473 42.265 279.417C41.8048 275.57 42.9613 270.366 47.7287 270.46C47.8821 270.46 47.8585 270.79 47.7287 270.802H47.7051Z" fill="#1058FB"/>
<path d="M138.651 113.974C143.737 113.325 154.7 117.62 151.856 124.594C150.334 128.299 143.537 130.683 141.236 126.423C141.191 126.307 141.191 126.178 141.237 126.062C141.283 125.946 141.371 125.852 141.483 125.798C152.104 119.791 163.302 137.162 152.021 143.498C151.667 143.699 151.679 143.097 151.891 142.944C152.865 142.278 153.697 141.425 154.337 140.433C154.976 139.442 155.412 138.333 155.617 137.171C155.823 136.009 155.794 134.818 155.533 133.668C155.273 132.517 154.785 131.43 154.098 130.471C152.952 128.636 151.317 127.157 149.378 126.199C147.926 125.514 144.28 124.547 142.935 125.963C142.309 126.624 142.333 125.798 142.652 126.565C142.84 127.037 143.489 127.308 143.95 127.473C145.107 127.847 146.359 127.805 147.49 127.355C149.85 126.541 151.703 124.37 151.03 121.75C149.779 116.523 143.124 114.67 138.474 114.587C138.144 114.587 138.356 113.985 138.604 113.95L138.651 113.974Z" fill="#1058FB"/>
<path d="M127.677 74.7487C127.677 74.7487 127.996 80.4602 123.748 83.6345L119.311 82.2657C119.311 82.2657 122.272 80.8496 123.748 74.7369L127.677 74.7487Z" fill="#00B6FF"/>
<path d="M24.5522 92.9806C24.5522 92.9806 27.1484 98.0784 32.3996 98.7039L35.6329 95.3053C35.6329 95.3053 32.3524 95.5649 28.0098 91.0217L24.5522 92.9806Z" fill="#00B6FF"/>
<path d="M84.2393 293.943C84.2393 293.943 86.8354 299.041 92.0866 299.666L95.2609 296.268C95.2609 296.268 91.9804 296.515 87.6378 291.972L84.2393 293.943Z" fill="#00B6FF"/>
<path d="M9.10547 369.112C9.10547 369.112 11.7016 374.21 16.9528 374.835L20.1271 371.437C20.1271 371.437 16.8466 371.697 12.504 367.153L9.10547 369.112Z" fill="#00B6FF"/>
<path d="M135.336 174.793C135.336 174.793 137.92 179.891 143.183 180.516L146.346 177.118C146.346 177.118 143.065 177.378 138.734 172.834L135.336 174.793Z" fill="#1058FB"/>
<path d="M176.933 110.587C176.933 110.587 179.517 115.685 184.768 116.31L187.942 112.947C187.942 112.947 184.662 113.207 180.319 108.663L176.933 110.587Z" fill="#00B6FF"/>
<path d="M76.7695 112.947C76.7695 112.947 82.4456 113.655 85.9031 109.631L84.8529 105.111C84.8529 105.111 83.2362 107.979 77.0409 109.029L76.7695 112.947Z" fill="#1058FB"/>
<path d="M274 353.836C274 353.836 279.676 354.544 283.134 350.52L282.083 346C282.083 346 280.467 348.868 274.271 349.918L274 353.836Z" fill="#1058FB"/>
<path d="M173.699 68.7541C173.699 68.7541 179.375 69.4622 182.833 65.45L181.794 60.9304C181.794 60.9304 180.166 63.7861 173.971 64.8482L173.699 68.7541Z" fill="#1058FB"/>
<path d="M176.85 146.626C176.85 146.626 182.526 147.334 185.983 143.321L184.933 138.79C184.933 138.79 183.316 141.658 177.121 142.708L176.85 146.626Z" fill="#1058FB"/>
<path d="M8.49219 318.028C8.49219 318.028 14.1682 318.736 17.614 314.724L16.5755 310.192C16.5755 310.192 14.9471 313.06 8.7636 314.122L8.49219 318.028Z" fill="#1058FB"/>
<path d="M97.9043 389.952C97.9043 389.952 103.58 390.66 107.038 386.648L105.999 382.128C105.999 382.128 104.371 384.984 98.1757 386.046L97.9043 389.952Z" fill="#1058FB"/>
<path d="M105.929 136.453C105.929 136.453 108.513 141.551 113.776 142.177L116.939 138.79C116.939 138.79 113.068 139.38 108.678 134.837L105.929 136.453Z" fill="#00B6FF"/>
<path d="M77 159.755C77 159.755 78.0148 165.384 82.9002 167.496L86.9124 165.136C84.078 163.853 81.7232 161.705 80.1861 159L77 159.755Z" fill="#00B6FF"/>
<path d="M263.842 50.6167C263.842 50.6167 261.246 55.7145 255.995 56.3399L252.821 52.9414C252.821 52.9414 256.703 53.5432 261.081 49L263.842 50.6167Z" fill="#00B6FF"/>
<path d="M256.456 108.71C256.456 108.71 255.441 114.339 250.556 116.44L246.543 114.08C249.38 112.794 251.735 110.642 253.27 107.932L256.456 108.71Z" fill="#00B6FF"/>
</svg>
